<?xml version="1.0" encoding="UTF-8"?>
<!DOCTYPE svg PUBLIC "-//W3C//DTD SVG 1.1//EN" "http://www.w3.org/Graphics/SVG/1.1/DTD/svg11.dtd">
<svg xmlns="http://www.w3.org/2000/svg" version="1.1" width="512px" height="512px" style="shape-rendering:geometricPrecision; text-rendering:geometricPrecision; image-rendering:optimizeQuality; fill-rule:evenodd; clip-rule:evenodd" xmlns:xlink="http://www.w3.org/1999/xlink">
<g><path style="opacity:0.896" fill="#e3ae18" d="M 261.5,29.5 C 253.242,31.1206 244.909,32.9539 236.5,35C 233.353,35.8806 230.353,37.0472 227.5,38.5C 216.012,37.5051 204.345,37.1717 192.5,37.5C 203.015,33.427 214.015,30.927 225.5,30C 237.495,29.5001 249.495,29.3335 261.5,29.5 Z"/></g>
<g><path style="opacity:0.992" fill="#fed848" d="M 261.5,29.5 C 313.695,28.3516 356.528,47.6849 390,87.5C 428.441,136.655 447.274,192.655 446.5,255.5C 447.274,318.345 428.441,374.345 390,423.5C 356.528,463.315 313.695,482.648 261.5,481.5C 250.104,479.156 238.771,476.156 227.5,472.5C 224.066,471.553 220.733,470.386 217.5,469C 212.15,466.662 207.15,463.829 202.5,460.5C 191.051,454.065 180.718,446.065 171.5,436.5C 166.806,432.473 162.473,428.14 158.5,423.5C 150.909,413.305 143.575,402.971 136.5,392.5C 134.081,388.115 131.747,383.782 129.5,379.5C 127.217,372.932 124.383,366.599 121,360.5C 118.632,351.894 115.799,343.561 112.5,335.5C 110.543,330.006 109.043,324.34 108,318.5C 105.998,305.155 103.998,291.822 102,278.5C 101.333,261.167 101.333,243.833 102,226.5C 103.147,221.534 103.98,216.534 104.5,211.5C 104.5,211.167 104.5,210.833 104.5,210.5C 106.94,199.04 109.273,187.373 111.5,175.5C 112.497,175.53 113.164,175.03 113.5,174C 115.252,170.339 116.252,166.506 116.5,162.5C 120.343,151.98 124.677,141.647 129.5,131.5C 131.579,127.007 133.912,122.674 136.5,118.5C 142.995,107.656 150.328,97.3224 158.5,87.5C 162.805,82.8594 167.139,78.1927 171.5,73.5C 180.509,65.6733 189.843,58.3399 199.5,51.5C 205.992,47.7532 212.658,44.2532 219.5,41C 222.154,40.0594 224.821,39.2261 227.5,38.5C 230.353,37.0472 233.353,35.8806 236.5,35C 244.909,32.9539 253.242,31.1206 261.5,29.5 Z"/></g>
<g><path style="opacity:1" fill="#c79414" d="M 192.5,37.5 C 204.345,37.1717 216.012,37.5051 227.5,38.5C 224.821,39.2261 222.154,40.0594 219.5,41C 212.658,44.2532 205.992,47.7532 199.5,51.5C 187.753,51.8113 176.086,51.478 164.5,50.5C 173.223,45.0279 182.557,40.6946 192.5,37.5 Z"/></g>
<g><path style="opacity:0.978" fill="#e4ae18" d="M 164.5,50.5 C 176.086,51.478 187.753,51.8113 199.5,51.5C 189.843,58.3399 180.509,65.6733 171.5,73.5C 160.012,72.5051 148.345,72.1717 136.5,72.5C 144.705,63.7307 154.039,56.3974 164.5,50.5 Z"/></g>
<g><path style="opacity:0.999" fill="#c59314" d="M 136.5,72.5 C 148.345,72.1717 160.012,72.5051 171.5,73.5C 167.139,78.1927 162.805,82.8594 158.5,87.5C 146.167,87.5 133.833,87.5 121.5,87.5C 124.498,84.333 127.331,80.9997 130,77.5C 131.758,75.2345 133.925,73.5678 136.5,72.5 Z"/></g>
<g><path style="opacity:1" fill="#e4af18" d="M 258.5,80.5 C 288.841,78.2676 316.174,86.1009 340.5,104C 370.231,127.937 390.064,158.437 400,195.5C 415.99,257.235 407.657,315.235 375,369.5C 353.885,402.48 324.052,422.647 285.5,430C 246.708,432.345 214.208,419.178 188,390.5C 168.957,368.079 155.457,342.745 147.5,314.5C 140.256,288.715 137.756,262.381 140,235.5C 143.163,194.325 157.496,157.658 183,125.5C 203.149,101.804 228.316,86.8042 258.5,80.5 Z"/></g>
<g><path style="opacity:0.986" fill="#e3ae18" d="M 121.5,87.5 C 133.833,87.5 146.167,87.5 158.5,87.5C 150.328,97.3224 142.995,107.656 136.5,118.5C 124.88,116.521 112.88,115.854 100.5,116.5C 106.778,106.265 113.778,96.5981 121.5,87.5 Z"/></g>
<g><path style="opacity:1" fill="#fed848" d="M 273.5,115.5 C 279.701,114.285 284.868,115.952 289,120.5C 290.441,129.058 290.941,137.724 290.5,146.5C 299.783,144.415 309.117,144.081 318.5,145.5C 324.58,151.738 325.08,158.405 320,165.5C 316.951,167.964 313.451,169.464 309.5,170C 294.827,171.667 280.161,173.334 265.5,175C 249.524,179.974 239.358,190.474 235,206.5C 232.786,223.156 238.952,235.656 253.5,244C 257.413,245.052 261.413,245.552 265.5,245.5C 271.924,245.285 278.257,244.452 284.5,243C 306.735,240.04 324.902,247.207 339,264.5C 354.709,299.636 347.876,329.469 318.5,354C 314.007,356.079 309.674,358.412 305.5,361C 301.496,361.881 297.496,362.714 293.5,363.5C 292.668,371.813 292.168,380.147 292,388.5C 288.926,395.952 283.426,399.119 275.5,398C 273.342,396.543 271.509,394.71 270,392.5C 268.562,384.277 268.062,375.943 268.5,367.5C 259.501,368.335 250.501,368.835 241.5,369C 233.984,361.55 233.651,353.883 240.5,346C 242.275,344.561 244.275,343.561 246.5,343C 263.267,341.821 279.934,339.821 296.5,337C 320.007,327.151 328.173,309.985 321,285.5C 316.501,276.992 309.668,271.492 300.5,269C 283.528,270.024 266.528,270.358 249.5,270C 236.123,266.285 225.956,258.451 219,246.5C 216.667,241.167 214.333,235.833 212,230.5C 207.388,199.368 217.888,174.868 243.5,157C 250.608,152.807 258.275,150.64 266.5,150.5C 266.176,140.783 266.676,131.116 268,121.5C 270.04,119.63 271.873,117.63 273.5,115.5 Z"/></g>
<g><path style="opacity:1" fill="#c69414" d="M 100.5,116.5 C 112.88,115.854 124.88,116.521 136.5,118.5C 133.912,122.674 131.579,127.007 129.5,131.5C 117.167,131.5 104.833,131.5 92.5,131.5C 94.9121,126.341 97.5788,121.341 100.5,116.5 Z"/></g>
<g><path style="opacity:0.992" fill="#e3ae18" d="M 92.5,131.5 C 104.833,131.5 117.167,131.5 129.5,131.5C 124.677,141.647 120.343,151.98 116.5,162.5C 104.88,160.521 92.8799,159.854 80.5,160.5C 83.6741,150.486 87.6741,140.819 92.5,131.5 Z"/></g>
<g><path style="opacity:1" fill="#c69414" d="M 80.5,160.5 C 92.8799,159.854 104.88,160.521 116.5,162.5C 116.252,166.506 115.252,170.339 113.5,174C 113.164,175.03 112.497,175.53 111.5,175.5C 99.4521,176.145 87.7854,175.478 76.5,173.5C 77.0569,168.835 78.3902,164.502 80.5,160.5 Z"/></g>
<g><path style="opacity:0.989" fill="#e3ae18" d="M 76.5,173.5 C 87.7854,175.478 99.4521,176.145 111.5,175.5C 109.273,187.373 106.94,199.04 104.5,210.5C 104.5,208.5 104.5,206.5 104.5,204.5C 92.5,204.5 80.5,204.5 68.5,204.5C 70.4082,193.864 73.0749,183.53 76.5,173.5 Z"/></g>
<g><path style="opacity:0.998" fill="#c49213" d="M 68.5,204.5 C 80.5,204.5 92.5,204.5 104.5,204.5C 104.5,206.5 104.5,208.5 104.5,210.5C 104.5,210.833 104.5,211.167 104.5,211.5C 103.717,213.343 103.05,215.343 102.5,217.5C 90.8523,218.499 79.1857,218.832 67.5,218.5C 67.7373,217.209 67.404,216.209 66.5,215.5C 67.4853,211.924 68.152,208.258 68.5,204.5 Z"/></g>
<g><path style="opacity:1" fill="#c49214" d="M 64.5,248.5 C 76.5,248.5 88.5,248.5 100.5,248.5C 100.5,253.167 100.5,257.833 100.5,262.5C 88.5,262.5 76.5,262.5 64.5,262.5C 64.5,257.833 64.5,253.167 64.5,248.5 Z"/></g>
<g><path style="opacity:0.986" fill="#e3ae18" d="M 104.5,211.5 C 103.98,216.534 103.147,221.534 102,226.5C 101.333,243.833 101.333,261.167 102,278.5C 103.998,291.822 105.998,305.155 108,318.5C 109.043,324.34 110.543,330.006 112.5,335.5C 100.087,335.187 87.7533,335.521 75.5,336.5C 72.8678,327.304 70.8678,317.971 69.5,308.5C 80.7854,306.522 92.4521,305.855 104.5,306.5C 104.167,301.833 103.833,297.167 103.5,292.5C 91.5,292.5 79.5,292.5 67.5,292.5C 67.7373,293.791 67.404,294.791 66.5,295.5C 65.4719,284.524 64.8052,273.524 64.5,262.5C 76.5,262.5 88.5,262.5 100.5,262.5C 100.5,257.833 100.5,253.167 100.5,248.5C 88.5,248.5 76.5,248.5 64.5,248.5C 64.8052,237.476 65.4719,226.476 66.5,215.5C 67.404,216.209 67.7373,217.209 67.5,218.5C 79.1857,218.832 90.8523,218.499 102.5,217.5C 103.05,215.343 103.717,213.343 104.5,211.5 Z"/></g>
<g><path style="opacity:0.998" fill="#c49214" d="M 69.5,308.5 C 68.4024,304.281 67.4024,299.948 66.5,295.5C 67.404,294.791 67.7373,293.791 67.5,292.5C 79.5,292.5 91.5,292.5 103.5,292.5C 103.833,297.167 104.167,301.833 104.5,306.5C 92.4521,305.855 80.7854,306.522 69.5,308.5 Z"/></g>
<g><path style="opacity:1" fill="#c59314" d="M 112.5,335.5 C 113.218,340.323 114.551,344.99 116.5,349.5C 104.518,350.499 92.5185,350.832 80.5,350.5C 78.4575,346.044 76.7909,341.377 75.5,336.5C 87.7533,335.521 100.087,335.187 112.5,335.5 Z"/></g>
<g><path style="opacity:0.992" fill="#e3af19" d="M 112.5,335.5 C 115.799,343.561 118.632,351.894 121,360.5C 124.383,366.599 127.217,372.932 129.5,379.5C 117.167,379.5 104.833,379.5 92.5,379.5C 87.6741,370.181 83.6741,360.514 80.5,350.5C 92.5185,350.832 104.518,350.499 116.5,349.5C 114.551,344.99 113.218,340.323 112.5,335.5 Z"/></g>
<g><path style="opacity:1" fill="#c69414" d="M 92.5,379.5 C 104.833,379.5 117.167,379.5 129.5,379.5C 131.747,383.782 134.081,388.115 136.5,392.5C 124.88,394.479 112.88,395.146 100.5,394.5C 97.5788,389.659 94.9121,384.659 92.5,379.5 Z"/></g>
<g><path style="opacity:0.986" fill="#e3ae18" d="M 136.5,392.5 C 143.575,402.971 150.909,413.305 158.5,423.5C 146.167,423.5 133.833,423.5 121.5,423.5C 113.778,414.402 106.778,404.735 100.5,394.5C 112.88,395.146 124.88,394.479 136.5,392.5 Z"/></g>
<g><path style="opacity:0.999" fill="#c69314" d="M 121.5,423.5 C 133.833,423.5 146.167,423.5 158.5,423.5C 162.473,428.14 166.806,432.473 171.5,436.5C 160.215,438.478 148.548,439.145 136.5,438.5C 135.527,438.013 134.527,437.513 133.5,437C 129.663,432.331 125.663,427.831 121.5,423.5 Z"/></g>
<g><path style="opacity:0.976" fill="#e3ae18" d="M 171.5,436.5 C 180.718,446.065 191.051,454.065 202.5,460.5C 189.833,459.167 177.167,459.167 164.5,460.5C 154.039,454.603 144.705,447.269 136.5,438.5C 148.548,439.145 160.215,438.478 171.5,436.5 Z"/></g>
<g><path style="opacity:1" fill="#c69414" d="M 202.5,460.5 C 207.15,463.829 212.15,466.662 217.5,469C 220.733,470.386 224.066,471.553 227.5,472.5C 216.012,473.495 204.345,473.828 192.5,473.5C 182.557,470.305 173.223,465.972 164.5,460.5C 177.167,459.167 189.833,459.167 202.5,460.5 Z"/></g>
<g><path style="opacity:0.903" fill="#e3af19" d="M 227.5,472.5 C 238.771,476.156 250.104,479.156 261.5,481.5C 243.022,482.311 224.689,481.145 206.5,478C 201.524,477.097 196.858,475.597 192.5,473.5C 204.345,473.828 216.012,473.495 227.5,472.5 Z"/></g>
</svg>
