<?xml version="1.0" encoding="UTF-8"?>
<!DOCTYPE svg PUBLIC "-//W3C//DTD SVG 1.1//EN" "http://www.w3.org/Graphics/SVG/1.1/DTD/svg11.dtd">
<svg xmlns="http://www.w3.org/2000/svg" version="1.1" width="512px" height="512px" style="shape-rendering:geometricPrecision; text-rendering:geometricPrecision; image-rendering:optimizeQuality; fill-rule:evenodd; clip-rule:evenodd" xmlns:xlink="http://www.w3.org/1999/xlink">
<g><path style="opacity:0.99" fill="#f4505d" d="M 342.5,35.5 C 284.5,35.5 226.5,35.5 168.5,35.5C 181.673,30.7615 195.34,27.5948 209.5,26C 248.049,21.621 286.382,22.9543 324.5,30C 330.804,31.2364 336.804,33.0697 342.5,35.5 Z"/></g>
<g><path style="opacity:0.986" fill="#f25163" d="M 383.5,51.5 C 368.833,51.5 354.167,51.5 339.5,51.5C 283.039,35.3724 226.706,35.7057 170.5,52.5C 159.833,51.8333 149.167,51.1667 138.5,50.5C 147.24,43.2366 157.24,38.2366 168.5,35.5C 226.5,35.5 284.5,35.5 342.5,35.5C 351.331,37.6651 359.498,41.3318 367,46.5C 367.074,39.3938 367.74,32.3938 369,25.5C 372.256,23.5715 375.756,23.0715 379.5,24C 381.333,24.5 382.5,25.6667 383,27.5C 383.5,35.4931 383.666,43.4931 383.5,51.5 Z"/></g>
<g><path style="opacity:0.946" fill="#ef536d" d="M 138.5,50.5 C 149.167,51.1667 159.833,51.8333 170.5,52.5C 162.604,55.1145 155.271,58.7812 148.5,63.5C 141.833,63.5 135.167,63.5 128.5,63.5C 130.308,58.0212 133.642,53.6879 138.5,50.5 Z"/></g>
<g><path style="opacity:0.996" fill="#ed5472" d="M 339.5,51.5 C 354.167,51.5 368.833,51.5 383.5,51.5C 383.5,57.8333 383.5,64.1667 383.5,70.5C 364.598,71.1338 345.931,70.4671 327.5,68.5C 328.023,66.2921 329.356,64.7921 331.5,64C 341.5,63.6667 351.5,63.3333 361.5,63C 354.515,58.3423 347.182,54.5089 339.5,51.5 Z"/></g>
<g><path style="opacity:0.987" fill="#eb5679" d="M 327.5,68.5 C 345.931,70.4671 364.598,71.1338 383.5,70.5C 384.155,74.3547 382.821,77.1881 379.5,79C 363.5,79.6667 347.5,79.6667 331.5,79C 329.667,78.5 328.5,77.3333 328,75.5C 327.503,73.1902 327.337,70.8568 327.5,68.5 Z"/></g>
<g><path style="opacity:0.952" fill="#ec5677" d="M 128.5,63.5 C 135.167,63.5 141.833,63.5 148.5,63.5C 145.289,67.6116 143.122,72.2782 142,77.5C 137.948,79.9423 133.781,80.109 129.5,78C 127.271,73.3088 126.937,68.4755 128.5,63.5 Z"/></g>
<g><path style="opacity:0.99" fill="#e25c93" d="M 178.5,118.5 C 129.997,118.832 81.6638,118.499 33.5,117.5C 37.3319,114.608 41.6653,112.774 46.5,112C 88.1667,111.333 129.833,111.333 171.5,112C 174.331,113.666 176.664,115.832 178.5,118.5 Z"/></g>
<g><path style="opacity:0.99" fill="#e25c93" d="M 434.5,118.5 C 385.997,118.832 337.664,118.499 289.5,117.5C 293.332,114.608 297.665,112.774 302.5,112C 344.167,111.333 385.833,111.333 427.5,112C 430.331,113.666 432.664,115.832 434.5,118.5 Z"/></g>
<g><path style="opacity:0.994" fill="#e15c96" d="M 33.5,117.5 C 81.6638,118.499 129.997,118.832 178.5,118.5C 180.5,119.833 182.167,121.5 183.5,123.5C 131.167,123.5 78.8333,123.5 26.5,123.5C 28.2344,120.8 30.5677,118.8 33.5,117.5 Z"/></g>
<g><path style="opacity:0.994" fill="#e15c96" d="M 289.5,117.5 C 337.664,118.499 385.997,118.832 434.5,118.5C 436.5,119.833 438.167,121.5 439.5,123.5C 387.167,123.5 334.833,123.5 282.5,123.5C 284.234,120.8 286.568,118.8 289.5,117.5 Z"/></g>
<g><path style="opacity:0.992" fill="#df5e9c" d="M 26.5,123.5 C 78.8333,123.5 131.167,123.5 183.5,123.5C 188.833,128.167 193.833,133.167 198.5,138.5C 185.677,139.495 172.677,139.829 159.5,139.5C 159.5,135.5 159.5,131.5 159.5,127.5C 124.832,127.333 90.1651,127.5 55.5,128C 46.8509,128.488 40.1842,132.322 35.5,139.5C 29.31,139.823 23.31,139.49 17.5,138.5C 19.2277,132.707 22.2277,127.707 26.5,123.5 Z"/></g>
<g><path style="opacity:0.992" fill="#df5e9c" d="M 282.5,123.5 C 334.833,123.5 387.167,123.5 439.5,123.5C 444.833,128.167 449.833,133.167 454.5,138.5C 441.677,139.495 428.677,139.829 415.5,139.5C 415.5,135.5 415.5,131.5 415.5,127.5C 380.832,127.333 346.165,127.5 311.5,128C 302.851,128.488 296.184,132.322 291.5,139.5C 285.31,139.823 279.31,139.49 273.5,138.5C 275.228,132.707 278.228,127.707 282.5,123.5 Z"/></g>
<g><path style="opacity:1" fill="#da61a9" d="M 17.5,138.5 C 23.31,139.49 29.31,139.823 35.5,139.5C 32.7769,145.494 31.4436,151.827 31.5,158.5C 26.1667,158.5 20.8333,158.5 15.5,158.5C 15.334,153.156 15.5006,147.823 16,142.5C 16.21,140.942 16.71,139.609 17.5,138.5 Z"/></g>
<g><path style="opacity:0.979" fill="#da61aa" d="M 198.5,138.5 C 205.167,144.5 211.5,150.833 217.5,157.5C 210.167,158.167 202.833,158.833 195.5,159.5C 188.869,153.369 182.369,147.036 176,140.5C 175.11,148.824 176.277,156.824 179.5,164.5C 173.5,164.5 167.5,164.5 161.5,164.5C 160.71,163.391 160.21,162.058 160,160.5C 159.5,153.508 159.334,146.508 159.5,139.5C 172.677,139.829 185.677,139.495 198.5,138.5 Z"/></g>
<g><path style="opacity:1" fill="#da61a9" d="M 273.5,138.5 C 279.31,139.49 285.31,139.823 291.5,139.5C 288.777,145.494 287.444,151.827 287.5,158.5C 282.167,158.5 276.833,158.5 271.5,158.5C 271.334,153.156 271.501,147.823 272,142.5C 272.21,140.942 272.71,139.609 273.5,138.5 Z"/></g>
<g><path style="opacity:0.979" fill="#da61aa" d="M 454.5,138.5 C 461.167,144.5 467.5,150.833 473.5,157.5C 466.167,158.167 458.833,158.833 451.5,159.5C 444.869,153.369 438.369,147.036 432,140.5C 431.11,148.824 432.277,156.824 435.5,164.5C 429.5,164.5 423.5,164.5 417.5,164.5C 416.71,163.391 416.21,162.058 416,160.5C 415.5,153.508 415.334,146.508 415.5,139.5C 428.677,139.829 441.677,139.495 454.5,138.5 Z"/></g>
<g><path style="opacity:1" fill="#d664b6" d="M 15.5,158.5 C 20.8333,158.5 26.1667,158.5 31.5,158.5C 31.5,165.167 31.5,171.833 31.5,178.5C 26.1667,178.5 20.8333,178.5 15.5,178.5C 15.5,171.833 15.5,165.167 15.5,158.5 Z"/></g>
<g><path style="opacity:0.979" fill="#d664b7" d="M 217.5,157.5 C 224.833,164.167 231.833,171.167 238.5,178.5C 215.661,178.169 192.994,178.503 170.5,179.5C 166.228,175.293 163.228,170.293 161.5,164.5C 167.5,164.5 173.5,164.5 179.5,164.5C 187.8,173.656 198.133,177.156 210.5,175C 205.297,169.965 200.297,164.798 195.5,159.5C 202.833,158.833 210.167,158.167 217.5,157.5 Z"/></g>
<g><path style="opacity:1" fill="#d664b6" d="M 271.5,158.5 C 276.833,158.5 282.167,158.5 287.5,158.5C 287.5,165.167 287.5,171.833 287.5,178.5C 282.167,178.5 276.833,178.5 271.5,178.5C 271.5,171.833 271.5,165.167 271.5,158.5 Z"/></g>
<g><path style="opacity:0.979" fill="#d664b7" d="M 473.5,157.5 C 480.833,164.167 487.833,171.167 494.5,178.5C 471.661,178.169 448.994,178.503 426.5,179.5C 422.228,175.293 419.228,170.293 417.5,164.5C 423.5,164.5 429.5,164.5 435.5,164.5C 443.8,173.656 454.133,177.156 466.5,175C 461.297,169.965 456.297,164.798 451.5,159.5C 458.833,158.833 466.167,158.167 473.5,157.5 Z"/></g>
<g><path style="opacity:0.991" fill="#d366be" d="M 67.5,175.5 C 80.8375,175.333 94.1708,175.5 107.5,176C 109.333,176.5 110.5,177.667 111,179.5C 111.667,182.167 111.667,184.833 111,187.5C 110.5,189.333 109.333,190.5 107.5,191C 94.1667,191.667 80.8333,191.667 67.5,191C 64.484,189.471 63.1506,186.971 63.5,183.5C 63.2824,179.934 64.6157,177.268 67.5,175.5 Z"/></g>
<g><path style="opacity:0.991" fill="#d366be" d="M 238.5,178.5 C 239.414,181.728 239.747,185.061 239.5,188.5C 221.659,188.17 203.992,188.503 186.5,189.5C 180.194,187.682 174.86,184.349 170.5,179.5C 192.994,178.503 215.661,178.169 238.5,178.5 Z"/></g>
<g><path style="opacity:0.991" fill="#d366be" d="M 494.5,178.5 C 495.414,181.728 495.747,185.061 495.5,188.5C 477.659,188.17 459.992,188.503 442.5,189.5C 436.194,187.682 430.86,184.349 426.5,179.5C 448.994,178.503 471.661,178.169 494.5,178.5 Z"/></g>
<g><path style="opacity:1" fill="#d267c2" d="M 15.5,178.5 C 20.8333,178.5 26.1667,178.5 31.5,178.5C 31.5,184.833 31.5,191.167 31.5,197.5C 26.1667,197.5 20.8333,197.5 15.5,197.5C 15.5,191.167 15.5,184.833 15.5,178.5 Z"/></g>
<g><path style="opacity:0.984" fill="#d167c5" d="M 239.5,188.5 C 239.5,194.833 239.5,201.167 239.5,207.5C 234.167,207.5 228.833,207.5 223.5,207.5C 223.5,202.167 223.5,196.833 223.5,191.5C 212.495,191.667 201.495,191.5 190.5,191C 188.942,190.79 187.609,190.29 186.5,189.5C 203.992,188.503 221.659,188.17 239.5,188.5 Z"/></g>
<g><path style="opacity:1" fill="#d267c2" d="M 271.5,178.5 C 276.833,178.5 282.167,178.5 287.5,178.5C 287.5,184.833 287.5,191.167 287.5,197.5C 282.167,197.5 276.833,197.5 271.5,197.5C 271.5,191.167 271.5,184.833 271.5,178.5 Z"/></g>
<g><path style="opacity:0.984" fill="#d167c5" d="M 495.5,188.5 C 495.5,194.833 495.5,201.167 495.5,207.5C 490.167,207.5 484.833,207.5 479.5,207.5C 479.5,202.167 479.5,196.833 479.5,191.5C 468.495,191.667 457.495,191.5 446.5,191C 444.942,190.79 443.609,190.29 442.5,189.5C 459.992,188.503 477.659,188.17 495.5,188.5 Z"/></g>
<g><path style="opacity:1" fill="#ce6acf" d="M 15.5,197.5 C 20.8333,197.5 26.1667,197.5 31.5,197.5C 31.5,204.5 31.5,211.5 31.5,218.5C 26.1667,218.5 20.8333,218.5 15.5,218.5C 15.5,211.5 15.5,204.5 15.5,197.5 Z"/></g>
<g><path style="opacity:1" fill="#ce6acf" d="M 271.5,197.5 C 276.833,197.5 282.167,197.5 287.5,197.5C 287.5,204.5 287.5,211.5 287.5,218.5C 282.167,218.5 276.833,218.5 271.5,218.5C 271.5,211.5 271.5,204.5 271.5,197.5 Z"/></g>
<g><path style="opacity:1" fill="#cb6bd5" d="M 223.5,207.5 C 228.833,207.5 234.167,207.5 239.5,207.5C 239.5,214.167 239.5,220.833 239.5,227.5C 234.167,227.5 228.833,227.5 223.5,227.5C 223.5,220.833 223.5,214.167 223.5,207.5 Z"/></g>
<g><path style="opacity:1" fill="#cb6bd5" d="M 479.5,207.5 C 484.833,207.5 490.167,207.5 495.5,207.5C 495.5,214.167 495.5,220.833 495.5,227.5C 490.167,227.5 484.833,227.5 479.5,227.5C 479.5,220.833 479.5,214.167 479.5,207.5 Z"/></g>
<g><path style="opacity:0.979" fill="#c96ddc" d="M 67.5,223.5 C 75.5069,223.334 83.5069,223.5 91.5,224C 93.3333,224.5 94.5,225.667 95,227.5C 95.6667,230.167 95.6667,232.833 95,235.5C 94.5,237.333 93.3333,238.5 91.5,239C 83.5,239.667 75.5,239.667 67.5,239C 64.484,237.471 63.1506,234.971 63.5,231.5C 63.2824,227.934 64.6157,225.268 67.5,223.5 Z"/></g>
<g><path style="opacity:0.992" fill="#c96ddc" d="M 115.5,223.5 C 139.502,223.333 163.502,223.5 187.5,224C 189.333,224.5 190.5,225.667 191,227.5C 191.667,230.167 191.667,232.833 191,235.5C 190.5,237.333 189.333,238.5 187.5,239C 163.5,239.667 139.5,239.667 115.5,239C 112.484,237.471 111.151,234.971 111.5,231.5C 111.282,227.934 112.616,225.268 115.5,223.5 Z"/></g>
<g><path style="opacity:1" fill="#c96ddb" d="M 15.5,218.5 C 20.8333,218.5 26.1667,218.5 31.5,218.5C 31.5,224.833 31.5,231.167 31.5,237.5C 26.1667,237.5 20.8333,237.5 15.5,237.5C 15.5,231.167 15.5,224.833 15.5,218.5 Z"/></g>
<g><path style="opacity:1" fill="#c96ddb" d="M 271.5,218.5 C 276.833,218.5 282.167,218.5 287.5,218.5C 287.5,224.833 287.5,231.167 287.5,237.5C 282.167,237.5 276.833,237.5 271.5,237.5C 271.5,231.167 271.5,224.833 271.5,218.5 Z"/></g>
<g><path style="opacity:1" fill="#c66fe4" d="M 223.5,227.5 C 228.833,227.5 234.167,227.5 239.5,227.5C 239.5,238.167 239.5,248.833 239.5,259.5C 234.167,259.5 228.833,259.5 223.5,259.5C 223.5,248.833 223.5,238.167 223.5,227.5 Z"/></g>
<g><path style="opacity:1" fill="#c66fe4" d="M 479.5,227.5 C 484.833,227.5 490.167,227.5 495.5,227.5C 495.5,238.167 495.5,248.833 495.5,259.5C 490.167,259.5 484.833,259.5 479.5,259.5C 479.5,248.833 479.5,238.167 479.5,227.5 Z"/></g>
<g><path style="opacity:1" fill="#c271ea" d="M 15.5,237.5 C 20.8333,237.5 26.1667,237.5 31.5,237.5C 31.5,248.167 31.5,258.833 31.5,269.5C 26.1667,269.5 20.8333,269.5 15.5,269.5C 15.5,258.833 15.5,248.167 15.5,237.5 Z"/></g>
<g><path style="opacity:1" fill="#c271ea" d="M 271.5,237.5 C 276.833,237.5 282.167,237.5 287.5,237.5C 287.5,248.167 287.5,258.833 287.5,269.5C 282.167,269.5 276.833,269.5 271.5,269.5C 271.5,258.833 271.5,248.167 271.5,237.5 Z"/></g>
<g><path style="opacity:0.983" fill="#c371eb" d="M 347.5,247.5 C 358.86,246.71 362.193,251.543 357.5,262C 346.964,265.997 342.464,262.497 344,251.5C 344.69,249.65 345.856,248.316 347.5,247.5 Z"/></g>
<g><path style="opacity:0.983" fill="#c371eb" d="M 379.5,247.5 C 390.86,246.71 394.193,251.543 389.5,262C 378.964,265.997 374.464,262.497 376,251.5C 376.69,249.65 377.856,248.316 379.5,247.5 Z"/></g>
<g><path style="opacity:0.983" fill="#c371eb" d="M 411.5,247.5 C 422.86,246.71 426.193,251.543 421.5,262C 410.964,265.997 406.464,262.497 408,251.5C 408.69,249.65 409.856,248.316 411.5,247.5 Z"/></g>
<g><path style="opacity:1" fill="#b079ec" d="M 15.5,269.5 C 20.8333,269.5 26.1667,269.5 31.5,269.5C 31.5,273.833 31.5,278.167 31.5,282.5C 26.1667,282.5 20.8333,282.5 15.5,282.5C 15.5,278.167 15.5,273.833 15.5,269.5 Z"/></g>
<g><path style="opacity:1" fill="#b378ec" d="M 223.5,259.5 C 228.833,259.5 234.167,259.5 239.5,259.5C 239.5,267.167 239.5,274.833 239.5,282.5C 234.167,282.5 228.833,282.5 223.5,282.5C 223.5,274.833 223.5,267.167 223.5,259.5 Z"/></g>
<g><path style="opacity:1" fill="#b079ec" d="M 271.5,269.5 C 276.833,269.5 282.167,269.5 287.5,269.5C 287.5,273.833 287.5,278.167 287.5,282.5C 282.167,282.5 276.833,282.5 271.5,282.5C 271.5,278.167 271.5,273.833 271.5,269.5 Z"/></g>
<g><path style="opacity:1" fill="#b378ec" d="M 479.5,259.5 C 484.833,259.5 490.167,259.5 495.5,259.5C 495.5,267.167 495.5,274.833 495.5,282.5C 490.167,282.5 484.833,282.5 479.5,282.5C 479.5,274.833 479.5,267.167 479.5,259.5 Z"/></g>
<g><path style="opacity:0.995" fill="#ab7bed" d="M 67.5,271.5 C 91.5023,271.333 115.502,271.5 139.5,272C 141.333,272.5 142.5,273.667 143,275.5C 143.667,278.167 143.667,280.833 143,283.5C 142.5,285.333 141.333,286.5 139.5,287C 115.5,287.667 91.5,287.667 67.5,287C 64.484,285.471 63.1506,282.971 63.5,279.5C 63.2824,275.934 64.6157,273.268 67.5,271.5 Z"/></g>
<g><path style="opacity:0.988" fill="#ab7bed" d="M 163.5,271.5 C 171.507,271.334 179.507,271.5 187.5,272C 189.333,272.5 190.5,273.667 191,275.5C 191.667,278.167 191.667,280.833 191,283.5C 190.5,285.333 189.333,286.5 187.5,287C 179.5,287.667 171.5,287.667 163.5,287C 160.484,285.471 159.151,282.971 159.5,279.5C 159.282,275.934 160.616,273.268 163.5,271.5 Z"/></g>
<g><path style="opacity:1" fill="#a080ec" d="M 15.5,282.5 C 20.8333,282.5 26.1667,282.5 31.5,282.5C 31.5,286.833 31.5,291.167 31.5,295.5C 26.1667,295.5 20.8333,295.5 15.5,295.5C 15.5,291.167 15.5,286.833 15.5,282.5 Z"/></g>
<g><path style="opacity:1" fill="#a080ec" d="M 223.5,282.5 C 228.833,282.5 234.167,282.5 239.5,282.5C 239.5,286.833 239.5,291.167 239.5,295.5C 234.167,295.5 228.833,295.5 223.5,295.5C 223.5,291.167 223.5,286.833 223.5,282.5 Z"/></g>
<g><path style="opacity:1" fill="#a080ec" d="M 271.5,282.5 C 276.833,282.5 282.167,282.5 287.5,282.5C 287.5,286.833 287.5,291.167 287.5,295.5C 282.167,295.5 276.833,295.5 271.5,295.5C 271.5,291.167 271.5,286.833 271.5,282.5 Z"/></g>
<g><path style="opacity:1" fill="#a080ec" d="M 479.5,282.5 C 484.833,282.5 490.167,282.5 495.5,282.5C 495.5,286.833 495.5,291.167 495.5,295.5C 490.167,295.5 484.833,295.5 479.5,295.5C 479.5,291.167 479.5,286.833 479.5,282.5 Z"/></g>
<g><path style="opacity:1" fill="#9486eb" d="M 15.5,295.5 C 20.8333,295.5 26.1667,295.5 31.5,295.5C 31.5,299.167 31.5,302.833 31.5,306.5C 26.1667,306.5 20.8333,306.5 15.5,306.5C 15.5,302.833 15.5,299.167 15.5,295.5 Z"/></g>
<g><path style="opacity:1" fill="#9486eb" d="M 223.5,295.5 C 228.833,295.5 234.167,295.5 239.5,295.5C 239.5,299.167 239.5,302.833 239.5,306.5C 234.167,306.5 228.833,306.5 223.5,306.5C 223.5,302.833 223.5,299.167 223.5,295.5 Z"/></g>
<g><path style="opacity:1" fill="#9486eb" d="M 271.5,295.5 C 276.833,295.5 282.167,295.5 287.5,295.5C 287.5,299.167 287.5,302.833 287.5,306.5C 282.167,306.5 276.833,306.5 271.5,306.5C 271.5,302.833 271.5,299.167 271.5,295.5 Z"/></g>
<g><path style="opacity:1" fill="#9486eb" d="M 479.5,295.5 C 484.833,295.5 490.167,295.5 495.5,295.5C 495.5,299.167 495.5,302.833 495.5,306.5C 490.167,306.5 484.833,306.5 479.5,306.5C 479.5,302.833 479.5,299.167 479.5,295.5 Z"/></g>
<g><path style="opacity:1" fill="#828eeb" d="M 15.5,306.5 C 20.8333,306.5 26.1667,306.5 31.5,306.5C 31.5,312.5 31.5,318.5 31.5,324.5C 26.1667,324.5 20.8333,324.5 15.5,324.5C 15.5,318.5 15.5,312.5 15.5,306.5 Z"/></g>
<g><path style="opacity:1" fill="#828eeb" d="M 223.5,306.5 C 228.833,306.5 234.167,306.5 239.5,306.5C 239.5,312.5 239.5,318.5 239.5,324.5C 234.167,324.5 228.833,324.5 223.5,324.5C 223.5,318.5 223.5,312.5 223.5,306.5 Z"/></g>
<g><path style="opacity:1" fill="#828eeb" d="M 271.5,306.5 C 276.833,306.5 282.167,306.5 287.5,306.5C 287.5,312.5 287.5,318.5 287.5,324.5C 282.167,324.5 276.833,324.5 271.5,324.5C 271.5,318.5 271.5,312.5 271.5,306.5 Z"/></g>
<g><path style="opacity:1" fill="#828eeb" d="M 479.5,306.5 C 484.833,306.5 490.167,306.5 495.5,306.5C 495.5,312.5 495.5,318.5 495.5,324.5C 490.167,324.5 484.833,324.5 479.5,324.5C 479.5,318.5 479.5,312.5 479.5,306.5 Z"/></g>
<g><path style="opacity:0.992" fill="#7992eb" d="M 67.5,319.5 C 80.8375,319.333 94.1708,319.5 107.5,320C 109.333,320.5 110.5,321.667 111,323.5C 111.667,326.167 111.667,328.833 111,331.5C 110.5,333.333 109.333,334.5 107.5,335C 94.1667,335.667 80.8333,335.667 67.5,335C 64.484,333.471 63.1506,330.971 63.5,327.5C 63.2824,323.934 64.6157,321.268 67.5,319.5 Z"/></g>
<g><path style="opacity:0.994" fill="#7992eb" d="M 131.5,319.5 C 150.17,319.333 168.836,319.5 187.5,320C 189.333,320.5 190.5,321.667 191,323.5C 191.667,326.167 191.667,328.833 191,331.5C 190.5,333.333 189.333,334.5 187.5,335C 168.833,335.667 150.167,335.667 131.5,335C 128.484,333.471 127.151,330.971 127.5,327.5C 127.282,323.934 128.616,321.268 131.5,319.5 Z"/></g>
<g><path style="opacity:1" fill="#7594eb" d="M 15.5,324.5 C 20.8333,324.5 26.1667,324.5 31.5,324.5C 31.5,328.833 31.5,333.167 31.5,337.5C 26.1667,337.5 20.8333,337.5 15.5,337.5C 15.5,333.167 15.5,328.833 15.5,324.5 Z"/></g>
<g><path style="opacity:1" fill="#7594eb" d="M 223.5,324.5 C 228.833,324.5 234.167,324.5 239.5,324.5C 239.5,328.833 239.5,333.167 239.5,337.5C 234.167,337.5 228.833,337.5 223.5,337.5C 223.5,333.167 223.5,328.833 223.5,324.5 Z"/></g>
<g><path style="opacity:1" fill="#7594eb" d="M 271.5,324.5 C 276.833,324.5 282.167,324.5 287.5,324.5C 287.5,328.833 287.5,333.167 287.5,337.5C 282.167,337.5 276.833,337.5 271.5,337.5C 271.5,333.167 271.5,328.833 271.5,324.5 Z"/></g>
<g><path style="opacity:1" fill="#7594eb" d="M 479.5,324.5 C 484.833,324.5 490.167,324.5 495.5,324.5C 495.5,328.833 495.5,333.167 495.5,337.5C 490.167,337.5 484.833,337.5 479.5,337.5C 479.5,333.167 479.5,328.833 479.5,324.5 Z"/></g>
<g><path style="opacity:1" fill="#699aeb" d="M 15.5,337.5 C 20.8333,337.5 26.1667,337.5 31.5,337.5C 31.5,342.167 31.5,346.833 31.5,351.5C 26.1667,351.5 20.8333,351.5 15.5,351.5C 15.5,346.833 15.5,342.167 15.5,337.5 Z"/></g>
<g><path style="opacity:1" fill="#699aeb" d="M 223.5,337.5 C 228.833,337.5 234.167,337.5 239.5,337.5C 239.5,342.167 239.5,346.833 239.5,351.5C 234.167,351.5 228.833,351.5 223.5,351.5C 223.5,346.833 223.5,342.167 223.5,337.5 Z"/></g>
<g><path style="opacity:1" fill="#699aeb" d="M 271.5,337.5 C 276.833,337.5 282.167,337.5 287.5,337.5C 287.5,342.167 287.5,346.833 287.5,351.5C 282.167,351.5 276.833,351.5 271.5,351.5C 271.5,346.833 271.5,342.167 271.5,337.5 Z"/></g>
<g><path style="opacity:1" fill="#699aeb" d="M 479.5,337.5 C 484.833,337.5 490.167,337.5 495.5,337.5C 495.5,342.167 495.5,346.833 495.5,351.5C 490.167,351.5 484.833,351.5 479.5,351.5C 479.5,346.833 479.5,342.167 479.5,337.5 Z"/></g>
<g><path style="opacity:0.971" fill="#5ca0ea" d="M 15.5,351.5 C 20.8333,351.5 26.1667,351.5 31.5,351.5C 31.6686,356.181 32.0019,360.848 32.5,365.5C 27.2649,367.45 21.5982,368.117 15.5,367.5C 15.5,362.167 15.5,356.833 15.5,351.5 Z"/></g>
<g><path style="opacity:0.978" fill="#5c9fea" d="M 223.5,351.5 C 228.833,351.5 234.167,351.5 239.5,351.5C 239.5,356.833 239.5,362.167 239.5,367.5C 233.402,368.117 227.735,367.45 222.5,365.5C 222.998,360.848 223.331,356.181 223.5,351.5 Z"/></g>
<g><path style="opacity:0.971" fill="#5ca0ea" d="M 271.5,351.5 C 276.833,351.5 282.167,351.5 287.5,351.5C 287.669,356.181 288.002,360.848 288.5,365.5C 283.265,367.45 277.598,368.117 271.5,367.5C 271.5,362.167 271.5,356.833 271.5,351.5 Z"/></g>
<g><path style="opacity:0.978" fill="#5c9fea" d="M 479.5,351.5 C 484.833,351.5 490.167,351.5 495.5,351.5C 495.5,356.833 495.5,362.167 495.5,367.5C 489.402,368.117 483.735,367.45 478.5,365.5C 478.998,360.848 479.331,356.181 479.5,351.5 Z"/></g>
<g><path style="opacity:0.994" fill="#49a8ea" d="M 32.5,365.5 C 35.649,373.481 41.3156,378.981 49.5,382C 75.4663,383.139 101.466,383.639 127.5,383.5C 153.534,383.639 179.534,383.139 205.5,382C 213.684,378.981 219.351,373.481 222.5,365.5C 227.735,367.45 233.402,368.117 239.5,367.5C 238.019,374.13 235.185,380.13 231,385.5C 228.894,388.118 226.394,390.118 223.5,391.5C 159.002,390.501 94.3355,390.168 29.5,390.5C 22.3808,384.369 17.7141,376.702 15.5,367.5C 21.5982,368.117 27.2649,367.45 32.5,365.5 Z"/></g>
<g><path style="opacity:0.994" fill="#49a8ea" d="M 288.5,365.5 C 291.649,373.481 297.316,378.981 305.5,382C 331.466,383.139 357.466,383.639 383.5,383.5C 409.534,383.639 435.534,383.139 461.5,382C 469.684,378.981 475.351,373.481 478.5,365.5C 483.735,367.45 489.402,368.117 495.5,367.5C 494.019,374.13 491.185,380.13 487,385.5C 484.894,388.118 482.394,390.118 479.5,391.5C 415.002,390.501 350.335,390.168 285.5,390.5C 278.381,384.369 273.714,376.702 271.5,367.5C 277.598,368.117 283.265,367.45 288.5,365.5 Z"/></g>
<g><path style="opacity:0.992" fill="#41acea" d="M 29.5,390.5 C 94.3355,390.168 159.002,390.501 223.5,391.5C 219.389,395.556 214.389,398.056 208.5,399C 154.5,399.667 100.5,399.667 46.5,399C 39.9447,397.722 34.278,394.889 29.5,390.5 Z"/></g>
<g><path style="opacity:0.992" fill="#41acea" d="M 285.5,390.5 C 350.335,390.168 415.002,390.501 479.5,391.5C 475.389,395.556 470.389,398.056 464.5,399C 410.5,399.667 356.5,399.667 302.5,399C 295.945,397.722 290.278,394.889 285.5,390.5 Z"/></g>
<g><path style="opacity:0.995" fill="#24bae9" d="M 151.5,449.5 C 143.5,449.5 135.5,449.5 127.5,449.5C 127.334,444.821 127.501,440.155 128,435.5C 128.374,434.584 128.874,433.75 129.5,433C 138.07,431.861 146.736,431.361 155.5,431.5C 163.5,431.667 171.5,431.833 179.5,432C 181.333,432.5 182.5,433.667 183,435.5C 183.667,438.167 183.667,440.833 183,443.5C 182.5,445.333 181.333,446.5 179.5,447C 169.5,447.333 159.5,447.667 149.5,448C 150.416,448.278 151.082,448.778 151.5,449.5 Z"/></g>
<g><path style="opacity:0.96" fill="#1ebce9" d="M 367.5,464.5 C 354.833,463.833 342.167,463.167 329.5,462.5C 340.721,459.059 351.388,454.226 361.5,448C 365.509,443.99 368.009,439.157 369,433.5C 381.447,428.939 386.114,433.272 383,446.5C 379.807,454.194 374.64,460.194 367.5,464.5 Z"/></g>
<g><path style="opacity:0.974" fill="#16c0e9" d="M 127.5,449.5 C 135.5,449.5 143.5,449.5 151.5,449.5C 166.082,457.862 181.749,463.362 198.5,466C 242.358,473.426 286.025,472.259 329.5,462.5C 342.167,463.167 354.833,463.833 367.5,464.5C 354.245,472.425 339.912,477.925 324.5,481C 278.5,489.667 232.5,489.667 186.5,481C 171.293,478.045 157.127,472.545 144,464.5C 143.667,470.833 143.333,477.167 143,483.5C 141.471,486.516 138.971,487.849 135.5,487.5C 132.029,487.849 129.529,486.516 128,483.5C 127.5,472.172 127.333,460.838 127.5,449.5 Z"/></g>
</svg>
