<?xml version="1.0" encoding="UTF-8"?>
<!DOCTYPE svg PUBLIC "-//W3C//DTD SVG 1.1//EN" "http://www.w3.org/Graphics/SVG/1.1/DTD/svg11.dtd">
<svg xmlns="http://www.w3.org/2000/svg" version="1.1" width="1452px" height="2048px" style="shape-rendering:geometricPrecision; text-rendering:geometricPrecision; image-rendering:optimizeQuality; fill-rule:evenodd; clip-rule:evenodd" xmlns:xlink="http://www.w3.org/1999/xlink">
<g><path style="opacity:0.994" fill="#000000" d="M 340.5,-0.5 C 414.167,-0.5 487.833,-0.5 561.5,-0.5C 561.5,30.1667 561.5,60.8333 561.5,91.5C 518.833,91.5 476.167,91.5 433.5,91.5C 433.5,122.167 433.5,152.833 433.5,183.5C 476.167,183.5 518.833,183.5 561.5,183.5C 561.5,214.167 561.5,244.833 561.5,275.5C 487.833,275.5 414.167,275.5 340.5,275.5C 340.5,183.5 340.5,91.5 340.5,-0.5 Z"/></g>
<g><path style="opacity:0.995" fill="#000000" d="M 604.5,-0.5 C 678.167,-0.5 751.833,-0.5 825.5,-0.5C 825.5,26.1667 825.5,52.8333 825.5,79.5C 782.833,79.5 740.167,79.5 697.5,79.5C 697.5,84.8333 697.5,90.1667 697.5,95.5C 740.167,95.5 782.833,95.5 825.5,95.5C 825.5,156.833 825.5,218.167 825.5,279.5C 751.833,279.5 678.167,279.5 604.5,279.5C 604.5,251.5 604.5,223.5 604.5,195.5C 647.167,195.5 689.833,195.5 732.5,195.5C 732.5,190.167 732.5,184.833 732.5,179.5C 689.833,179.5 647.167,179.5 604.5,179.5C 604.5,119.5 604.5,59.5 604.5,-0.5 Z"/></g>
<g><path style="opacity:0.995" fill="#000000" d="M 868.5,-0.5 C 942.167,-0.5 1015.83,-0.5 1089.5,-0.5C 1089.5,26.1667 1089.5,52.8333 1089.5,79.5C 1046.83,79.5 1004.17,79.5 961.5,79.5C 961.5,84.8333 961.5,90.1667 961.5,95.5C 1004.17,95.5 1046.83,95.5 1089.5,95.5C 1089.5,156.833 1089.5,218.167 1089.5,279.5C 1015.83,279.5 942.167,279.5 868.5,279.5C 868.5,251.5 868.5,223.5 868.5,195.5C 911.167,195.5 953.833,195.5 996.5,195.5C 996.5,190.167 996.5,184.833 996.5,179.5C 953.833,179.5 911.167,179.5 868.5,179.5C 868.5,119.5 868.5,59.5 868.5,-0.5 Z"/></g>
<g><path style="opacity:0.998" fill="#264de4" d="M -0.5,401.5 C 483.167,401.5 966.833,401.5 1450.5,401.5C 1407.02,895.054 1363.02,1388.55 1318.5,1882C 1318.09,1882.95 1317.43,1883.61 1316.5,1884C 1120.24,1938.04 924.243,1992.54 728.5,2047.5C 725.833,2047.5 723.167,2047.5 720.5,2047.5C 523.967,1992.91 327.467,1937.91 131,1882.5C 87.4834,1392.65 43.65,902.986 -0.5,413.5C -0.5,409.5 -0.5,405.5 -0.5,401.5 Z"/></g>
<g><path style="opacity:1" fill="#2756e9" d="M 1317.5,526.5 C 1317.5,525.5 1317.5,524.5 1317.5,523.5C 1120.17,523.5 922.833,523.5 725.5,523.5C 725.5,583.833 725.5,644.167 725.5,704.5C 725.167,704.5 724.833,704.5 724.5,704.5C 724.5,643.833 724.5,583.167 724.5,522.5C 922.5,522.5 1120.5,522.5 1318.5,522.5C 1318.77,524.099 1318.43,525.432 1317.5,526.5 Z"/></g>
<g><path style="opacity:1" fill="#2965f1" d="M 1317.5,526.5 C 1280.03,947.172 1242.7,1367.84 1205.5,1788.5C 1045.53,1832.45 885.701,1876.78 726,1921.5C 725.5,1858.83 725.333,1796.17 725.5,1733.5C 725.5,1733.17 725.5,1732.83 725.5,1732.5C 849.453,1698.55 973.286,1664.22 1097,1629.5C 1124.12,1322.16 1151.29,1014.82 1178.5,707.5C 1179.4,706.791 1179.74,705.791 1179.5,704.5C 1028.17,704.5 876.833,704.5 725.5,704.5C 725.5,644.167 725.5,583.833 725.5,523.5C 922.833,523.5 1120.17,523.5 1317.5,523.5C 1317.5,524.5 1317.5,525.5 1317.5,526.5 Z"/></g>
<g><path style="opacity:1" fill="#c3cae9" d="M 724.5,704.5 C 724.5,704.833 724.5,705.167 724.5,705.5C 573.167,705.5 421.833,705.5 270.5,705.5C 270.5,706.833 270.5,708.167 270.5,709.5C 269.549,708.081 269.216,706.415 269.5,704.5C 421.167,704.5 572.833,704.5 724.5,704.5 Z"/></g>
<g><path style="opacity:1" fill="#d3dffb" d="M 724.5,705.5 C 724.5,705.167 724.5,704.833 724.5,704.5C 724.833,704.5 725.167,704.5 725.5,704.5C 876.833,704.5 1028.17,704.5 1179.5,704.5C 1179.74,705.791 1179.4,706.791 1178.5,707.5C 1027.5,705.501 876.17,704.835 724.5,705.5 Z"/></g>
<g><path style="opacity:1" fill="#eaeaeb" d="M 724.5,705.5 C 724.5,765.5 724.5,825.5 724.5,885.5C 577.957,886.163 431.624,885.496 285.5,883.5C 280.62,825.49 275.62,767.49 270.5,709.5C 270.5,708.167 270.5,706.833 270.5,705.5C 421.833,705.5 573.167,705.5 724.5,705.5 Z"/></g>
<g><path style="opacity:1" fill="#fefefe" d="M 724.5,705.5 C 876.17,704.835 1027.5,705.501 1178.5,707.5C 1151.29,1014.82 1124.12,1322.16 1097,1629.5C 973.286,1664.22 849.453,1698.55 725.5,1732.5C 724.833,1701.34 724.5,1670 724.5,1638.5C 724.507,1606.62 725.174,1574.95 726.5,1543.5C 793.441,1525.35 860.441,1507.35 927.5,1489.5C 933.926,1411.82 940.593,1334.15 947.5,1256.5C 948.404,1255.79 948.737,1254.79 948.5,1253.5C 873.833,1253.5 799.167,1253.5 724.5,1253.5C 724.5,1193.17 724.5,1132.83 724.5,1072.5C 804.5,1072.5 884.5,1072.5 964.5,1072.5C 964.5,1070.17 964.5,1067.83 964.5,1065.5C 968.961,1008.43 973.961,951.432 979.5,894.5C 980.477,891.713 980.81,888.713 980.5,885.5C 895.167,885.5 809.833,885.5 724.5,885.5C 724.5,825.5 724.5,765.5 724.5,705.5 Z"/></g>
<g><path style="opacity:1" fill="#d0d5ea" d="M 285.5,883.5 C 431.624,885.496 577.957,886.163 724.5,885.5C 724.5,885.833 724.5,886.167 724.5,886.5C 578.167,886.5 431.833,886.5 285.5,886.5C 285.5,885.5 285.5,884.5 285.5,883.5 Z"/></g>
<g><path style="opacity:1" fill="#e1e9fc" d="M 724.5,886.5 C 724.5,886.167 724.5,885.833 724.5,885.5C 809.833,885.5 895.167,885.5 980.5,885.5C 980.81,888.713 980.477,891.713 979.5,894.5C 979.5,891.833 979.5,889.167 979.5,886.5C 894.833,886.5 810.167,886.5 725.5,886.5C 725.167,886.5 724.833,886.5 724.5,886.5 Z"/></g>
<g><path style="opacity:1" fill="#2965f1" d="M 725.5,886.5 C 810.167,886.5 894.833,886.5 979.5,886.5C 979.5,889.167 979.5,891.833 979.5,894.5C 973.961,951.432 968.961,1008.43 964.5,1065.5C 963.539,1067.26 963.205,1069.26 963.5,1071.5C 884.167,1071.5 804.833,1071.5 725.5,1071.5C 725.5,1009.83 725.5,948.167 725.5,886.5 Z"/></g>
<g><path style="opacity:1" fill="#4571ed" d="M 964.5,1065.5 C 964.5,1067.83 964.5,1070.17 964.5,1072.5C 884.5,1072.5 804.5,1072.5 724.5,1072.5C 583.833,1072.5 443.167,1072.5 302.5,1072.5C 443.332,1071.5 584.332,1071.17 725.5,1071.5C 804.833,1071.5 884.167,1071.5 963.5,1071.5C 963.205,1069.26 963.539,1067.26 964.5,1065.5 Z"/></g>
<g><path style="opacity:1" fill="#eaeaeb" d="M 302.5,1072.5 C 443.167,1072.5 583.833,1072.5 724.5,1072.5C 724.5,1132.83 724.5,1193.17 724.5,1253.5C 589.167,1253.5 453.833,1253.5 318.5,1253.5C 313.119,1193.17 307.786,1132.84 302.5,1072.5 Z"/></g>
<g><path style="opacity:1" fill="#96aef1" d="M 318.5,1253.5 C 453.833,1253.5 589.167,1253.5 724.5,1253.5C 799.167,1253.5 873.833,1253.5 948.5,1253.5C 948.737,1254.79 948.404,1255.79 947.5,1256.5C 873.841,1254.5 799.841,1253.84 725.5,1254.5C 589.666,1254.83 453.999,1254.5 318.5,1253.5 Z"/></g>
<g><path style="opacity:1" fill="#2965f1" d="M 725.5,1254.5 C 799.841,1253.84 873.841,1254.5 947.5,1256.5C 940.593,1334.15 933.926,1411.82 927.5,1489.5C 860.441,1507.35 793.441,1525.35 726.5,1543.5C 726.167,1543.5 725.833,1543.5 725.5,1543.5C 725.5,1447.17 725.5,1350.83 725.5,1254.5 Z"/></g>
<g><path style="opacity:1" fill="#a9b6e8" d="M 509.5,1348.5 C 508.596,1347.79 508.263,1346.79 508.5,1345.5C 448.167,1345.5 387.833,1345.5 327.5,1345.5C 327.5,1346.83 327.5,1348.17 327.5,1349.5C 326.549,1348.08 326.216,1346.41 326.5,1344.5C 387.5,1344.5 448.5,1344.5 509.5,1344.5C 509.5,1345.83 509.5,1347.17 509.5,1348.5 Z"/></g>
<g><path style="opacity:1" fill="#eaeaeb" d="M 509.5,1348.5 C 513.46,1395.74 517.793,1442.91 522.5,1490C 587.833,1507.67 653.167,1525.33 718.5,1543C 720.81,1543.5 723.143,1543.66 725.5,1543.5C 725.833,1543.5 726.167,1543.5 726.5,1543.5C 725.174,1574.95 724.507,1606.62 724.5,1638.5C 724.5,1670 724.833,1701.34 725.5,1732.5C 725.5,1732.83 725.5,1733.17 725.5,1733.5C 601.042,1699.47 476.708,1664.97 352.5,1630C 343.6,1536.6 335.267,1443.1 327.5,1349.5C 327.5,1348.17 327.5,1346.83 327.5,1345.5C 387.833,1345.5 448.167,1345.5 508.5,1345.5C 508.263,1346.79 508.596,1347.79 509.5,1348.5 Z"/></g>
</svg>
