<?xml version="1.0" encoding="UTF-8"?>
<!DOCTYPE svg PUBLIC "-//W3C//DTD SVG 1.1//EN" "http://www.w3.org/Graphics/SVG/1.1/DTD/svg11.dtd">
<svg xmlns="http://www.w3.org/2000/svg" version="1.1" width="526px" height="526px" style="shape-rendering:geometricPrecision; text-rendering:geometricPrecision; image-rendering:optimizeQuality; fill-rule:evenodd; clip-rule:evenodd" xmlns:xlink="http://www.w3.org/1999/xlink">
<g><path style="opacity:0.498" fill="#aabb83" d="M 428.5,40.5 C 424.817,40.0875 421.483,40.9208 418.5,43C 415.225,47.0726 412.225,51.2393 409.5,55.5C 411.379,51.4129 413.379,47.2462 415.5,43C 415.095,42.0546 414.428,41.3879 413.5,41C 401.543,39.4682 389.543,39.1348 377.5,40C 374.676,40.3302 372.009,41.1635 369.5,42.5C 366.88,40.931 364.547,41.2643 362.5,43.5C 364.264,45.1296 365.264,47.1296 365.5,49.5C 364.833,49.1667 364.167,48.8333 363.5,48.5C 362.327,46.4959 360.66,44.9959 358.5,44C 359.381,43.2917 360.047,42.4584 360.5,41.5C 370.578,38.6571 380.912,37.3238 391.5,37.5C 404.012,38.154 416.346,39.154 428.5,40.5 Z"/></g>
<g><path style="opacity:1" fill="#a7ca88" d="M 409.5,55.5 C 408.901,58.9631 407.901,62.2964 406.5,65.5C 404.01,68.6257 402.677,72.2924 402.5,76.5C 401.067,81.4848 399.067,86.1515 396.5,90.5C 395.883,90.6107 395.383,90.944 395,91.5C 394.676,96.1575 393.01,100.158 390,103.5C 389.667,103.167 389.333,102.833 389,102.5C 388.289,104.367 388.789,105.867 390.5,107C 389.711,109.365 388.544,111.532 387,113.5C 386.667,115.833 386.333,118.167 386,120.5C 383.76,122.028 382.093,124.028 381,126.5C 381.051,122.246 380.884,118.08 380.5,114C 382.493,113.353 384.159,111.687 385.5,109C 383.631,104.796 382.131,105.296 381,110.5C 379.918,108.382 378.751,106.382 377.5,104.5C 377.037,101.518 376.704,98.5176 376.5,95.5C 376.2,90.9014 376.533,86.4014 377.5,82C 376.141,76.9128 374.975,71.7462 374,66.5C 373.617,65.944 373.117,65.6107 372.5,65.5C 370.208,60.2406 367.875,54.9072 365.5,49.5C 365.264,47.1296 364.264,45.1296 362.5,43.5C 364.547,41.2643 366.88,40.931 369.5,42.5C 372.009,41.1635 374.676,40.3302 377.5,40C 389.543,39.1348 401.543,39.4682 413.5,41C 414.428,41.3879 415.095,42.0546 415.5,43C 413.379,47.2462 411.379,51.4129 409.5,55.5 Z"/></g>
<g><path style="opacity:1" fill="#f9d064" d="M 185.5,48.5 C 187.954,49.2271 190.287,50.2271 192.5,51.5C 192.414,52.4959 192.748,53.3292 193.5,54C 197.187,56.3643 200.854,58.6976 204.5,61C 206.05,64.4462 208.717,66.4462 212.5,67C 213.893,68.1711 214.727,69.6711 215,71.5C 219.341,72.9977 221.508,75.9977 221.5,80.5C 224.997,81.0597 227.497,83.0597 229,86.5C 230.586,87.376 232.086,88.376 233.5,89.5C 236.002,93.8589 237.836,98.5256 239,103.5C 239.667,102.167 240.333,102.167 241,103.5C 243.299,108.01 245.299,112.677 247,117.5C 247.671,118.252 248.504,118.586 249.5,118.5C 249.5,119.167 249.5,119.833 249.5,120.5C 249.196,121.15 248.863,121.817 248.5,122.5C 249.553,129.131 250.886,135.631 252.5,142C 255.611,171.313 249.611,197.48 234.5,220.5C 233.675,221.386 232.675,221.719 231.5,221.5C 231.309,224.983 230.643,228.316 229.5,231.5C 228.85,231.196 228.183,230.863 227.5,230.5C 200.896,261.91 166.23,276.41 123.5,274C 119.227,272.97 114.894,272.303 110.5,272C 103.136,268.827 95.4697,266.493 87.5,265C 83.7774,260.802 79.1108,258.135 73.5,257C 70.0027,254.847 67.0027,252.18 64.5,249C 63.5,248.667 62.5,248.333 61.5,248C 56.1949,241.225 50.1949,235.058 43.5,229.5C 35.7848,219.406 29.6181,208.406 25,196.5C 24.7216,197.416 24.2216,198.082 23.5,198.5C 23.5,198.167 23.5,197.833 23.5,197.5C 23.5394,196.417 23.8728,195.417 24.5,194.5C 13.3384,159.506 17.1717,126.506 36,95.5C 36.3333,95.8333 36.6667,96.1667 37,96.5C 36.9366,92.5579 38.6032,89.5579 42,87.5C 43.2022,85.3225 43.7022,82.9892 43.5,80.5C 50.9019,71.4331 59.5686,63.7664 69.5,57.5C 71.6258,57.8499 73.9592,57.8499 76.5,57.5C 76.281,56.325 76.6143,55.325 77.5,54.5C 83.3236,51.1654 89.4903,48.4987 96,46.5C 97.6624,46.3875 98.8291,47.0542 99.5,48.5C 99.754,50.7537 99.754,53.087 99.5,55.5C 97.8208,54.218 95.9874,53.218 94,52.5C 91.4066,53.7699 88.9066,55.1032 86.5,56.5C 88.2199,57.934 90.2199,58.7674 92.5,59C 96.4862,59.4988 100.486,59.6655 104.5,59.5C 104.666,55.1539 104.499,50.8206 104,46.5C 103.25,45.8742 102.416,45.3742 101.5,45C 124.073,38.1269 146.739,37.7936 169.5,44C 172.418,44.8482 175.084,46.1815 177.5,48C 180.146,48.4974 182.813,48.6641 185.5,48.5 Z"/></g>
<g><path style="opacity:1" fill="#f0cd6a" d="M 185.5,48.5 C 182.813,48.6641 180.146,48.4974 177.5,48C 175.084,46.1815 172.418,44.8482 169.5,44C 146.739,37.7936 124.073,38.1269 101.5,45C 102.416,45.3742 103.25,45.8742 104,46.5C 104.499,50.8206 104.666,55.1539 104.5,59.5C 100.486,59.6655 96.4862,59.4988 92.5,59C 90.2199,58.7674 88.2199,57.934 86.5,56.5C 88.9066,55.1032 91.4066,53.7699 94,52.5C 95.9874,53.218 97.8208,54.218 99.5,55.5C 99.754,53.087 99.754,50.7537 99.5,48.5C 98.8291,47.0542 97.6624,46.3875 96,46.5C 89.4903,48.4987 83.3236,51.1654 77.5,54.5C 76.6143,55.325 76.281,56.325 76.5,57.5C 73.9592,57.8499 71.6258,57.8499 69.5,57.5C 102.859,36.2371 138.526,31.7371 176.5,44C 179.823,45.0399 182.823,46.5399 185.5,48.5 Z"/></g>
<g><path style="opacity:1" fill="#fcfcfa" d="M 424.5,44.5 C 429.244,44.543 433.244,46.2097 436.5,49.5C 436.539,50.5832 436.873,51.5832 437.5,52.5C 436.167,53.1667 434.833,53.8333 433.5,54.5C 435.172,54.3874 437.006,54.7208 439,55.5C 440.16,60.4342 440.66,65.4342 440.5,70.5C 440.5,72.1667 440.5,73.8333 440.5,75.5C 439.076,77.5145 438.41,79.8478 438.5,82.5C 433.2,102.103 427.033,121.436 420,140.5C 415,146.167 410,151.833 405,157.5C 403.882,159.765 403.049,162.099 402.5,164.5C 394.826,164.666 387.159,164.5 379.5,164C 377.618,163.802 375.952,163.302 374.5,162.5C 375.681,160.933 377.347,160.099 379.5,160C 378.692,159.692 378.025,159.192 377.5,158.5C 378.127,157.583 378.461,156.583 378.5,155.5C 381.061,151.842 383.061,147.842 384.5,143.5C 387.384,138.992 389.217,133.992 390,128.5C 392.952,126.583 394.119,124.083 393.5,121C 394.207,118.457 395.54,116.291 397.5,114.5C 396.652,112.591 396.318,110.591 396.5,108.5C 396.5,108.167 396.5,107.833 396.5,107.5C 397.755,105.035 399.255,103.368 401,102.5C 402.933,97.3052 404.267,91.9719 405,86.5C 405.667,85.1667 406.667,84.1667 408,83.5C 408.498,80.1832 408.665,76.8499 408.5,73.5C 410.976,64.2158 414.81,55.5492 420,47.5C 421.271,46.1175 422.771,45.1175 424.5,44.5 Z"/></g>
<g><path style="opacity:1" fill="#5f5343" d="M 428.5,40.5 C 428.804,41.1499 429.137,41.8165 429.5,42.5C 427.709,43.1698 426.042,43.8365 424.5,44.5C 422.771,45.1175 421.271,46.1175 420,47.5C 414.81,55.5492 410.976,64.2158 408.5,73.5C 406.645,76.5544 405.312,79.8878 404.5,83.5C 404.167,83.5 403.833,83.5 403.5,83.5C 404.385,81.3995 404.385,79.0662 403.5,76.5C 404.872,72.9967 405.872,69.33 406.5,65.5C 407.901,62.2964 408.901,58.9631 409.5,55.5C 412.225,51.2393 415.225,47.0726 418.5,43C 421.483,40.9208 424.817,40.0875 428.5,40.5 Z"/></g>
<g><path style="opacity:1" fill="#fdfdfd" d="M 368.5,72.5 C 370.21,80.9439 371.21,89.6106 371.5,98.5C 372.475,117.234 372.475,135.901 371.5,154.5C 370.185,155.476 368.852,156.476 367.5,157.5C 365.527,156.36 363.693,155.027 362,153.5C 356.442,153.858 350.775,154.524 345,155.5C 344.439,154.978 343.772,154.645 343,154.5C 340.157,156.858 336.99,158.524 333.5,159.5C 334.615,151.882 335.449,144.216 336,136.5C 336.333,137.5 336.667,138.5 337,139.5C 338.102,135.058 338.269,130.725 337.5,126.5C 337.761,123.11 338.761,120.11 340.5,117.5C 339.54,114.565 339.207,111.731 339.5,109C 341.211,107.867 341.711,106.367 341,104.5C 340.667,104.833 340.333,105.167 340,105.5C 340.132,100.324 339.965,95.3239 339.5,90.5C 339.15,79.4514 339.65,68.4514 341,57.5C 342.423,53.8619 344.923,51.1952 348.5,49.5C 347.146,47.5378 347.813,46.5378 350.5,46.5C 351.776,47.7991 353.776,48.4657 356.5,48.5C 357.049,50.9013 357.882,53.2346 359,55.5C 359.893,54.2888 360.726,54.2888 361.5,55.5C 361.291,56.086 360.957,56.586 360.5,57C 361.243,58.8183 362.743,60.6517 365,62.5C 365.333,65.5 365.667,68.5 366,71.5C 366.671,72.2524 367.504,72.5858 368.5,72.5 Z"/></g>
<g><path style="opacity:1" fill="#585338" d="M 336.5,52.5 C 337.497,52.4701 338.164,52.9701 338.5,54C 337.956,56.3997 337.289,58.733 336.5,61C 337.635,65.7477 337.802,70.581 337,75.5C 336.066,76.8584 335.232,78.1917 334.5,79.5C 333.954,70.3343 334.621,61.3343 336.5,52.5 Z"/></g>
<g><path style="opacity:1" fill="#dcd7d2" d="M 436.5,49.5 C 438.268,51.9216 439.768,54.5883 441,57.5C 441.814,62.0204 441.647,66.3537 440.5,70.5C 440.66,65.4342 440.16,60.4342 439,55.5C 437.006,54.7208 435.172,54.3874 433.5,54.5C 434.833,53.8333 436.167,53.1667 437.5,52.5C 436.873,51.5832 436.539,50.5832 436.5,49.5 Z"/></g>
<g><path style="opacity:1" fill="#a8cb88" d="M 333.5,82.5 C 332.763,94.8285 332.097,107.162 331.5,119.5C 331.5,120.5 331.5,121.5 331.5,122.5C 330.706,126.358 330.04,130.358 329.5,134.5C 328.778,134.918 328.278,135.584 328,136.5C 328.559,146.995 326.726,156.995 322.5,166.5C 321.061,168.588 320.394,170.921 320.5,173.5C 319.883,173.611 319.383,173.944 319,174.5C 318.057,177.824 317.224,181.157 316.5,184.5C 315.25,184.577 314.417,185.244 314,186.5C 309.656,201.264 308.989,215.931 312,230.5C 313.666,229.66 313.833,230.16 312.5,232C 315.096,234.506 317.763,236.673 320.5,238.5C 320.293,241.745 321.793,243.745 325,244.5C 327.472,250.03 331.639,253.364 337.5,254.5C 340.471,255.827 343.471,257.16 346.5,258.5C 347.29,259.794 348.29,260.961 349.5,262C 358.808,262.98 367.475,265.647 375.5,270C 374.646,271.022 373.646,271.855 372.5,272.5C 370.629,271.233 368.796,271.233 367,272.5C 361.51,269.668 355.677,267.834 349.5,267C 345.116,263.529 340.116,261.196 334.5,260C 330.452,256.968 326.118,254.302 321.5,252C 317.134,248.297 313.467,243.964 310.5,239C 309.552,238.517 308.552,238.351 307.5,238.5C 307.719,237.325 307.386,236.325 306.5,235.5C 304.063,234.197 301.896,232.53 300,230.5C 298.186,227.358 296.019,224.525 293.5,222C 294.345,220.442 293.679,219.442 291.5,219C 291.957,218.586 292.291,218.086 292.5,217.5C 288.953,213.581 286.287,209.081 284.5,204C 284.833,203.667 285.167,203.333 285.5,203C 283.667,202.5 282.5,201.333 282,199.5C 280.302,192.474 278.302,185.474 276,178.5C 271.789,149.931 276.122,123.598 289,99.5C 289.49,98.2068 289.657,96.8734 289.5,95.5C 291.351,95.6491 293.184,95.6491 295,95.5C 295.273,93.8988 295.773,92.3988 296.5,91C 295.833,90.6667 295.167,90.3333 294.5,90C 301.139,81.925 308.139,74.0917 315.5,66.5C 320.897,62.4394 326.564,58.7727 332.5,55.5C 333.498,64.4754 333.832,73.4754 333.5,82.5 Z"/></g>
<g><path style="opacity:1" fill="#5a553a" d="M 363.5,48.5 C 364.167,48.8333 364.833,49.1667 365.5,49.5C 367.875,54.9072 370.208,60.2406 372.5,65.5C 373.193,75.7215 374.527,85.7215 376.5,95.5C 376.704,98.5176 377.037,101.518 377.5,104.5C 377.5,108.5 377.5,112.5 377.5,116.5C 377.168,126.522 377.501,136.522 378.5,146.5C 379.107,146.376 379.44,146.043 379.5,145.5C 380.84,139.14 382.34,132.806 384,126.5C 385.03,124.654 386.196,122.987 387.5,121.5C 385.315,128.929 383.815,136.595 383,144.5C 381.026,146.629 379.359,148.962 378,151.5C 377.5,151 377,150.5 376.5,150C 375.221,136.102 375.221,121.935 376.5,107.5C 375.068,105.184 374.068,102.684 373.5,100C 374.501,94.8364 374.501,89.503 373.5,84C 372.142,82.1684 371.808,80.3351 372.5,78.5C 370.058,71.3975 368.224,64.0641 367,56.5C 364.766,54.2963 363.599,51.6296 363.5,48.5 Z"/></g>
<g><path style="opacity:1" fill="#605146" d="M 360.5,41.5 C 360.047,42.4584 359.381,43.2917 358.5,44C 360.66,44.9959 362.327,46.4959 363.5,48.5C 363.599,51.6296 364.766,54.2963 367,56.5C 368.224,64.0641 370.058,71.3975 372.5,78.5C 371.808,80.3351 372.142,82.1684 373.5,84C 374.501,89.503 374.501,94.8364 373.5,100C 374.068,102.684 375.068,105.184 376.5,107.5C 375.221,121.935 375.221,136.102 376.5,150C 377,150.5 377.5,151 378,151.5C 379.359,148.962 381.026,146.629 383,144.5C 383.815,136.595 385.315,128.929 387.5,121.5C 389.054,120.086 390.388,118.419 391.5,116.5C 390.098,115.158 390.431,114.324 392.5,114C 392.263,111.712 392.263,109.212 392.5,106.5C 394.522,102.927 396.689,99.2603 399,95.5C 398.578,90.6143 400.078,86.6143 403.5,83.5C 403.833,83.5 404.167,83.5 404.5,83.5C 401.84,91.4902 399.173,99.4902 396.5,107.5C 396.5,107.833 396.5,108.167 396.5,108.5C 392.113,119.994 388.113,131.661 384.5,143.5C 383.061,147.842 381.061,151.842 378.5,155.5C 377.5,155.5 376.5,155.5 375.5,155.5C 373.88,136.481 372.546,117.481 371.5,98.5C 371.21,89.6106 370.21,80.9439 368.5,72.5C 368.069,61.3362 363.403,52.5029 354.5,46C 346.072,45.0599 340.906,48.8932 339,57.5C 338.5,68.495 338.333,79.495 338.5,90.5C 337.385,113.636 335.052,136.636 331.5,159.5C 328.449,163.862 329.616,165.196 335,163.5C 336.039,164.244 336.539,165.244 336.5,166.5C 333.603,167.129 330.936,168.129 328.5,169.5C 326.938,169.733 325.605,170.4 324.5,171.5C 326.003,166.056 328.003,160.389 330.5,154.5C 329.145,153.325 329.312,152.325 331,151.5C 332.118,145.714 332.285,140.047 331.5,134.5C 331.5,130.5 331.5,126.5 331.5,122.5C 331.5,121.5 331.5,120.5 331.5,119.5C 334.629,107.339 335.629,95.0054 334.5,82.5C 334.5,81.5 334.5,80.5 334.5,79.5C 335.232,78.1917 336.066,76.8584 337,75.5C 337.802,70.581 337.635,65.7477 336.5,61C 337.289,58.733 337.956,56.3997 338.5,54C 338.164,52.9701 337.497,52.4701 336.5,52.5C 336.833,51.1667 337.167,49.8333 337.5,48.5C 343.414,40.7843 351.081,38.4509 360.5,41.5 Z"/></g>
<g><path style="opacity:1" fill="#e0dbd6" d="M 368.5,72.5 C 367.504,72.5858 366.671,72.2524 366,71.5C 365.667,68.5 365.333,65.5 365,62.5C 362.743,60.6517 361.243,58.8183 360.5,57C 360.957,56.586 361.291,56.086 361.5,55.5C 360.726,54.2888 359.893,54.2888 359,55.5C 357.882,53.2346 357.049,50.9013 356.5,48.5C 353.776,48.4657 351.776,47.7991 350.5,46.5C 347.813,46.5378 347.146,47.5378 348.5,49.5C 344.923,51.1952 342.423,53.8619 341,57.5C 339.65,68.4514 339.15,79.4514 339.5,90.5C 339.167,90.5 338.833,90.5 338.5,90.5C 338.333,79.495 338.5,68.495 339,57.5C 340.906,48.8932 346.072,45.0599 354.5,46C 363.403,52.5029 368.069,61.3362 368.5,72.5 Z"/></g>
<g><path style="opacity:1" fill="#a6be86" d="M 445.5,56.5 C 446.966,57.347 447.8,58.6803 448,60.5C 448.499,65.4889 448.666,70.4889 448.5,75.5C 449.822,75.33 450.989,75.6634 452,76.5C 452.435,81.184 452.935,85.8507 453.5,90.5C 452.167,90.5 450.833,90.5 449.5,90.5C 449.326,87.1262 448.826,83.7928 448,80.5C 447.333,79.1667 446.667,79.1667 446,80.5C 444.828,84.6333 443.161,88.9666 441,93.5C 440.667,96.8333 440.333,100.167 440,103.5C 437.574,108.714 435.074,113.88 432.5,119C 433.354,120.785 432.687,121.951 430.5,122.5C 430.5,121.833 430.5,121.167 430.5,120.5C 435.635,106.638 440.468,92.6381 445,78.5C 445.5,71.1742 445.666,63.8409 445.5,56.5 Z"/></g>
<g><path style="opacity:1" fill="#a8ca87" d="M 438.5,267.5 C 438.167,267.5 437.833,267.5 437.5,267.5C 437.631,266.624 437.298,265.957 436.5,265.5C 432.98,267.601 429.313,269.101 425.5,270C 425.043,269.586 424.709,269.086 424.5,268.5C 427.71,268.214 429.71,266.547 430.5,263.5C 435.125,262.042 438.292,259.042 440,254.5C 442,253.167 444,251.833 446,250.5C 446.029,248.039 446.196,245.372 446.5,242.5C 448.017,242.489 449.184,241.823 450,240.5C 451.78,236.889 452.447,233.222 452,229.5C 453.333,228.833 454.333,227.833 455,226.5C 455.583,222.168 456.083,217.835 456.5,213.5C 456.5,212.167 456.5,210.833 456.5,209.5C 458.128,205.322 459.295,200.989 460,196.5C 468.162,187.898 471.329,177.898 469.5,166.5C 468.651,163.319 466.985,160.652 464.5,158.5C 463.886,156.717 462.72,155.384 461,154.5C 461.62,149.239 460.787,144.073 458.5,139C 458.957,138.586 459.291,138.086 459.5,137.5C 457.449,134.763 455.116,132.263 452.5,130C 452.833,129.667 453.167,129.333 453.5,129C 448.762,128.724 443.929,127.891 439,126.5C 436.573,128.746 433.906,129.412 431,128.5C 430.506,126.866 430.34,125.199 430.5,123.5C 430.5,123.167 430.5,122.833 430.5,122.5C 432.687,121.951 433.354,120.785 432.5,119C 435.074,113.88 437.574,108.714 440,103.5C 440.333,100.167 440.667,96.8333 441,93.5C 443.161,88.9666 444.828,84.6333 446,80.5C 446.667,79.1667 447.333,79.1667 448,80.5C 448.826,83.7928 449.326,87.1262 449.5,90.5C 450.833,90.5 452.167,90.5 453.5,90.5C 452.935,85.8507 452.435,81.184 452,76.5C 450.989,75.6634 449.822,75.33 448.5,75.5C 448.666,70.4889 448.499,65.4889 448,60.5C 447.8,58.6803 446.966,57.347 445.5,56.5C 445.5,55.5 445.5,54.5 445.5,53.5C 452.995,54.4312 458.662,58.0979 462.5,64.5C 463.5,63.1667 464.5,63.1667 465.5,64.5C 480.971,77.9198 493.305,94.4198 502.5,114C 502.043,114.414 501.709,114.914 501.5,115.5C 503.88,122.421 505.88,129.088 507.5,135.5C 506.985,137.636 506.651,139.803 506.5,142C 509.497,161.131 508.163,179.465 502.5,197C 498.433,196.726 494.433,197.392 490.5,199C 492.23,200.852 493.396,200.686 494,198.5C 495.333,198.5 496.667,198.5 498,198.5C 499.023,199.6 499.523,200.933 499.5,202.5C 497.088,206.995 494.921,211.662 493,216.5C 491.745,217.211 490.579,218.044 489.5,219C 489.833,219.333 490.167,219.667 490.5,220C 489.692,220.308 489.025,220.808 488.5,221.5C 487.478,224.202 486.478,226.869 485.5,229.5C 483.071,229.884 480.737,230.551 478.5,231.5C 477.641,237.023 475.475,237.689 472,233.5C 471.5,234.5 471,235.5 470.5,236.5C 472.053,237.439 473.387,238.606 474.5,240C 473.968,242.02 472.635,242.853 470.5,242.5C 470.5,243.5 470.5,244.5 470.5,245.5C 468.473,245.338 466.473,245.505 464.5,246C 464.833,246.333 465.167,246.667 465.5,247C 463,248.167 461.167,250 460,252.5C 459.282,251.549 458.449,251.383 457.5,252C 456.5,253.667 455.5,255.333 454.5,257C 450.863,256.684 448.196,258.018 446.5,261C 441.856,260.825 439.19,262.991 438.5,267.5 Z"/></g>
<g><path style="opacity:0.471" fill="#edcb6d" d="M 192.5,51.5 C 220.487,66.1562 239.487,88.4895 249.5,118.5C 248.504,118.586 247.671,118.252 247,117.5C 245.299,112.677 243.299,108.01 241,103.5C 240.333,102.167 239.667,102.167 239,103.5C 237.836,98.5256 236.002,93.8589 233.5,89.5C 232.086,88.376 230.586,87.376 229,86.5C 227.497,83.0597 224.997,81.0597 221.5,80.5C 221.508,75.9977 219.341,72.9977 215,71.5C 214.727,69.6711 213.893,68.1711 212.5,67C 208.717,66.4462 206.05,64.4462 204.5,61C 200.854,58.6976 197.187,56.3643 193.5,54C 192.748,53.3292 192.414,52.4959 192.5,51.5 Z"/></g>
<g><path style="opacity:1" fill="#debc6f" d="M 150.5,69.5 C 146.486,69.3345 142.486,69.5012 138.5,70C 137.584,70.2784 136.918,70.7784 136.5,71.5C 134.973,71.427 133.973,72.0937 133.5,73.5C 132.609,74.1098 131.609,74.4431 130.5,74.5C 130.511,72.9826 131.177,71.8159 132.5,71C 138.391,68.3656 144.391,67.8656 150.5,69.5 Z"/></g>
<g><path style="opacity:1" fill="#a3b584" d="M 372.5,65.5 C 373.117,65.6107 373.617,65.944 374,66.5C 374.975,71.7462 376.141,76.9128 377.5,82C 376.533,86.4014 376.2,90.9014 376.5,95.5C 374.527,85.7215 373.193,75.7215 372.5,65.5 Z"/></g>
<g><path style="opacity:1" fill="#faf9f8" d="M 159.5,79.5 C 166.179,86.8615 170.179,95.5282 171.5,105.5C 172.987,111.817 174.487,118.15 176,124.5C 176.499,128.486 176.666,132.486 176.5,136.5C 175.812,139.057 174.646,141.391 173,143.5C 173.02,132.377 168.853,123.21 160.5,116C 156.594,114.566 152.594,114.233 148.5,115C 144.52,116.994 140.854,119.494 137.5,122.5C 135.096,115.066 132.763,107.733 130.5,100.5C 130.334,94.4908 130.501,88.4908 131,82.5C 135.386,74.8917 141.886,72.0583 150.5,74C 153.727,75.5632 156.727,77.3965 159.5,79.5 Z"/></g>
<g><path style="opacity:1" fill="#775c31" d="M 150.5,69.5 C 152.292,69.366 153.958,69.6993 155.5,70.5C 157.978,72.8025 160.645,74.9692 163.5,77C 164.819,77.195 166.153,77.0283 167.5,76.5C 167.778,78.3464 167.111,79.6798 165.5,80.5C 160.463,76.6898 155.463,73.5231 150.5,71C 145.839,70.8306 141.172,70.9973 136.5,71.5C 136.918,70.7784 137.584,70.2784 138.5,70C 142.486,69.5012 146.486,69.3345 150.5,69.5 Z"/></g>
<g><path style="opacity:1" fill="#7d835b" d="M 406.5,65.5 C 405.872,69.33 404.872,72.9967 403.5,76.5C 403.167,76.5 402.833,76.5 402.5,76.5C 402.677,72.2924 404.01,68.6257 406.5,65.5 Z"/></g>
<g><path style="opacity:1" fill="#5d593d" d="M 443.5,51.5 C 443.796,53.403 444.463,55.0697 445.5,56.5C 445.666,63.8409 445.5,71.1742 445,78.5C 440.468,92.6381 435.635,106.638 430.5,120.5C 430.92,118.326 430.92,116.326 430.5,114.5C 435.457,101.376 439.623,88.376 443,75.5C 443.342,67.296 443.508,59.296 443.5,51.5 Z"/></g>
<g><path style="opacity:1" fill="#faf9f7" d="M 198.5,99.5 C 202.565,111.938 202.398,124.271 198,136.5C 193.749,144.712 186.916,148.379 177.5,147.5C 178.652,143.855 179.818,140.188 181,136.5C 180.911,117.07 176.411,98.7369 167.5,81.5C 177.726,76.0419 186.226,78.0419 193,87.5C 195.65,91.1328 197.483,95.1328 198.5,99.5 Z"/></g>
<g><path style="opacity:0.498" fill="#a7bf85" d="M 337.5,48.5 C 337.167,49.8333 336.833,51.1667 336.5,52.5C 334.621,61.3343 333.954,70.3343 334.5,79.5C 334.5,80.5 334.5,81.5 334.5,82.5C 334.167,82.5 333.833,82.5 333.5,82.5C 333.832,73.4754 333.498,64.4754 332.5,55.5C 326.564,58.7727 320.897,62.4394 315.5,66.5C 308.139,74.0917 301.139,81.925 294.5,90C 295.167,90.3333 295.833,90.6667 296.5,91C 295.773,92.3988 295.273,93.8988 295,95.5C 293.184,95.6491 291.351,95.6491 289.5,95.5C 296.598,83.8645 305.265,73.3645 315.5,64C 323.038,59.0696 330.371,53.903 337.5,48.5 Z"/></g>
<g><path style="opacity:1" fill="#c9a963" d="M 115.5,84.5 C 114.167,84.5 112.833,84.5 111.5,84.5C 105.97,81.9521 100.304,81.9521 94.5,84.5C 94.8039,83.8501 95.1373,83.1835 95.5,82.5C 100.467,81.3377 105.467,81.1711 110.5,82C 112.315,82.7568 113.981,83.5902 115.5,84.5 Z"/></g>
<g><path style="opacity:1" fill="#745930" d="M 133.5,73.5 C 130.034,78.9505 127.368,84.6171 125.5,90.5C 125.168,84.4995 126.834,79.1661 130.5,74.5C 131.609,74.4431 132.609,74.1098 133.5,73.5 Z"/></g>
<g><path style="opacity:1" fill="#eac771" d="M 201.5,92.5 C 201.167,92.5 200.833,92.5 200.5,92.5C 200.167,91.8333 199.833,91.1667 199.5,90.5C 198.718,85.5764 196.051,82.243 191.5,80.5C 190.164,77.4973 187.831,75.8306 184.5,75.5C 178.65,72.6058 172.984,72.9391 167.5,76.5C 166.153,77.0283 164.819,77.195 163.5,77C 160.645,74.9692 157.978,72.8025 155.5,70.5C 156.251,69.4265 157.251,69.2599 158.5,70C 160.366,73.0922 163.033,74.9256 166.5,75.5C 166.5,74.5 166.5,73.5 166.5,72.5C 174.284,71.8079 181.951,71.6412 189.5,72C 188.72,73.073 188.887,74.2396 190,75.5C 193.641,78.8049 197.308,82.1383 201,85.5C 202.06,87.9501 202.227,90.2834 201.5,92.5 Z"/></g>
<g><path style="opacity:1" fill="#795e33" d="M 184.5,75.5 C 178.804,75.447 173.138,75.7803 167.5,76.5C 172.984,72.9391 178.65,72.6058 184.5,75.5 Z"/></g>
<g><path style="opacity:1" fill="#9e948d" d="M 440.5,75.5 C 440.59,78.1522 439.924,80.4855 438.5,82.5C 438.41,79.8478 439.076,77.5145 440.5,75.5 Z"/></g>
<g><path style="opacity:1" fill="#816436" d="M 191.5,80.5 C 196.051,82.243 198.718,85.5764 199.5,90.5C 198.5,90.5 197.5,90.5 196.5,90.5C 196.66,88.8008 196.494,87.1341 196,85.5C 193.585,84.5887 192.085,82.922 191.5,80.5 Z"/></g>
<g><path style="opacity:1" fill="#5d593c" d="M 402.5,76.5 C 402.833,76.5 403.167,76.5 403.5,76.5C 404.385,79.0662 404.385,81.3995 403.5,83.5C 400.078,86.6143 398.578,90.6143 399,95.5C 396.689,99.2603 394.522,102.927 392.5,106.5C 394.032,101.232 395.366,95.8991 396.5,90.5C 399.067,86.1515 401.067,81.4848 402.5,76.5 Z"/></g>
<g><path style="opacity:1" fill="#755a30" d="M 111.5,84.5 C 95.5244,81.9565 87.1911,88.6232 86.5,104.5C 84.9255,105.631 83.2588,105.798 81.5,105C 79.6228,103.815 77.6228,102.815 75.5,102C 74.7476,101.329 74.4142,100.496 74.5,99.5C 74.8333,99.5 75.1667,99.5 75.5,99.5C 78.7206,100.709 81.7206,102.376 84.5,104.5C 85.1029,100.214 86.1029,96.0476 87.5,92C 89.6198,89.5924 91.6198,87.0924 93.5,84.5C 93.8333,84.5 94.1667,84.5 94.5,84.5C 100.304,81.9521 105.97,81.9521 111.5,84.5 Z"/></g>
<g><path style="opacity:0.445" fill="#eac96d" d="M 43.5,80.5 C 43.7022,82.9892 43.2022,85.3225 42,87.5C 38.6032,89.5579 36.9366,92.5579 37,96.5C 36.6667,96.1667 36.3333,95.8333 36,95.5C 17.1717,126.506 13.3384,159.506 24.5,194.5C 23.8728,195.417 23.5394,196.417 23.5,197.5C 13.1445,165.741 14.6445,134.408 28,103.5C 32.2466,95.1098 37.4132,87.4431 43.5,80.5 Z"/></g>
<g><path style="opacity:1" fill="#fbfaf9" d="M 111.5,88.5 C 116.1,89.9588 119.766,92.6255 122.5,96.5C 126.286,104.165 129.452,112.165 132,120.5C 132.814,122.902 132.647,125.235 131.5,127.5C 122.275,133.752 112.275,138.085 101.5,140.5C 98.1331,129.683 94.4664,119.016 90.5,108.5C 90.2497,103.42 90.7497,98.4195 92,93.5C 93.0757,90.921 94.909,89.2543 97.5,88.5C 102.177,87.2591 106.843,87.2591 111.5,88.5 Z"/></g>
<g><path style="opacity:1" fill="#f2cb6e" d="M 93.5,84.5 C 91.6198,87.0924 89.6198,89.5924 87.5,92C 86.1029,96.0476 85.1029,100.214 84.5,104.5C 81.7206,102.376 78.7206,100.709 75.5,99.5C 74.5,98.8333 73.5,98.1667 72.5,97.5C 73.5,97.5 74.5,97.5 75.5,97.5C 75.3398,95.8008 75.5065,94.1341 76,92.5C 76.6152,94.1161 77.6152,95.4495 79,96.5C 80.2853,93.1964 82.452,92.5297 85.5,94.5C 83.4863,87.1932 86.153,83.8598 93.5,84.5 Z"/></g>
<g><path style="opacity:1" fill="#d1b168" d="M 61.5,98.5 C 64.9619,97.5184 68.6286,97.185 72.5,97.5C 73.5,98.1667 74.5,98.8333 75.5,99.5C 75.1667,99.5 74.8333,99.5 74.5,99.5C 73.5,99.5 72.5,99.5 71.5,99.5C 68.3752,98.5206 65.0419,98.1872 61.5,98.5 Z"/></g>
<g><path style="opacity:1" fill="#775c31" d="M 61.5,98.5 C 65.0419,98.1872 68.3752,98.5206 71.5,99.5C 59.5898,98.889 52.4231,104.556 50,116.5C 49.9605,121.157 50.2938,125.824 51,130.5C 53.3102,138.74 55.1436,147.073 56.5,155.5C 55.5,154.167 54.5,152.833 53.5,151.5C 53.5,151.167 53.5,150.833 53.5,150.5C 52.63,143.687 51.13,137.02 49,130.5C 48.3333,124.167 48.3333,117.833 49,111.5C 50.9198,106.424 54.0865,102.424 58.5,99.5C 59.609,99.4431 60.609,99.1098 61.5,98.5 Z"/></g>
<g><path style="opacity:1" fill="#e9e5e1" d="M 408.5,73.5 C 408.665,76.8499 408.498,80.1832 408,83.5C 406.667,84.1667 405.667,85.1667 405,86.5C 404.267,91.9719 402.933,97.3052 401,102.5C 399.255,103.368 397.755,105.035 396.5,107.5C 399.173,99.4902 401.84,91.4902 404.5,83.5C 405.312,79.8878 406.645,76.5544 408.5,73.5 Z"/></g>
<g><path style="opacity:1" fill="#faf9f8" d="M 84.5,111.5 C 89.4476,120.316 93.4476,129.649 96.5,139.5C 92.9558,141.268 88.9558,142.102 84.5,142C 83.944,142.383 83.6107,142.883 83.5,143.5C 79.9135,145.58 76.7468,148.246 74,151.5C 71.4045,155.931 68.2378,159.931 64.5,163.5C 63.8165,163.137 63.1499,162.804 62.5,162.5C 58.9668,152.059 56.1334,141.393 54,130.5C 53.3333,124.167 53.3333,117.833 54,111.5C 60.2827,101.793 68.4494,99.9599 78.5,106C 80.9962,107.331 82.9962,109.164 84.5,111.5 Z"/></g>
<g><path style="opacity:1" fill="#747853" d="M 333.5,82.5 C 333.833,82.5 334.167,82.5 334.5,82.5C 335.629,95.0054 334.629,107.339 331.5,119.5C 332.097,107.162 332.763,94.8285 333.5,82.5 Z"/></g>
<g><path style="opacity:1" fill="#a9c28a" d="M 396.5,90.5 C 395.366,95.8991 394.032,101.232 392.5,106.5C 390.078,111.165 388.411,116.165 387.5,121.5C 386.196,122.987 385.03,124.654 384,126.5C 382.34,132.806 380.84,139.14 379.5,145.5C 378.833,135.833 378.167,126.167 377.5,116.5C 377.5,112.5 377.5,108.5 377.5,104.5C 378.751,106.382 379.918,108.382 381,110.5C 382.131,105.296 383.631,104.796 385.5,109C 384.159,111.687 382.493,113.353 380.5,114C 380.884,118.08 381.051,122.246 381,126.5C 382.093,124.028 383.76,122.028 386,120.5C 386.333,118.167 386.667,115.833 387,113.5C 388.544,111.532 389.711,109.365 390.5,107C 388.789,105.867 388.289,104.367 389,102.5C 389.333,102.833 389.667,103.167 390,103.5C 393.01,100.158 394.676,96.1575 395,91.5C 395.383,90.944 395.883,90.6107 396.5,90.5 Z"/></g>
<g><path style="opacity:1" fill="#70552d" d="M 200.5,92.5 C 200.833,92.5 201.167,92.5 201.5,92.5C 201.263,93.791 201.596,94.791 202.5,95.5C 205.045,111.917 208.045,128.251 211.5,144.5C 210.442,143.4 209.608,142.066 209,140.5C 208.291,134.999 206.958,129.665 205,124.5C 204.654,118.143 204.154,111.81 203.5,105.5C 201.899,101.958 200.565,98.291 199.5,94.5C 199.543,93.5836 199.876,92.9169 200.5,92.5 Z"/></g>
<g><path style="opacity:1" fill="#605d3f" d="M 392.5,106.5 C 392.263,109.212 392.263,111.712 392.5,114C 390.431,114.324 390.098,115.158 391.5,116.5C 390.388,118.419 389.054,120.086 387.5,121.5C 388.411,116.165 390.078,111.165 392.5,106.5 Z"/></g>
<g><path style="opacity:1" fill="#fdfcfc" d="M 165.5,148.5 C 164.044,152.577 161.711,156.077 158.5,159C 151.541,164.277 143.874,168.277 135.5,171C 129.785,171.258 124.118,171.758 118.5,172.5C 117.566,173.568 117.232,174.901 117.5,176.5C 118.171,177.847 118.171,179.014 117.5,180C 118.025,180.692 118.692,181.192 119.5,181.5C 124.474,177.556 128.974,177.556 133,181.5C 133.667,180.167 134.333,180.167 135,181.5C 135.582,187.152 137.582,192.152 141,196.5C 141.61,199.827 142.11,203.161 142.5,206.5C 141.25,209.006 140.584,211.673 140.5,214.5C 141.978,214.762 143.311,214.429 144.5,213.5C 148.905,206.333 149.739,198.666 147,190.5C 144.613,185.176 141.946,180.176 139,175.5C 151.255,170.793 161.422,163.293 169.5,153C 171.167,152.167 172.833,151.333 174.5,150.5C 177.535,152.301 180.869,152.968 184.5,152.5C 189.653,151.637 194.653,151.137 199.5,151C 199.043,150.586 198.709,150.086 198.5,149.5C 199.833,147.833 201.167,146.167 202.5,144.5C 205.823,147.751 207.657,151.751 208,156.5C 208.333,156.167 208.667,155.833 209,155.5C 209.498,157.527 209.331,159.527 208.5,161.5C 210.239,163.726 211.572,166.726 212.5,170.5C 213.35,177.799 213.683,185.132 213.5,192.5C 212.796,204.079 207.796,213.245 198.5,220C 191.005,224.084 183.338,227.584 175.5,230.5C 171.797,230.907 168.13,231.574 164.5,232.5C 163.287,232.747 162.62,233.414 162.5,234.5C 151.483,238.447 140.15,241.28 128.5,243C 107.801,245.89 91.3011,239.057 79,222.5C 72.3103,213.121 67.8103,202.787 65.5,191.5C 65.7062,188.505 65.0395,185.838 63.5,183.5C 62.4596,179.151 62.4596,174.818 63.5,170.5C 64.8549,169.812 65.8549,168.812 66.5,167.5C 72.4775,160.414 78.8108,153.58 85.5,147C 91.5506,146.74 97.5506,146.073 103.5,145C 109.867,142.657 116.2,140.323 122.5,138C 130.339,132.978 138.005,127.811 145.5,122.5C 148.746,121.81 151.912,121.477 155,121.5C 157.524,122.178 159.691,123.512 161.5,125.5C 166.118,130.982 167.618,137.315 166,144.5C 165.346,143.304 164.846,143.304 164.5,144.5C 165.246,145.736 165.579,147.07 165.5,148.5 Z"/></g>
<g><path style="opacity:1" fill="#e8e4e0" d="M 396.5,108.5 C 396.318,110.591 396.652,112.591 397.5,114.5C 395.54,116.291 394.207,118.457 393.5,121C 394.119,124.083 392.952,126.583 390,128.5C 389.217,133.992 387.384,138.992 384.5,143.5C 388.113,131.661 392.113,119.994 396.5,108.5 Z"/></g>
<g><path style="opacity:1" fill="#5c583d" d="M 430.5,120.5 C 430.5,121.167 430.5,121.833 430.5,122.5C 430.5,122.833 430.5,123.167 430.5,123.5C 429.51,126.739 428.51,130.072 427.5,133.5C 425.516,133.516 424.516,132.516 424.5,130.5C 427.326,127.565 429.326,124.231 430.5,120.5 Z"/></g>
<g><path style="opacity:1" fill="#63544a" d="M 159.5,79.5 C 161.84,80.086 164.007,81.086 166,82.5C 166.383,81.944 166.883,81.6107 167.5,81.5C 176.411,98.7369 180.911,117.07 181,136.5C 179.818,140.188 178.652,143.855 177.5,147.5C 186.916,148.379 193.749,144.712 198,136.5C 202.398,124.271 202.565,111.938 198.5,99.5C 199.689,101.867 201.356,103.867 203.5,105.5C 204.154,111.81 204.654,118.143 205,124.5C 206.958,129.665 208.291,134.999 209,140.5C 209.608,142.066 210.442,143.4 211.5,144.5C 212.312,149.475 213.145,154.475 214,159.5C 214.578,162.572 215.745,165.239 217.5,167.5C 217.5,168.833 217.5,170.167 217.5,171.5C 217.61,180.854 217.277,190.188 216.5,199.5C 216.5,199.833 216.5,200.167 216.5,200.5C 214.315,204.213 212.648,208.213 211.5,212.5C 210.325,212.281 209.325,212.614 208.5,213.5C 204.456,217.874 200.456,222.207 196.5,226.5C 196.167,226.5 195.833,226.5 195.5,226.5C 191.433,226.206 188.1,227.54 185.5,230.5C 180.761,231.185 176.094,232.185 171.5,233.5C 172.59,232.143 173.924,231.143 175.5,230.5C 183.338,227.584 191.005,224.084 198.5,220C 207.796,213.245 212.796,204.079 213.5,192.5C 214.884,183.451 214.55,174.451 212.5,165.5C 210.469,154.678 207.802,144.011 204.5,133.5C 201.026,143.31 194.36,149.643 184.5,152.5C 180.869,152.968 177.535,152.301 174.5,150.5C 172.833,151.333 171.167,152.167 169.5,153C 161.422,163.293 151.255,170.793 139,175.5C 141.946,180.176 144.613,185.176 147,190.5C 149.739,198.666 148.905,206.333 144.5,213.5C 143.311,214.429 141.978,214.762 140.5,214.5C 140.584,211.673 141.25,209.006 142.5,206.5C 145.171,193.863 141.171,183.863 130.5,176.5C 126.702,175.517 122.702,175.183 118.5,175.5C 118.5,174.5 118.5,173.5 118.5,172.5C 124.118,171.758 129.785,171.258 135.5,171C 143.874,168.277 151.541,164.277 158.5,159C 161.711,156.077 164.044,152.577 165.5,148.5C 170.163,136.845 167.496,127.179 157.5,119.5C 152.741,117.745 148.741,118.745 145.5,122.5C 138.005,127.811 130.339,132.978 122.5,138C 116.2,140.323 109.867,142.657 103.5,145C 97.5506,146.073 91.5506,146.74 85.5,147C 78.8108,153.58 72.4775,160.414 66.5,167.5C 65.5264,165.52 64.193,163.853 62.5,162.5C 63.1499,162.804 63.8165,163.137 64.5,163.5C 68.2378,159.931 71.4045,155.931 74,151.5C 76.7468,148.246 79.9135,145.58 83.5,143.5C 88.1031,142.617 92.7697,142.283 97.5,142.5C 97.7373,141.209 97.404,140.209 96.5,139.5C 93.4476,129.649 89.4476,120.316 84.5,111.5C 85.5832,111.539 86.5832,111.873 87.5,112.5C 88.2559,110.293 89.2559,108.96 90.5,108.5C 94.4664,119.016 98.1331,129.683 101.5,140.5C 112.275,138.085 122.275,133.752 131.5,127.5C 132.647,125.235 132.814,122.902 132,120.5C 129.452,112.165 126.286,104.165 122.5,96.5C 123.222,96.0825 123.722,95.4158 124,94.5C 124.333,95.5 124.667,96.5 125,97.5C 125.333,97.1667 125.667,96.8333 126,96.5C 126.156,100.134 127.156,103.467 129,106.5C 130.319,104.75 130.819,102.75 130.5,100.5C 132.763,107.733 135.096,115.066 137.5,122.5C 140.854,119.494 144.52,116.994 148.5,115C 152.594,114.233 156.594,114.566 160.5,116C 168.853,123.21 173.02,132.377 173,143.5C 174.646,141.391 175.812,139.057 176.5,136.5C 177.619,125.811 175.952,115.478 171.5,105.5C 170.179,95.5282 166.179,86.8615 159.5,79.5 Z"/></g>
<g><path style="opacity:1" fill="#e2ddd8" d="M 165.5,148.5 C 165.579,147.07 165.246,145.736 164.5,144.5C 164.846,143.304 165.346,143.304 166,144.5C 167.618,137.315 166.118,130.982 161.5,125.5C 159.691,123.512 157.524,122.178 155,121.5C 151.912,121.477 148.746,121.81 145.5,122.5C 148.741,118.745 152.741,117.745 157.5,119.5C 167.496,127.179 170.163,136.845 165.5,148.5 Z"/></g>
<g><path style="opacity:1" fill="#bbb3ac" d="M 171.5,105.5 C 175.952,115.478 177.619,125.811 176.5,136.5C 176.666,132.486 176.499,128.486 176,124.5C 174.487,118.15 172.987,111.817 171.5,105.5 Z"/></g>
<g><path style="opacity:1" fill="#5d583c" d="M 437.5,129.5 C 444.431,127.656 450.098,129.656 454.5,135.5C 449.169,132.722 443.502,130.722 437.5,129.5 Z"/></g>
<g><path style="opacity:1" fill="#dfbd6e" d="M 58.5,99.5 C 54.0865,102.424 50.9198,106.424 49,111.5C 48.3333,117.833 48.3333,124.167 49,130.5C 51.13,137.02 52.63,143.687 53.5,150.5C 52.4138,150.38 51.7472,149.713 51.5,148.5C 48.4863,137.722 46.8196,126.722 46.5,115.5C 46.6506,112.547 47.3173,109.714 48.5,107C 50.7833,105.382 52.2833,103.215 53,100.5C 54.6995,99.5939 56.5328,99.2606 58.5,99.5 Z"/></g>
<g><path style="opacity:1" fill="#7d835b" d="M 331.5,122.5 C 331.5,126.5 331.5,130.5 331.5,134.5C 330.833,137.833 330.167,141.167 329.5,144.5C 329.5,141.167 329.5,137.833 329.5,134.5C 330.04,130.358 330.706,126.358 331.5,122.5 Z"/></g>
<g><path style="opacity:1" fill="#dad4ce" d="M 371.5,98.5 C 372.546,117.481 373.88,136.481 375.5,155.5C 373.994,154.77 372.66,154.437 371.5,154.5C 372.475,135.901 372.475,117.234 371.5,98.5 Z"/></g>
<g><path style="opacity:1" fill="#a1b581" d="M 430.5,123.5 C 430.34,125.199 430.506,126.866 431,128.5C 433.906,129.412 436.573,128.746 439,126.5C 443.929,127.891 448.762,128.724 453.5,129C 453.167,129.333 452.833,129.667 452.5,130C 455.116,132.263 457.449,134.763 459.5,137.5C 459.291,138.086 458.957,138.586 458.5,139C 460.787,144.073 461.62,149.239 461,154.5C 462.72,155.384 463.886,156.717 464.5,158.5C 462.574,157.758 460.741,156.758 459,155.5C 458.667,150.833 458.333,146.167 458,141.5C 457.626,139.509 456.793,137.842 455.5,136.5C 454.833,136.5 454.5,136.167 454.5,135.5C 450.098,129.656 444.431,127.656 437.5,129.5C 434.053,130.647 430.72,131.98 427.5,133.5C 428.51,130.072 429.51,126.739 430.5,123.5 Z"/></g>
<g><path style="opacity:1" fill="#767a55" d="M 377.5,116.5 C 378.167,126.167 378.833,135.833 379.5,145.5C 379.44,146.043 379.107,146.376 378.5,146.5C 377.501,136.522 377.168,126.522 377.5,116.5 Z"/></g>
<g><path style="opacity:1" fill="#f1ede9" d="M 212.5,165.5 C 212.5,167.167 212.5,168.833 212.5,170.5C 211.572,166.726 210.239,163.726 208.5,161.5C 209.331,159.527 209.498,157.527 209,155.5C 208.667,155.833 208.333,156.167 208,156.5C 207.657,151.751 205.823,147.751 202.5,144.5C 201.167,146.167 199.833,147.833 198.5,149.5C 198.709,150.086 199.043,150.586 199.5,151C 194.653,151.137 189.653,151.637 184.5,152.5C 194.36,149.643 201.026,143.31 204.5,133.5C 207.802,144.011 210.469,154.678 212.5,165.5 Z"/></g>
<g><path style="opacity:1" fill="#9f958e" d="M 96.5,139.5 C 97.404,140.209 97.7373,141.209 97.5,142.5C 92.7697,142.283 88.1031,142.617 83.5,143.5C 83.6107,142.883 83.944,142.383 84.5,142C 88.9558,142.102 92.9558,141.268 96.5,139.5 Z"/></g>
<g><path style="opacity:1" fill="#dfbd6e" d="M 202.5,95.5 C 203.151,96.0906 203.818,96.7573 204.5,97.5C 206.726,107.025 208.226,116.692 209,126.5C 211.113,131.284 212.446,136.284 213,141.5C 216.057,145.915 217.391,150.915 217,156.5C 217.333,156.167 217.667,155.833 218,155.5C 220.191,172.597 219.858,189.597 217,206.5C 215.092,209.215 213.759,212.215 213,215.5C 209.956,218.051 206.789,220.384 203.5,222.5C 206.493,219.499 209.159,216.165 211.5,212.5C 214.697,209.267 216.364,205.267 216.5,200.5C 216.5,200.167 216.5,199.833 216.5,199.5C 217.268,198.737 217.768,197.737 218,196.5C 218.823,187.99 218.657,179.656 217.5,171.5C 217.5,170.167 217.5,168.833 217.5,167.5C 216.45,159.479 214.45,151.812 211.5,144.5C 208.045,128.251 205.045,111.917 202.5,95.5 Z"/></g>
<g><path style="opacity:1" fill="#a6b987" d="M 329.5,134.5 C 329.5,137.833 329.5,141.167 329.5,144.5C 328.67,149.12 327.837,153.787 327,158.5C 325.768,161.412 324.268,164.078 322.5,166.5C 326.726,156.995 328.559,146.995 328,136.5C 328.278,135.584 328.778,134.918 329.5,134.5 Z"/></g>
<g><path style="opacity:1" fill="#5f5c3e" d="M 455.5,136.5 C 456.793,137.842 457.626,139.509 458,141.5C 458.333,146.167 458.667,150.833 459,155.5C 460.741,156.758 462.574,157.758 464.5,158.5C 466.985,160.652 468.651,163.319 469.5,166.5C 466.41,163.886 463.41,161.053 460.5,158C 459.552,157.517 458.552,157.351 457.5,157.5C 457.828,151.418 456.828,145.418 454.5,139.5C 455.127,138.583 455.461,137.583 455.5,136.5 Z"/></g>
<g><path style="opacity:1" fill="#645145" d="M 167.5,76.5 C 173.138,75.7803 178.804,75.447 184.5,75.5C 187.831,75.8306 190.164,77.4973 191.5,80.5C 192.085,82.922 193.585,84.5887 196,85.5C 196.494,87.1341 196.66,88.8008 196.5,90.5C 197.5,90.5 198.5,90.5 199.5,90.5C 199.833,91.1667 200.167,91.8333 200.5,92.5C 199.876,92.9169 199.543,93.5836 199.5,94.5C 200.565,98.291 201.899,101.958 203.5,105.5C 201.356,103.867 199.689,101.867 198.5,99.5C 197.483,95.1328 195.65,91.1328 193,87.5C 186.226,78.0419 177.726,76.0419 167.5,81.5C 166.883,81.6107 166.383,81.944 166,82.5C 164.007,81.086 161.84,80.086 159.5,79.5C 156.727,77.3965 153.727,75.5632 150.5,74C 141.886,72.0583 135.386,74.8917 131,82.5C 130.501,88.4908 130.334,94.4908 130.5,100.5C 130.819,102.75 130.319,104.75 129,106.5C 127.156,103.467 126.156,100.134 126,96.5C 125.667,96.8333 125.333,97.1667 125,97.5C 124.667,96.5 124.333,95.5 124,94.5C 123.722,95.4158 123.222,96.0825 122.5,96.5C 119.766,92.6255 116.1,89.9588 111.5,88.5C 109.71,87.0027 107.544,86.336 105,86.5C 102.179,86.4078 99.6789,87.0744 97.5,88.5C 94.909,89.2543 93.0757,90.921 92,93.5C 90.7497,98.4195 90.2497,103.42 90.5,108.5C 89.2559,108.96 88.2559,110.293 87.5,112.5C 86.5832,111.873 85.5832,111.539 84.5,111.5C 82.9962,109.164 80.9962,107.331 78.5,106C 68.4494,99.9599 60.2827,101.793 54,111.5C 53.3333,117.833 53.3333,124.167 54,130.5C 56.1334,141.393 58.9668,152.059 62.5,162.5C 64.193,163.853 65.5264,165.52 66.5,167.5C 65.8549,168.812 64.8549,169.812 63.5,170.5C 62.4596,174.818 62.4596,179.151 63.5,183.5C 63.5651,186.428 64.2318,189.095 65.5,191.5C 67.8103,202.787 72.3103,213.121 79,222.5C 91.3011,239.057 107.801,245.89 128.5,243C 140.15,241.28 151.483,238.447 162.5,234.5C 165.391,233.597 168.391,233.264 171.5,233.5C 169.371,234.203 167.371,235.203 165.5,236.5C 164.833,236.833 164.167,237.167 163.5,237.5C 158.92,237.417 154.587,238.917 150.5,242C 141.855,244.232 133.189,245.732 124.5,246.5C 117.052,246.638 109.719,245.804 102.5,244C 97.3369,241.631 92.3369,239.131 87.5,236.5C 86.8333,236.167 86.1667,235.833 85.5,235.5C 83.8881,231.442 81.2214,228.275 77.5,226C 76.9678,223.537 75.6345,221.703 73.5,220.5C 71.1782,219.198 69.8449,217.198 69.5,214.5C 66.9564,209.405 64.9564,204.072 63.5,198.5C 63.4142,197.504 63.7476,196.671 64.5,196C 62.7753,190.319 60.7753,184.819 58.5,179.5C 58.5,179.167 58.5,178.833 58.5,178.5C 58.7678,175.26 59.4345,172.094 60.5,169C 60.4301,168.235 60.0967,167.735 59.5,167.5C 58.7439,163.37 57.7439,159.37 56.5,155.5C 55.1436,147.073 53.3102,138.74 51,130.5C 50.2938,125.824 49.9605,121.157 50,116.5C 52.4231,104.556 59.5898,98.889 71.5,99.5C 72.5,99.5 73.5,99.5 74.5,99.5C 74.4142,100.496 74.7476,101.329 75.5,102C 77.6228,102.815 79.6228,103.815 81.5,105C 83.2588,105.798 84.9255,105.631 86.5,104.5C 87.1911,88.6232 95.5244,81.9565 111.5,84.5C 114.678,87.2583 118.345,89.2583 122.5,90.5C 123.5,90.5 124.5,90.5 125.5,90.5C 127.368,84.6171 130.034,78.9505 133.5,73.5C 133.973,72.0937 134.973,71.427 136.5,71.5C 141.172,70.9973 145.839,70.8306 150.5,71C 155.463,73.5231 160.463,76.6898 165.5,80.5C 167.111,79.6798 167.778,78.3464 167.5,76.5 Z"/></g>
<g><path style="opacity:1" fill="#c2bab4" d="M 111.5,88.5 C 106.843,87.2591 102.177,87.2591 97.5,88.5C 99.6789,87.0744 102.179,86.4078 105,86.5C 107.544,86.336 109.71,87.0027 111.5,88.5 Z"/></g>
<g><path style="opacity:1" fill="#74592f" d="M 111.5,84.5 C 112.833,84.5 114.167,84.5 115.5,84.5C 118.02,86.2632 120.353,88.2632 122.5,90.5C 118.345,89.2583 114.678,87.2583 111.5,84.5 Z"/></g>
<g><path style="opacity:1" fill="#5e5a3e" d="M 331.5,134.5 C 332.285,140.047 332.118,145.714 331,151.5C 329.312,152.325 329.145,153.325 330.5,154.5C 328.003,160.389 326.003,166.056 324.5,171.5C 324.5,171.833 324.5,172.167 324.5,172.5C 323.167,172.833 321.833,173.167 320.5,173.5C 320.394,170.921 321.061,168.588 322.5,166.5C 324.268,164.078 325.768,161.412 327,158.5C 327.837,153.787 328.67,149.12 329.5,144.5C 330.167,141.167 330.833,137.833 331.5,134.5 Z"/></g>
<g><path style="opacity:1" fill="#73582f" d="M 211.5,144.5 C 214.45,151.812 216.45,159.479 217.5,167.5C 215.745,165.239 214.578,162.572 214,159.5C 213.145,154.475 212.312,149.475 211.5,144.5 Z"/></g>
<g><path style="opacity:1" fill="#f2efeb" d="M 338.5,90.5 C 338.833,90.5 339.167,90.5 339.5,90.5C 339.965,95.3239 340.132,100.324 340,105.5C 340.333,105.167 340.667,104.833 341,104.5C 341.711,106.367 341.211,107.867 339.5,109C 339.207,111.731 339.54,114.565 340.5,117.5C 338.761,120.11 337.761,123.11 337.5,126.5C 338.269,130.725 338.102,135.058 337,139.5C 336.667,138.5 336.333,137.5 336,136.5C 335.449,144.216 334.615,151.882 333.5,159.5C 336.99,158.524 340.157,156.858 343,154.5C 343.772,154.645 344.439,154.978 345,155.5C 350.775,154.524 356.442,153.858 362,153.5C 363.693,155.027 365.527,156.36 367.5,157.5C 368.852,156.476 370.185,155.476 371.5,154.5C 372.66,154.437 373.994,154.77 375.5,155.5C 376.5,155.5 377.5,155.5 378.5,155.5C 378.461,156.583 378.127,157.583 377.5,158.5C 378.025,159.192 378.692,159.692 379.5,160C 377.347,160.099 375.681,160.933 374.5,162.5C 369.06,161.25 364.06,159.25 359.5,156.5C 354.841,154.834 350.508,155.5 346.5,158.5C 341.565,159.368 336.898,161.034 332.5,163.5C 331.571,162.311 331.238,160.978 331.5,159.5C 335.052,136.636 337.385,113.636 338.5,90.5 Z"/></g>
<g><path style="opacity:1" fill="#8c817a" d="M 359.5,156.5 C 355.019,156.425 350.686,157.092 346.5,158.5C 350.508,155.5 354.841,154.834 359.5,156.5 Z"/></g>
<g><path style="opacity:1" fill="#e6c472" d="M 53.5,151.5 C 54.5,152.833 55.5,154.167 56.5,155.5C 57.7439,159.37 58.7439,163.37 59.5,167.5C 59.1667,168.5 58.5,169.167 57.5,169.5C 57.2308,165.526 56.0641,161.86 54,158.5C 53.5034,156.19 53.3367,153.857 53.5,151.5 Z"/></g>
<g><path style="opacity:1" fill="#fcfcfb" d="M 374.5,167.5 C 374.918,168.222 375.584,168.722 376.5,169C 384.677,169.823 392.677,169.656 400.5,168.5C 424.357,162.508 431.191,170.508 421,192.5C 416.894,197.207 411.727,200.041 405.5,201C 399.167,201.667 392.833,201.667 386.5,201C 383.555,200.861 381.221,199.694 379.5,197.5C 377.83,196.129 377.164,194.629 377.5,193C 373.992,193.837 370.825,193.003 368,190.5C 367.138,192.087 366.471,193.754 366,195.5C 365.237,192.937 364.737,192.937 364.5,195.5C 365.385,199.291 367.718,201.791 371.5,203C 370.346,203.914 370.513,204.747 372,205.5C 374.112,203.078 376.112,203.078 378,205.5C 378.906,207.744 379.406,210.077 379.5,212.5C 378.836,216.476 378.503,220.476 378.5,224.5C 376.895,229.104 373.895,232.438 369.5,234.5C 368.378,236.288 368.211,238.288 369,240.5C 370.826,238.926 372.993,238.093 375.5,238C 377.738,235.257 380.405,233.091 383.5,231.5C 382.873,230.583 382.539,229.583 382.5,228.5C 383.224,225.157 384.057,221.824 385,218.5C 385.767,214.442 385.6,210.442 384.5,206.5C 385.333,206.167 386.167,205.833 387,205.5C 394.783,206.967 402.45,206.634 410,204.5C 417.546,213.616 427.046,216.116 438.5,212C 443.333,209.418 448,206.585 452.5,203.5C 452.833,204 453.167,204.5 453.5,205C 451.277,211.393 449.443,217.893 448,224.5C 445.327,231.177 442.661,237.843 440,244.5C 429.81,262.836 414.31,269.669 393.5,265C 388.692,263.801 384.025,262.301 379.5,260.5C 374.731,259.111 369.731,258.444 364.5,258.5C 364.167,258.5 363.833,258.5 363.5,258.5C 361.485,257.076 359.152,256.41 356.5,256.5C 339.724,252.721 327.724,243.054 320.5,227.5C 320.435,224.572 319.768,221.905 318.5,219.5C 318.255,210.792 318.589,202.126 319.5,193.5C 320.474,192.365 321.641,191.365 323,190.5C 323.833,185.5 324.667,180.5 325.5,175.5C 326.59,174.273 327.924,173.44 329.5,173C 328.663,171.989 328.33,170.822 328.5,169.5C 332.787,169.524 336.453,168.19 339.5,165.5C 344.204,162.983 349.204,161.316 354.5,160.5C 359.4,162.61 364.4,164.776 369.5,167C 371.134,167.494 372.801,167.66 374.5,167.5 Z"/></g>
<g><path style="opacity:1" fill="#64564c" d="M 428.5,40.5 C 434.53,41.3467 439.53,44.0134 443.5,48.5C 443.5,49.5 443.5,50.5 443.5,51.5C 443.508,59.296 443.342,67.296 443,75.5C 439.623,88.376 435.457,101.376 430.5,114.5C 430.92,116.326 430.92,118.326 430.5,120.5C 429.326,124.231 427.326,127.565 424.5,130.5C 424.516,132.516 425.516,133.516 427.5,133.5C 430.72,131.98 434.053,130.647 437.5,129.5C 443.502,130.722 449.169,132.722 454.5,135.5C 454.5,136.167 454.833,136.5 455.5,136.5C 455.461,137.583 455.127,138.583 454.5,139.5C 456.828,145.418 457.828,151.418 457.5,157.5C 458.552,157.351 459.552,157.517 460.5,158C 463.41,161.053 466.41,163.886 469.5,166.5C 471.329,177.898 468.162,187.898 460,196.5C 459.295,200.989 458.128,205.322 456.5,209.5C 453.204,214.709 450.871,220.376 449.5,226.5C 449.863,227.183 450.196,227.85 450.5,228.5C 448.166,231.308 446.166,234.474 444.5,238C 444.833,238.333 445.167,238.667 445.5,239C 443.617,243.265 441.617,247.431 439.5,251.5C 439.291,252.922 438.791,254.255 438,255.5C 435.295,258.036 432.795,260.703 430.5,263.5C 429.833,263.5 429.167,263.5 428.5,263.5C 422.936,264.933 417.436,266.6 412,268.5C 406.346,267.264 400.846,267.264 395.5,268.5C 395.167,268.5 394.833,268.5 394.5,268.5C 390.581,266.144 386.414,265.144 382,265.5C 377.727,262.456 373.061,261.456 368,262.5C 364.28,261.291 360.613,259.957 357,258.5C 356.333,261.167 355.667,261.167 355,258.5C 354.329,259.252 353.496,259.586 352.5,259.5C 350.901,259.768 349.568,259.434 348.5,258.5C 346.171,255.018 343.005,252.351 339,250.5C 337.989,251.337 336.822,251.67 335.5,251.5C 332.112,250.381 329.279,248.381 327,245.5C 323.15,241.793 320.317,237.46 318.5,232.5C 317.215,226.646 316.215,220.646 315.5,214.5C 315.547,205.215 315.881,195.882 316.5,186.5C 316.5,185.833 316.5,185.167 316.5,184.5C 317.224,181.157 318.057,177.824 319,174.5C 319.383,173.944 319.883,173.611 320.5,173.5C 321.833,173.167 323.167,172.833 324.5,172.5C 322.204,179.307 320.537,186.307 319.5,193.5C 318.589,202.126 318.255,210.792 318.5,219.5C 318.294,222.495 318.96,225.162 320.5,227.5C 327.724,243.054 339.724,252.721 356.5,256.5C 358.515,257.924 360.848,258.59 363.5,258.5C 363.833,258.5 364.167,258.5 364.5,258.5C 369.269,259.889 374.269,260.556 379.5,260.5C 384.025,262.301 388.692,263.801 393.5,265C 414.31,269.669 429.81,262.836 440,244.5C 442.661,237.843 445.327,231.177 448,224.5C 449.443,217.893 451.277,211.393 453.5,205C 453.167,204.5 452.833,204 452.5,203.5C 448,206.585 443.333,209.418 438.5,212C 427.046,216.116 417.546,213.616 410,204.5C 402.45,206.634 394.783,206.967 387,205.5C 386.167,205.833 385.333,206.167 384.5,206.5C 385.6,210.442 385.767,214.442 385,218.5C 384.057,221.824 383.224,225.157 382.5,228.5C 380.066,231.438 377.399,234.271 374.5,237C 372.866,237.494 371.199,237.66 369.5,237.5C 369.5,236.5 369.5,235.5 369.5,234.5C 373.895,232.438 376.895,229.104 378.5,224.5C 379.268,223.737 379.768,222.737 380,221.5C 380.667,216.5 380.667,211.5 380,206.5C 377.564,201.754 373.731,199.087 368.5,198.5C 368.5,197.167 368.5,195.833 368.5,194.5C 370.527,194.338 372.527,194.505 374.5,195C 376.078,196.094 377.745,196.928 379.5,197.5C 381.221,199.694 383.555,200.861 386.5,201C 392.833,201.667 399.167,201.667 405.5,201C 411.727,200.041 416.894,197.207 421,192.5C 431.191,170.508 424.357,162.508 400.5,168.5C 391.805,168.673 383.138,168.34 374.5,167.5C 372.801,167.66 371.134,167.494 369.5,167C 364.4,164.776 359.4,162.61 354.5,160.5C 349.204,161.316 344.204,162.983 339.5,165.5C 338.391,165.557 337.391,165.89 336.5,166.5C 336.539,165.244 336.039,164.244 335,163.5C 329.616,165.196 328.449,163.862 331.5,159.5C 331.238,160.978 331.571,162.311 332.5,163.5C 336.898,161.034 341.565,159.368 346.5,158.5C 350.686,157.092 355.019,156.425 359.5,156.5C 364.06,159.25 369.06,161.25 374.5,162.5C 375.952,163.302 377.618,163.802 379.5,164C 387.159,164.5 394.826,164.666 402.5,164.5C 403.049,162.099 403.882,159.765 405,157.5C 410,151.833 415,146.167 420,140.5C 427.033,121.436 433.2,102.103 438.5,82.5C 439.924,80.4855 440.59,78.1522 440.5,75.5C 440.5,73.8333 440.5,72.1667 440.5,70.5C 441.647,66.3537 441.814,62.0204 441,57.5C 439.768,54.5883 438.268,51.9216 436.5,49.5C 433.244,46.2097 429.244,44.543 424.5,44.5C 426.042,43.8365 427.709,43.1698 429.5,42.5C 429.137,41.8165 428.804,41.1499 428.5,40.5 Z"/></g>
<g><path style="opacity:1" fill="#faf9f7" d="M 432.5,183.5 C 431.039,179.303 429.705,174.97 428.5,170.5C 427.038,166.876 424.372,164.376 420.5,163C 416.514,162.501 412.514,162.334 408.5,162.5C 408.351,161.448 408.517,160.448 409,159.5C 416.581,150.585 424.748,142.419 433.5,135C 449.513,131.338 456.346,137.838 454,154.5C 448.572,165.432 441.406,175.098 432.5,183.5 Z"/></g>
<g><path style="opacity:1" fill="#f9f8f6" d="M 455.5,160.5 C 461.767,160.933 465.267,164.267 466,170.5C 466.057,177.409 464.057,183.743 460,189.5C 453.463,198.37 444.963,204.536 434.5,208C 429.411,208.826 424.411,208.492 419.5,207C 416.941,205.677 416.275,203.843 417.5,201.5C 433.604,190.911 446.27,177.245 455.5,160.5 Z"/></g>
<g><path style="opacity:1" fill="#ccc5bf" d="M 339.5,165.5 C 336.453,168.19 332.787,169.524 328.5,169.5C 330.936,168.129 333.603,167.129 336.5,166.5C 337.391,165.89 338.391,165.557 339.5,165.5 Z"/></g>
<g><path style="opacity:1" fill="#a59c95" d="M 374.5,167.5 C 383.138,168.34 391.805,168.673 400.5,168.5C 392.677,169.656 384.677,169.823 376.5,169C 375.584,168.722 374.918,168.222 374.5,167.5 Z"/></g>
<g><path style="opacity:1" fill="#765b31" d="M 59.5,167.5 C 60.0967,167.735 60.4301,168.235 60.5,169C 59.4345,172.094 58.7678,175.26 58.5,178.5C 57.5269,176.052 57.1936,173.385 57.5,170.5C 57.5,170.167 57.5,169.833 57.5,169.5C 58.5,169.167 59.1667,168.5 59.5,167.5 Z"/></g>
<g><path style="opacity:1" fill="#c0b9b2" d="M 212.5,165.5 C 214.55,174.451 214.884,183.451 213.5,192.5C 213.683,185.132 213.35,177.799 212.5,170.5C 212.5,168.833 212.5,167.167 212.5,165.5 Z"/></g>
<g><path style="opacity:1" fill="#9a9089" d="M 118.5,172.5 C 118.5,173.5 118.5,174.5 118.5,175.5C 122.702,175.183 126.702,175.517 130.5,176.5C 126.167,176.5 121.833,176.5 117.5,176.5C 117.232,174.901 117.566,173.568 118.5,172.5 Z"/></g>
<g><path style="opacity:1" fill="#eae6e1" d="M 328.5,169.5 C 328.33,170.822 328.663,171.989 329.5,173C 327.924,173.44 326.59,174.273 325.5,175.5C 324.667,180.5 323.833,185.5 323,190.5C 321.641,191.365 320.474,192.365 319.5,193.5C 320.537,186.307 322.204,179.307 324.5,172.5C 324.5,172.167 324.5,171.833 324.5,171.5C 325.605,170.4 326.938,169.733 328.5,169.5 Z"/></g>
<g><path style="opacity:1" fill="#c5bdb7" d="M 428.5,170.5 C 429.705,174.97 431.039,179.303 432.5,183.5C 432.189,184.478 431.522,185.145 430.5,185.5C 429.668,180.508 429.001,175.508 428.5,170.5 Z"/></g>
<g><path style="opacity:1" fill="#d6b568" d="M 57.5,170.5 C 57.1936,173.385 57.5269,176.052 58.5,178.5C 58.5,178.833 58.5,179.167 58.5,179.5C 59.834,185.835 61.1673,192.168 62.5,198.5C 61.472,194.782 59.6386,191.448 57,188.5C 56.6961,182.475 56.8627,176.475 57.5,170.5 Z"/></g>
<g><path style="opacity:1" fill="#694f2a" d="M 58.5,179.5 C 60.7753,184.819 62.7753,190.319 64.5,196C 63.7476,196.671 63.4142,197.504 63.5,198.5C 63.1667,198.5 62.8333,198.5 62.5,198.5C 61.1673,192.168 59.834,185.835 58.5,179.5 Z"/></g>
<g><path style="opacity:1" fill="#aca39d" d="M 63.5,183.5 C 65.0395,185.838 65.7062,188.505 65.5,191.5C 64.2318,189.095 63.5651,186.428 63.5,183.5 Z"/></g>
<g><path style="opacity:1" fill="#f0ece8" d="M 117.5,176.5 C 121.833,176.5 126.167,176.5 130.5,176.5C 141.171,183.863 145.171,193.863 142.5,206.5C 142.11,203.161 141.61,199.827 141,196.5C 137.582,192.152 135.582,187.152 135,181.5C 134.333,180.167 133.667,180.167 133,181.5C 128.974,177.556 124.474,177.556 119.5,181.5C 118.692,181.192 118.025,180.692 117.5,180C 118.171,179.014 118.171,177.847 117.5,176.5 Z"/></g>
<g><path style="opacity:0.498" fill="#a9c287" d="M 289.5,95.5 C 289.657,96.8734 289.49,98.2068 289,99.5C 276.122,123.598 271.789,149.931 276,178.5C 278.302,185.474 280.302,192.474 282,199.5C 282.5,201.333 283.667,202.5 285.5,203C 285.167,203.333 284.833,203.667 284.5,204C 286.287,209.081 288.953,213.581 292.5,217.5C 292.291,218.086 291.957,218.586 291.5,219C 293.679,219.442 294.345,220.442 293.5,222C 296.019,224.525 298.186,227.358 300,230.5C 301.896,232.53 304.063,234.197 306.5,235.5C 307.386,236.325 307.719,237.325 307.5,238.5C 308.552,238.351 309.552,238.517 310.5,239C 313.467,243.964 317.134,248.297 321.5,252C 326.118,254.302 330.452,256.968 334.5,260C 340.116,261.196 345.116,263.529 349.5,267C 355.677,267.834 361.51,269.668 367,272.5C 368.796,271.233 370.629,271.233 372.5,272.5C 373.646,271.855 374.646,271.022 375.5,270C 367.475,265.647 358.808,262.98 349.5,262C 348.29,260.961 347.29,259.794 346.5,258.5C 347.167,258.5 347.833,258.5 348.5,258.5C 349.568,259.434 350.901,259.768 352.5,259.5C 360.641,263.141 369.308,264.974 378.5,265C 379.056,265.383 379.389,265.883 379.5,266.5C 379.62,267.586 380.287,268.253 381.5,268.5C 388.985,270.163 396.485,271.496 404,272.5C 406.939,271.872 409.772,271.205 412.5,270.5C 418.271,268.919 423.605,266.586 428.5,263.5C 429.167,263.5 429.833,263.5 430.5,263.5C 429.71,266.547 427.71,268.214 424.5,268.5C 424.709,269.086 425.043,269.586 425.5,270C 429.313,269.101 432.98,267.601 436.5,265.5C 437.298,265.957 437.631,266.624 437.5,267.5C 407.407,280.374 377.073,280.541 346.5,268C 289.879,239.932 266.046,194.432 275,131.5C 277.956,118.609 282.79,106.609 289.5,95.5 Z"/></g>
<g><path style="opacity:0.476" fill="#edcb6d" d="M 249.5,120.5 C 262.124,161.039 255.458,198.039 229.5,231.5C 230.643,228.316 231.309,224.983 231.5,221.5C 232.675,221.719 233.675,221.386 234.5,220.5C 249.611,197.48 255.611,171.313 252.5,142C 250.886,135.631 249.553,129.131 248.5,122.5C 248.863,121.817 249.196,121.15 249.5,120.5 Z"/></g>
<g><path style="opacity:1" fill="#74592e" d="M 217.5,171.5 C 218.657,179.656 218.823,187.99 218,196.5C 217.768,197.737 217.268,198.737 216.5,199.5C 217.277,190.188 217.61,180.854 217.5,171.5 Z"/></g>
<g><path style="opacity:1" fill="#bfa05d" d="M 62.5,198.5 C 62.8333,198.5 63.1667,198.5 63.5,198.5C 64.9564,204.072 66.9564,209.405 69.5,214.5C 67.8267,213.657 66.66,212.324 66,210.5C 64.1192,206.693 62.9526,202.693 62.5,198.5 Z"/></g>
<g><path style="opacity:1" fill="#f0ece7" d="M 379.5,197.5 C 377.745,196.928 376.078,196.094 374.5,195C 372.527,194.505 370.527,194.338 368.5,194.5C 368.5,195.833 368.5,197.167 368.5,198.5C 373.731,199.087 377.564,201.754 380,206.5C 380.667,211.5 380.667,216.5 380,221.5C 379.768,222.737 379.268,223.737 378.5,224.5C 378.503,220.476 378.836,216.476 379.5,212.5C 379.406,210.077 378.906,207.744 378,205.5C 376.112,203.078 374.112,203.078 372,205.5C 370.513,204.747 370.346,203.914 371.5,203C 367.718,201.791 365.385,199.291 364.5,195.5C 364.737,192.937 365.237,192.937 366,195.5C 366.471,193.754 367.138,192.087 368,190.5C 370.825,193.003 373.992,193.837 377.5,193C 377.164,194.629 377.83,196.129 379.5,197.5 Z"/></g>
<g><path style="opacity:1" fill="#846838" d="M 216.5,200.5 C 216.364,205.267 214.697,209.267 211.5,212.5C 212.648,208.213 214.315,204.213 216.5,200.5 Z"/></g>
<g><path style="opacity:1" fill="#a9c289" d="M 316.5,184.5 C 316.5,185.167 316.5,185.833 316.5,186.5C 314.982,189.534 314.149,192.867 314,196.5C 313.333,204.833 313.333,213.167 314,221.5C 314.824,225.54 316.324,229.207 318.5,232.5C 320.317,237.46 323.15,241.793 327,245.5C 329.279,248.381 332.112,250.381 335.5,251.5C 336.167,252.5 336.833,253.5 337.5,254.5C 331.639,253.364 327.472,250.03 325,244.5C 321.793,243.745 320.293,241.745 320.5,238.5C 317.763,236.673 315.096,234.506 312.5,232C 313.833,230.16 313.666,229.66 312,230.5C 308.989,215.931 309.656,201.264 314,186.5C 314.417,185.244 315.25,184.577 316.5,184.5 Z"/></g>
<g><path style="opacity:1" fill="#5e5b3e" d="M 456.5,209.5 C 456.5,210.833 456.5,212.167 456.5,213.5C 454.652,218.553 452.652,223.553 450.5,228.5C 450.196,227.85 449.863,227.183 449.5,226.5C 450.871,220.376 453.204,214.709 456.5,209.5 Z"/></g>
<g><path style="opacity:1" fill="#acc48b" d="M 443.5,48.5 C 499.789,80.7639 520.956,128.764 507,192.5C 495.132,227.534 472.299,252.534 438.5,267.5C 439.19,262.991 441.856,260.825 446.5,261C 448.196,258.018 450.863,256.684 454.5,257C 455.5,255.333 456.5,253.667 457.5,252C 458.449,251.383 459.282,251.549 460,252.5C 461.167,250 463,248.167 465.5,247C 465.167,246.667 464.833,246.333 464.5,246C 466.473,245.505 468.473,245.338 470.5,245.5C 470.5,244.5 470.5,243.5 470.5,242.5C 472.635,242.853 473.968,242.02 474.5,240C 473.387,238.606 472.053,237.439 470.5,236.5C 471,235.5 471.5,234.5 472,233.5C 475.475,237.689 477.641,237.023 478.5,231.5C 480.737,230.551 483.071,229.884 485.5,229.5C 486.478,226.869 487.478,224.202 488.5,221.5C 489.025,220.808 489.692,220.308 490.5,220C 490.167,219.667 489.833,219.333 489.5,219C 490.579,218.044 491.745,217.211 493,216.5C 494.921,211.662 497.088,206.995 499.5,202.5C 499.523,200.933 499.023,199.6 498,198.5C 496.667,198.5 495.333,198.5 494,198.5C 493.396,200.686 492.23,200.852 490.5,199C 494.433,197.392 498.433,196.726 502.5,197C 508.163,179.465 509.497,161.131 506.5,142C 506.651,139.803 506.985,137.636 507.5,135.5C 505.88,129.088 503.88,122.421 501.5,115.5C 501.709,114.914 502.043,114.414 502.5,114C 493.305,94.4198 480.971,77.9198 465.5,64.5C 464.5,63.1667 463.5,63.1667 462.5,64.5C 458.662,58.0979 452.995,54.4312 445.5,53.5C 445.5,54.5 445.5,55.5 445.5,56.5C 444.463,55.0697 443.796,53.403 443.5,51.5C 443.5,50.5 443.5,49.5 443.5,48.5 Z"/></g>
<g><path style="opacity:1" fill="#605d3f" d="M 316.5,186.5 C 315.881,195.882 315.547,205.215 315.5,214.5C 316.215,220.646 317.215,226.646 318.5,232.5C 316.324,229.207 314.824,225.54 314,221.5C 313.333,213.167 313.333,204.833 314,196.5C 314.149,192.867 314.982,189.534 316.5,186.5 Z"/></g>
<g><path style="opacity:1" fill="#70562e" d="M 211.5,212.5 C 209.159,216.165 206.493,219.499 203.5,222.5C 201.184,223.806 198.85,225.139 196.5,226.5C 200.456,222.207 204.456,217.874 208.5,213.5C 209.325,212.614 210.325,212.281 211.5,212.5 Z"/></g>
<g><path style="opacity:1" fill="#978d86" d="M 318.5,219.5 C 319.768,221.905 320.435,224.572 320.5,227.5C 318.96,225.162 318.294,222.495 318.5,219.5 Z"/></g>
<g><path style="opacity:1" fill="#71572f" d="M 73.5,220.5 C 75.6345,221.703 76.9678,223.537 77.5,226C 81.2214,228.275 83.8881,231.442 85.5,235.5C 80.8374,231.894 76.8374,227.56 73.5,222.5C 73.5,221.833 73.5,221.167 73.5,220.5 Z"/></g>
<g><path style="opacity:1" fill="#73582f" d="M 195.5,226.5 C 192.66,228.915 189.327,230.248 185.5,230.5C 188.1,227.54 191.433,226.206 195.5,226.5 Z"/></g>
<g><path style="opacity:1" fill="#5c573b" d="M 450.5,228.5 C 449.365,233.236 448.032,237.903 446.5,242.5C 444.408,245.681 442.075,248.681 439.5,251.5C 441.617,247.431 443.617,243.265 445.5,239C 445.167,238.667 444.833,238.333 444.5,238C 446.166,234.474 448.166,231.308 450.5,228.5 Z"/></g>
<g><path style="opacity:1" fill="#dbd6d1" d="M 382.5,228.5 C 382.539,229.583 382.873,230.583 383.5,231.5C 380.405,233.091 377.738,235.257 375.5,238C 372.993,238.093 370.826,238.926 369,240.5C 368.211,238.288 368.378,236.288 369.5,234.5C 369.5,235.5 369.5,236.5 369.5,237.5C 371.199,237.66 372.866,237.494 374.5,237C 377.399,234.271 380.066,231.438 382.5,228.5 Z"/></g>
<g><path style="opacity:1" fill="#a8bc89" d="M 456.5,213.5 C 456.083,217.835 455.583,222.168 455,226.5C 454.333,227.833 453.333,228.833 452,229.5C 452.447,233.222 451.78,236.889 450,240.5C 449.184,241.823 448.017,242.489 446.5,242.5C 448.032,237.903 449.365,233.236 450.5,228.5C 452.652,223.553 454.652,218.553 456.5,213.5 Z"/></g>
<g><path style="opacity:1" fill="#dfbe6f" d="M 73.5,222.5 C 76.8374,227.56 80.8374,231.894 85.5,235.5C 86.1667,235.833 86.8333,236.167 87.5,236.5C 89.7508,238.084 91.7508,240.084 93.5,242.5C 89.5567,241.136 85.8901,239.302 82.5,237C 81.2367,234.614 79.4033,232.781 77,231.5C 75.2776,228.721 74.1109,225.721 73.5,222.5 Z"/></g>
<g><path style="opacity:1" fill="#f1cb6f" d="M 203.5,222.5 C 203.461,223.583 203.127,224.583 202.5,225.5C 194.764,230.087 186.764,234.253 178.5,238C 169.442,239.682 160.442,241.516 151.5,243.5C 151.842,242.662 152.508,242.328 153.5,242.5C 160.822,240.783 167.822,238.45 174.5,235.5C 178.787,235.524 182.453,234.19 185.5,231.5C 185.5,231.167 185.5,230.833 185.5,230.5C 189.327,230.248 192.66,228.915 195.5,226.5C 195.833,226.5 196.167,226.5 196.5,226.5C 198.85,225.139 201.184,223.806 203.5,222.5 Z"/></g>
<g><path style="opacity:1" fill="#605d40" d="M 348.5,258.5 C 347.833,258.5 347.167,258.5 346.5,258.5C 343.471,257.16 340.471,255.827 337.5,254.5C 336.833,253.5 336.167,252.5 335.5,251.5C 336.822,251.67 337.989,251.337 339,250.5C 343.005,252.351 346.171,255.018 348.5,258.5 Z"/></g>
<g><path style="opacity:1" fill="#a0b180" d="M 446.5,242.5 C 446.196,245.372 446.029,248.039 446,250.5C 444,251.833 442,253.167 440,254.5C 438.292,259.042 435.125,262.042 430.5,263.5C 432.795,260.703 435.295,258.036 438,255.5C 438.791,254.255 439.291,252.922 439.5,251.5C 442.075,248.681 444.408,245.681 446.5,242.5 Z"/></g>
<g><path style="opacity:1" fill="#afa6a0" d="M 356.5,256.5 C 359.152,256.41 361.485,257.076 363.5,258.5C 360.848,258.59 358.515,257.924 356.5,256.5 Z"/></g>
<g><path style="opacity:1" fill="#5e5a3d" d="M 394.5,268.5 C 389.485,267.915 384.485,267.248 379.5,266.5C 379.389,265.883 379.056,265.383 378.5,265C 369.308,264.974 360.641,263.141 352.5,259.5C 353.496,259.586 354.329,259.252 355,258.5C 355.667,261.167 356.333,261.167 357,258.5C 360.613,259.957 364.28,261.291 368,262.5C 373.061,261.456 377.727,262.456 382,265.5C 386.414,265.144 390.581,266.144 394.5,268.5 Z"/></g>
<g><path style="opacity:1" fill="#cac3bd" d="M 364.5,258.5 C 369.731,258.444 374.731,259.111 379.5,260.5C 374.269,260.556 369.269,259.889 364.5,258.5 Z"/></g>
<g><path style="opacity:0.486" fill="#b1bc83" d="M 283.5,264.5 C 285.698,264.875 287.698,265.542 289.5,266.5C 287.833,266.5 286.167,266.5 284.5,266.5C 283.662,266.158 283.328,265.492 283.5,264.5 Z"/></g>
<g><path style="opacity:1" fill="#f1afbd" d="M 257.5,268.5 C 257.416,271.327 256.75,273.994 255.5,276.5C 253.909,280.204 253.076,284.204 253,288.5C 252.667,288.167 252.333,287.833 252,287.5C 250.997,307.739 250.164,328.072 249.5,348.5C 249.5,350.5 249.5,352.5 249.5,354.5C 248.674,359.316 248.174,364.316 248,369.5C 247.722,368.584 247.222,367.918 246.5,367.5C 242.734,354.188 238.901,340.855 235,327.5C 230.404,316.545 225.904,305.545 221.5,294.5C 221.181,288.691 218.181,285.191 212.5,284C 212.493,282.417 212.826,280.751 213.5,279C 222.047,274.703 231.047,271.37 240.5,269C 245.225,268.488 249.891,267.655 254.5,266.5C 256.038,266.453 257.038,267.12 257.5,268.5 Z"/></g>
<g><path style="opacity:1" fill="#a1b281" d="M 379.5,266.5 C 384.485,267.248 389.485,267.915 394.5,268.5C 394.833,268.5 395.167,268.5 395.5,268.5C 400.945,270.345 406.612,271.012 412.5,270.5C 409.772,271.205 406.939,271.872 404,272.5C 396.485,271.496 388.985,270.163 381.5,268.5C 380.287,268.253 379.62,267.586 379.5,266.5 Z"/></g>
<g><path style="opacity:0.525" fill="#ebca6d" d="M 229.5,231.5 C 208.948,256.951 182.281,271.784 149.5,276C 101.82,279.405 63.987,261.905 36,223.5C 30.7678,215.702 26.6012,207.369 23.5,198.5C 24.2216,198.082 24.7216,197.416 25,196.5C 29.6181,208.406 35.7848,219.406 43.5,229.5C 50.1949,235.058 56.1949,241.225 61.5,248C 62.5,248.333 63.5,248.667 64.5,249C 67.0027,252.18 70.0027,254.847 73.5,257C 79.1108,258.135 83.7774,260.802 87.5,265C 95.4697,266.493 103.136,268.827 110.5,272C 114.894,272.303 119.227,272.97 123.5,274C 166.23,276.41 200.896,261.91 227.5,230.5C 228.183,230.863 228.85,231.196 229.5,231.5 Z"/></g>
<g><path style="opacity:1" fill="#d3b36a" d="M 132.5,247.5 C 129.114,248.97 125.447,249.637 121.5,249.5C 118.975,249.497 116.641,249.163 114.5,248.5C 120.516,248.407 126.516,248.074 132.5,247.5 Z"/></g>
<g><path style="opacity:1" fill="#745930" d="M 87.5,236.5 C 92.3369,239.131 97.3369,241.631 102.5,244C 109.719,245.804 117.052,246.638 124.5,246.5C 133.189,245.732 141.855,244.232 150.5,242C 154.587,238.917 158.92,237.417 163.5,237.5C 159.822,238.672 156.489,240.339 153.5,242.5C 152.508,242.328 151.842,242.662 151.5,243.5C 145.124,244.728 138.791,246.062 132.5,247.5C 126.516,248.074 120.516,248.407 114.5,248.5C 107.161,247.503 100.161,245.503 93.5,242.5C 91.7508,240.084 89.7508,238.084 87.5,236.5 Z"/></g>
<g><path style="opacity:1" fill="#d5b46b" d="M 174.5,235.5 C 167.822,238.45 160.822,240.783 153.5,242.5C 156.489,240.339 159.822,238.672 163.5,237.5C 164.167,237.167 164.833,236.833 165.5,236.5C 168.518,236.296 171.518,235.963 174.5,235.5 Z"/></g>
<g><path style="opacity:1" fill="#c0a05d" d="M 185.5,231.5 C 182.453,234.19 178.787,235.524 174.5,235.5C 177.939,233.796 181.605,232.462 185.5,231.5 Z"/></g>
<g><path style="opacity:1" fill="#877c74" d="M 175.5,230.5 C 173.924,231.143 172.59,232.143 171.5,233.5C 168.391,233.264 165.391,233.597 162.5,234.5C 162.62,233.414 163.287,232.747 164.5,232.5C 168.13,231.574 171.797,230.907 175.5,230.5 Z"/></g>
<g><path style="opacity:1" fill="#6a502a" d="M 185.5,230.5 C 185.5,230.833 185.5,231.167 185.5,231.5C 181.605,232.462 177.939,233.796 174.5,235.5C 171.518,235.963 168.518,236.296 165.5,236.5C 167.371,235.203 169.371,234.203 171.5,233.5C 176.094,232.185 180.761,231.185 185.5,230.5 Z"/></g>
<g><path style="opacity:1" fill="#fcfcfb" d="M 278.5,269.5 C 278.586,270.496 278.252,271.329 277.5,272C 281.088,273.965 282.088,276.799 280.5,280.5C 282.542,281.503 282.875,282.837 281.5,284.5C 283.283,286.845 284.283,289.512 284.5,292.5C 284.273,305.289 283.939,317.789 283.5,330C 285.806,337.833 286.139,345.5 284.5,353C 285.832,363.57 286.832,374.07 287.5,384.5C 287.833,384.5 288.167,384.5 288.5,384.5C 292.25,385.543 294.25,383.876 294.5,379.5C 301.087,364.974 306.587,349.974 311,334.5C 316.437,321.165 322.437,308.165 329,295.5C 332.167,292.333 335.333,289.167 338.5,286C 345.896,283.927 350.896,286.427 353.5,293.5C 353.5,294.167 353.5,294.833 353.5,295.5C 353.663,300.547 353.329,305.547 352.5,310.5C 350.862,314.042 348.862,317.542 346.5,321C 346.735,321.873 347.069,322.707 347.5,323.5C 345.851,324.148 344.518,325.148 343.5,326.5C 344.223,328.164 343.89,329.831 342.5,331.5C 342.846,332.696 343.346,332.696 344,331.5C 343.854,336.949 341.021,340.282 335.5,341.5C 336.544,342.623 337.21,343.956 337.5,345.5C 336.183,349.787 335.183,354.12 334.5,358.5C 330.81,370.205 326.31,381.538 321,392.5C 318.616,399.843 320.782,401.343 327.5,397C 332.878,392.651 338.545,388.818 344.5,385.5C 346.199,385.66 347.866,385.494 349.5,385C 350.147,383.391 350.98,381.891 352,380.5C 353.011,381.337 354.178,381.67 355.5,381.5C 355.5,380.5 355.5,379.5 355.5,378.5C 357.484,378.617 359.15,377.95 360.5,376.5C 360.94,375.302 361.273,374.135 361.5,373C 363.833,372.667 366.167,372.333 368.5,372C 369.626,368.927 371.293,365.761 373.5,362.5C 377.302,357.956 381.968,356.79 387.5,359C 389.456,362.595 389.956,366.428 389,370.5C 384.251,381.083 377.417,390.083 368.5,397.5C 366.65,396.128 365.317,396.628 364.5,399C 362.129,399.735 359.795,400.568 357.5,401.5C 357.868,403.506 357.368,405.506 356,407.5C 355.692,406.692 355.192,406.025 354.5,405.5C 353.41,406.391 353.41,407.391 354.5,408.5C 349.078,411.059 344.244,414.393 340,418.5C 339.127,418.265 338.293,417.931 337.5,417.5C 336.365,419.707 335.699,422.04 335.5,424.5C 332.45,423.923 330.45,425.09 329.5,428C 330.167,428.333 330.833,428.667 331.5,429C 328.634,432.377 326.968,436.044 326.5,440C 327.586,444.444 327.586,448.944 326.5,453.5C 322.54,473.124 310.54,483.457 290.5,484.5C 274.505,483.941 258.505,483.441 242.5,483C 241.167,482.333 240.167,481.333 239.5,480C 235.892,478.339 232.225,478.005 228.5,479C 227.44,477.702 226.274,476.535 225,475.5C 224.228,475.645 223.561,475.978 223,476.5C 221.007,475.086 218.84,474.086 216.5,473.5C 214.147,471.899 211.98,469.899 210,467.5C 205.996,458.119 201.996,448.785 198,439.5C 191.93,432.926 185.43,426.926 178.5,421.5C 170.508,414.008 162.675,406.342 155,398.5C 153.354,396.391 152.188,394.057 151.5,391.5C 151.051,389.023 151.717,387.023 153.5,385.5C 155.156,387.022 156.323,386.689 157,384.5C 157.667,385.167 158.333,385.833 159,386.5C 161.878,382.837 164.544,382.837 167,386.5C 168.449,385.386 169.783,384.386 171,383.5C 171.308,384.308 171.808,384.975 172.5,385.5C 175.539,386.569 178.539,387.735 181.5,389C 180.465,390.507 180.632,392.007 182,393.5C 182.388,392.572 183.055,391.905 184,391.5C 185.138,391.989 186.305,392.322 187.5,392.5C 195.148,398.476 202.815,404.476 210.5,410.5C 210.611,411.117 210.944,411.617 211.5,412C 217.825,412.5 224.158,412.666 230.5,412.5C 243.652,414.816 252.819,422.149 258,434.5C 258.495,436.473 258.662,438.473 258.5,440.5C 259.833,440.5 261.167,440.5 262.5,440.5C 262.558,434.732 261.058,429.399 258,424.5C 254.088,420.147 249.922,416.147 245.5,412.5C 244.32,410.986 243.32,409.319 242.5,407.5C 241.167,406.167 239.833,406.167 238.5,407.5C 235.506,405.753 232.339,404.42 229,403.5C 224.572,403.66 220.572,403.66 217,403.5C 215.983,406.028 214.816,406.028 213.5,403.5C 212.832,400.694 212.166,398.028 211.5,395.5C 210.913,389.963 209.913,384.63 208.5,379.5C 204.765,355.229 199.765,331.229 193.5,307.5C 192.8,303.202 192.467,298.869 192.5,294.5C 195.303,284.679 200.969,282.845 209.5,289C 220.384,301.936 227.717,316.769 231.5,333.5C 232.057,338.165 233.39,342.498 235.5,346.5C 239.897,358.532 243.397,370.865 246,383.5C 249.803,386.439 252.136,385.439 253,380.5C 253.266,370.141 253.766,359.808 254.5,349.5C 256.239,340.059 256.905,330.393 256.5,320.5C 256.5,317.5 256.5,314.5 256.5,311.5C 257.996,305.395 258.663,299.062 258.5,292.5C 258.183,282.768 260.516,273.768 265.5,265.5C 270.901,263.635 275.235,264.968 278.5,269.5 Z"/></g>
<g><path style="opacity:1" fill="#5c573b" d="M 428.5,263.5 C 423.605,266.586 418.271,268.919 412.5,270.5C 406.612,271.012 400.945,270.345 395.5,268.5C 400.846,267.264 406.346,267.264 412,268.5C 417.436,266.6 422.936,264.933 428.5,263.5 Z"/></g>
<g><path style="opacity:1" fill="#f0afbc" d="M 284.5,266.5 C 286.167,266.5 287.833,266.5 289.5,266.5C 290.5,266.5 291.5,266.5 292.5,266.5C 292.082,267.222 291.416,267.722 290.5,268C 303.045,270.958 315.045,275.292 326.5,281C 326.167,281.333 325.833,281.667 325.5,282C 328.207,282.395 330.873,282.895 333.5,283.5C 330.759,287.474 327.592,291.14 324,294.5C 311.97,319.243 302.137,344.91 294.5,371.5C 293.883,371.611 293.383,371.944 293,372.5C 292.832,346.663 292.332,320.997 291.5,295.5C 291.813,291.958 291.479,288.625 290.5,285.5C 290.326,282.126 289.826,278.793 289,275.5C 287.473,272.447 285.973,269.447 284.5,266.5 Z"/></g>
<g><path style="opacity:0.675" fill="#e2b2b4" d="M 261.5,262.5 C 260.551,264.777 259.218,266.777 257.5,268.5C 257.038,267.12 256.038,266.453 254.5,266.5C 249.891,267.655 245.225,268.488 240.5,269C 231.047,271.37 222.047,274.703 213.5,279C 212.826,280.751 212.493,282.417 212.5,284C 218.181,285.191 221.181,288.691 221.5,294.5C 217.395,288.736 212.062,284.403 205.5,281.5C 204.702,281.043 204.369,280.376 204.5,279.5C 213.832,276.11 223.166,272.61 232.5,269C 242.178,266.692 251.845,264.525 261.5,262.5 Z"/></g>
<g><path style="opacity:0.675" fill="#e3b7b6" d="M 292.5,266.5 C 305.662,269.58 318.328,274.08 330.5,280C 333.365,280.183 336.031,280.683 338.5,281.5C 336.973,281.427 335.973,282.094 335.5,283.5C 334.833,283.5 334.167,283.5 333.5,283.5C 330.873,282.895 328.207,282.395 325.5,282C 325.833,281.667 326.167,281.333 326.5,281C 315.045,275.292 303.045,270.958 290.5,268C 291.416,267.722 292.082,267.222 292.5,266.5 Z"/></g>
<g><path style="opacity:1" fill="#645148" d="M 283.5,264.5 C 283.328,265.492 283.662,266.158 284.5,266.5C 285.973,269.447 287.473,272.447 289,275.5C 289.826,278.793 290.326,282.126 290.5,285.5C 290.694,317.001 290.361,348.334 289.5,379.5C 291.167,379.5 292.833,379.5 294.5,379.5C 294.25,383.876 292.25,385.543 288.5,384.5C 288.587,351.99 287.92,319.656 286.5,287.5C 286.467,280.118 283.801,274.118 278.5,269.5C 275.235,264.968 270.901,263.635 265.5,265.5C 260.516,273.768 258.183,282.768 258.5,292.5C 257.121,298.617 256.454,304.95 256.5,311.5C 256.5,314.5 256.5,317.5 256.5,320.5C 255.539,329.995 254.872,339.662 254.5,349.5C 253.766,359.808 253.266,370.141 253,380.5C 252.136,385.439 249.803,386.439 246,383.5C 243.397,370.865 239.897,358.532 235.5,346.5C 234.943,341.835 233.61,337.502 231.5,333.5C 227.717,316.769 220.384,301.936 209.5,289C 200.969,282.845 195.303,284.679 192.5,294.5C 191.355,298.311 191.188,302.311 192,306.5C 192.383,307.056 192.883,307.389 193.5,307.5C 199.765,331.229 204.765,355.229 208.5,379.5C 208.257,387.137 209.257,394.471 211.5,401.5C 211.141,403.766 211.808,405.599 213.5,407C 224.659,406.309 235.326,408.142 245.5,412.5C 249.922,416.147 254.088,420.147 258,424.5C 261.058,429.399 262.558,434.732 262.5,440.5C 261.167,440.5 259.833,440.5 258.5,440.5C 258.662,438.473 258.495,436.473 258,434.5C 252.819,422.149 243.652,414.816 230.5,412.5C 223.966,411.761 217.299,411.094 210.5,410.5C 202.815,404.476 195.148,398.476 187.5,392.5C 180.77,385.719 172.603,381.719 163,380.5C 158.19,380.239 154.19,381.905 151,385.5C 150.211,387.712 150.378,389.712 151.5,391.5C 152.188,394.057 153.354,396.391 155,398.5C 162.675,406.342 170.508,414.008 178.5,421.5C 174.219,421.563 171.552,419.563 170.5,415.5C 167.833,414.5 165.167,413.5 162.5,412.5C 158.14,408.806 154.14,404.806 150.5,400.5C 150.13,397.733 148.796,395.733 146.5,394.5C 145.527,392.052 145.194,389.385 145.5,386.5C 146.308,384.78 147.308,383.113 148.5,381.5C 152.983,377.589 158.316,375.922 164.5,376.5C 167.924,376.482 171.257,376.982 174.5,378C 177.504,380.496 180.838,382.329 184.5,383.5C 188.063,386.888 192.063,389.721 196.5,392C 199.306,395.473 202.473,398.64 206,401.5C 205.916,389.742 204.75,378.075 202.5,366.5C 202.024,363.073 202.024,359.74 202.5,356.5C 201.428,348.72 199.428,341.22 196.5,334C 196.963,329.202 196.463,324.368 195,319.5C 194.667,319.833 194.333,320.167 194,320.5C 193.8,318.68 192.966,317.347 191.5,316.5C 190.833,315.167 190.167,313.833 189.5,312.5C 188.274,306.915 187.607,301.248 187.5,295.5C 187.5,294.5 187.5,293.5 187.5,292.5C 189.946,284.096 195.613,279.763 204.5,279.5C 204.369,280.376 204.702,281.043 205.5,281.5C 212.062,284.403 217.395,288.736 221.5,294.5C 225.904,305.545 230.404,316.545 235,327.5C 238.901,340.855 242.734,354.188 246.5,367.5C 246.116,369.665 246.783,371.332 248.5,372.5C 249.496,366.537 249.829,360.537 249.5,354.5C 249.5,352.5 249.5,350.5 249.5,348.5C 250.167,348.5 250.5,348.167 250.5,347.5C 251.309,345.708 251.809,343.708 252,341.5C 252.746,327.173 253.246,312.84 253.5,298.5C 253.801,291.129 254.467,283.795 255.5,276.5C 256.75,273.994 257.416,271.327 257.5,268.5C 259.218,266.777 260.551,264.777 261.5,262.5C 263.756,261.077 266.256,260.41 269,260.5C 274.043,261.126 278.877,262.46 283.5,264.5 Z"/></g>
<g><path style="opacity:1" fill="#daa7ac" d="M 255.5,276.5 C 254.467,283.795 253.801,291.129 253.5,298.5C 252.128,314.659 251.128,330.993 250.5,347.5C 250.5,348.167 250.167,348.5 249.5,348.5C 250.164,328.072 250.997,307.739 252,287.5C 252.333,287.833 252.667,288.167 253,288.5C 253.076,284.204 253.909,280.204 255.5,276.5 Z"/></g>
<g><path style="opacity:1" fill="#f4f1ee" d="M 278.5,269.5 C 283.801,274.118 286.467,280.118 286.5,287.5C 286.578,319.837 286.911,352.17 287.5,384.5C 286.832,374.07 285.832,363.57 284.5,353C 286.139,345.5 285.806,337.833 283.5,330C 283.939,317.789 284.273,305.289 284.5,292.5C 284.283,289.512 283.283,286.845 281.5,284.5C 282.875,282.837 282.542,281.503 280.5,280.5C 282.088,276.799 281.088,273.965 277.5,272C 278.252,271.329 278.586,270.496 278.5,269.5 Z"/></g>
<g><path style="opacity:1" fill="#5a4b3f" d="M 338.5,281.5 C 350.319,279.654 356.986,284.654 358.5,296.5C 357.541,299.139 356.374,301.806 355,304.5C 354.819,301.305 354.319,298.305 353.5,295.5C 353.5,294.833 353.5,294.167 353.5,293.5C 353.66,291.801 353.494,290.134 353,288.5C 351.114,287.07 349.447,285.403 348,283.5C 344.667,284.833 341.333,284.833 338,283.5C 336.608,285.842 335.775,285.842 335.5,283.5C 335.973,282.094 336.973,281.427 338.5,281.5 Z"/></g>
<g><path style="opacity:0.486" fill="#afbe85" d="M 187.5,292.5 C 187.5,293.5 187.5,294.5 187.5,295.5C 186.167,296.5 184.833,297.5 183.5,298.5C 184.449,296.223 185.782,294.223 187.5,292.5 Z"/></g>
<g><path style="opacity:0.498" fill="#a7bd83" d="M 359.5,299.5 C 360.234,300.708 360.567,302.041 360.5,303.5C 359.833,303.167 359.167,302.833 358.5,302.5C 358.263,301.209 358.596,300.209 359.5,299.5 Z"/></g>
<g><path style="opacity:1" fill="#8a7f78" d="M 192.5,294.5 C 192.467,298.869 192.8,303.202 193.5,307.5C 192.883,307.389 192.383,307.056 192,306.5C 191.188,302.311 191.355,298.311 192.5,294.5 Z"/></g>
<g><path style="opacity:1" fill="#9c928b" d="M 258.5,292.5 C 258.663,299.062 257.996,305.395 256.5,311.5C 256.454,304.95 257.121,298.617 258.5,292.5 Z"/></g>
<g><path style="opacity:1" fill="#f0aebc" d="M 358.5,305.5 C 358.961,307.55 359.628,309.55 360.5,311.5C 363.8,316.477 367.133,321.477 370.5,326.5C 371.37,331.878 373.87,336.212 378,339.5C 378.14,343.932 378.973,348.266 380.5,352.5C 377.518,352.963 374.518,353.296 371.5,353.5C 371.169,355.322 370.502,356.989 369.5,358.5C 365.235,362.638 360.569,366.305 355.5,369.5C 352.927,370.493 350.26,371.326 347.5,372C 346.228,373.307 345.228,374.807 344.5,376.5C 343.914,376.291 343.414,375.957 343,375.5C 342.059,377.772 340.726,379.772 339,381.5C 338.5,381 338,380.5 337.5,380C 337.796,376.691 338.296,373.191 339,369.5C 340.131,370.604 340.965,370.271 341.5,368.5C 340.757,366.362 340.09,364.196 339.5,362C 341.398,359.139 342.398,355.973 342.5,352.5C 349.453,337.305 354.787,321.638 358.5,305.5 Z"/></g>
<g><path style="opacity:1" fill="#f2afbe" d="M 187.5,295.5 C 187.607,301.248 188.274,306.915 189.5,312.5C 189.335,315.85 189.502,319.183 190,322.5C 190.939,327.054 192.106,331.554 193.5,336C 191.842,339.176 192.842,340.676 196.5,340.5C 196.5,340.833 196.5,341.167 196.5,341.5C 196.774,352.09 198.441,362.423 201.5,372.5C 200.975,375.188 199.975,376.855 198.5,377.5C 199.44,380.132 199.607,382.798 199,385.5C 198.261,386.574 197.261,387.241 196,387.5C 193.461,386.041 191.128,384.374 189,382.5C 187.467,382.773 185.967,383.106 184.5,383.5C 184.047,382.542 183.381,381.708 182.5,381C 182.833,380.667 183.167,380.333 183.5,380C 181.779,379.261 180.113,378.427 178.5,377.5C 178.833,376.833 179.167,376.167 179.5,375.5C 177.833,374.333 176.167,373.167 174.5,372C 172.066,371.667 171.066,372.834 171.5,375.5C 165.121,375.516 158.788,375.682 152.5,376C 151.196,375.196 150.529,374.029 150.5,372.5C 150.461,367.502 151.295,362.502 153,357.5C 153.75,356.874 154.584,356.374 155.5,356C 155.167,355.667 154.833,355.333 154.5,355C 155.574,354.261 156.241,353.261 156.5,352C 155.541,349.88 155.374,347.713 156,345.5C 160.003,336.797 164.003,328.13 168,319.5C 171.607,318.093 173.607,315.426 174,311.5C 175.667,310.167 177.333,308.833 179,307.5C 180.773,304.582 182.273,301.582 183.5,298.5C 184.833,297.5 186.167,296.5 187.5,295.5 Z"/></g>
<g><path style="opacity:1" fill="#855f5c" d="M 253.5,298.5 C 253.246,312.84 252.746,327.173 252,341.5C 251.809,343.708 251.309,345.708 250.5,347.5C 251.128,330.993 252.128,314.659 253.5,298.5 Z"/></g>
<g><path style="opacity:1" fill="#694c45" d="M 191.5,316.5 C 192.966,317.347 193.8,318.68 194,320.5C 194.333,320.167 194.667,319.833 195,319.5C 196.463,324.368 196.963,329.202 196.5,334C 199.428,341.22 201.428,348.72 202.5,356.5C 202.024,359.74 202.024,363.073 202.5,366.5C 200.5,358.162 198.5,349.828 196.5,341.5C 196.5,341.167 196.5,340.833 196.5,340.5C 195.048,332.455 193.381,324.455 191.5,316.5 Z"/></g>
<g><path style="opacity:0.671" fill="#e3b2b6" d="M 183.5,298.5 C 182.273,301.582 180.773,304.582 179,307.5C 177.333,308.833 175.667,310.167 174,311.5C 173.607,315.426 171.607,318.093 168,319.5C 164.003,328.13 160.003,336.797 156,345.5C 155.374,347.713 155.541,349.88 156.5,352C 156.241,353.261 155.574,354.261 154.5,355C 154.833,355.333 155.167,355.667 155.5,356C 154.584,356.374 153.75,356.874 153,357.5C 151.295,362.502 150.461,367.502 150.5,372.5C 150.529,374.029 151.196,375.196 152.5,376C 158.788,375.682 165.121,375.516 171.5,375.5C 171.066,372.834 172.066,371.667 174.5,372C 176.167,373.167 177.833,374.333 179.5,375.5C 179.167,376.167 178.833,376.833 178.5,377.5C 180.113,378.427 181.779,379.261 183.5,380C 183.167,380.333 182.833,380.667 182.5,381C 183.381,381.708 184.047,382.542 184.5,383.5C 180.838,382.329 177.504,380.496 174.5,378C 171.257,376.982 167.924,376.482 164.5,376.5C 158.316,375.922 152.983,377.589 148.5,381.5C 149.481,376.871 149.648,372.204 149,367.5C 148.722,368.416 148.222,369.082 147.5,369.5C 151.554,341.586 163.554,317.919 183.5,298.5 Z"/></g>
<g><path style="opacity:1" fill="#685148" d="M 333.5,283.5 C 334.167,283.5 334.833,283.5 335.5,283.5C 335.775,285.842 336.608,285.842 338,283.5C 341.333,284.833 344.667,284.833 348,283.5C 349.447,285.403 351.114,287.07 353,288.5C 353.494,290.134 353.66,291.801 353.5,293.5C 350.896,286.427 345.896,283.927 338.5,286C 335.333,289.167 332.167,292.333 329,295.5C 322.437,308.165 316.437,321.165 311,334.5C 306.587,349.974 301.087,364.974 294.5,379.5C 292.833,379.5 291.167,379.5 289.5,379.5C 290.361,348.334 290.694,317.001 290.5,285.5C 291.479,288.625 291.813,291.958 291.5,295.5C 291.167,321.842 291.5,348.175 292.5,374.5C 293.919,373.995 294.585,372.995 294.5,371.5C 302.137,344.91 311.97,319.243 324,294.5C 327.592,291.14 330.759,287.474 333.5,283.5 Z"/></g>
<g><path style="opacity:1" fill="#b98b8c" d="M 291.5,295.5 C 292.332,320.997 292.832,346.663 293,372.5C 293.383,371.944 293.883,371.611 294.5,371.5C 294.585,372.995 293.919,373.995 292.5,374.5C 291.5,348.175 291.167,321.842 291.5,295.5 Z"/></g>
<g><path style="opacity:1" fill="#b9b0aa" d="M 231.5,333.5 C 233.61,337.502 234.943,341.835 235.5,346.5C 233.39,342.498 232.057,338.165 231.5,333.5 Z"/></g>
<g><path style="opacity:1" fill="#d6a4a8" d="M 189.5,312.5 C 190.167,313.833 190.833,315.167 191.5,316.5C 193.381,324.455 195.048,332.455 196.5,340.5C 192.842,340.676 191.842,339.176 193.5,336C 192.106,331.554 190.939,327.054 190,322.5C 189.502,319.183 189.335,315.85 189.5,312.5 Z"/></g>
<g><path style="opacity:1" fill="#b8b0a9" d="M 256.5,320.5 C 256.905,330.393 256.239,340.059 254.5,349.5C 254.872,339.662 255.539,329.995 256.5,320.5 Z"/></g>
<g><path style="opacity:1" fill="#eeebe6" d="M 352.5,310.5 C 348.627,327.473 342.627,343.473 334.5,358.5C 335.183,354.12 336.183,349.787 337.5,345.5C 337.21,343.956 336.544,342.623 335.5,341.5C 341.021,340.282 343.854,336.949 344,331.5C 343.346,332.696 342.846,332.696 342.5,331.5C 343.89,329.831 344.223,328.164 343.5,326.5C 344.518,325.148 345.851,324.148 347.5,323.5C 347.069,322.707 346.735,321.873 346.5,321C 348.862,317.542 350.862,314.042 352.5,310.5 Z"/></g>
<g><path style="opacity:0.671" fill="#e4b5ba" d="M 358.5,302.5 C 359.167,302.833 359.833,303.167 360.5,303.5C 364.373,310.571 368.54,317.571 373,324.5C 377.641,332.759 381.308,341.425 384,350.5C 385.145,351.636 386.312,352.636 387.5,353.5C 380.801,353.006 374.801,354.672 369.5,358.5C 370.502,356.989 371.169,355.322 371.5,353.5C 374.518,353.296 377.518,352.963 380.5,352.5C 378.973,348.266 378.14,343.932 378,339.5C 373.87,336.212 371.37,331.878 370.5,326.5C 367.133,321.477 363.8,316.477 360.5,311.5C 359.628,309.55 358.961,307.55 358.5,305.5C 358.5,304.5 358.5,303.5 358.5,302.5 Z"/></g>
<g><path style="opacity:1" fill="#897e77" d="M 286.5,287.5 C 287.92,319.656 288.587,351.99 288.5,384.5C 288.167,384.5 287.833,384.5 287.5,384.5C 286.911,352.17 286.578,319.837 286.5,287.5 Z"/></g>
<g><path style="opacity:1" fill="#ab8080" d="M 249.5,354.5 C 249.829,360.537 249.496,366.537 248.5,372.5C 246.783,371.332 246.116,369.665 246.5,367.5C 247.222,367.918 247.722,368.584 248,369.5C 248.174,364.316 248.674,359.316 249.5,354.5 Z"/></g>
<g><path style="opacity:1" fill="#e2aab2" d="M 342.5,352.5 C 342.398,355.973 341.398,359.139 339.5,362C 340.09,364.196 340.757,366.362 341.5,368.5C 340.965,370.271 340.131,370.604 339,369.5C 338.296,373.191 337.796,376.691 337.5,380C 338,380.5 338.5,381 339,381.5C 340.726,379.772 342.059,377.772 343,375.5C 343.414,375.957 343.914,376.291 344.5,376.5C 345.228,374.807 346.228,373.307 347.5,372C 350.26,371.326 352.927,370.493 355.5,369.5C 346.784,377.542 337.45,384.875 327.5,391.5C 331.566,378.329 336.566,365.329 342.5,352.5 Z"/></g>
<g><path style="opacity:1" fill="#e3aab3" d="M 196.5,341.5 C 198.5,349.828 200.5,358.162 202.5,366.5C 204.75,378.075 205.916,389.742 206,401.5C 202.473,398.64 199.306,395.473 196.5,392C 192.063,389.721 188.063,386.888 184.5,383.5C 185.967,383.106 187.467,382.773 189,382.5C 191.128,384.374 193.461,386.041 196,387.5C 197.261,387.241 198.261,386.574 199,385.5C 199.607,382.798 199.44,380.132 198.5,377.5C 199.975,376.855 200.975,375.188 201.5,372.5C 198.441,362.423 196.774,352.09 196.5,341.5 Z"/></g>
<g><path style="opacity:0.533" fill="#ebd5d3" d="M 148.5,381.5 C 147.308,383.113 146.308,384.78 145.5,386.5C 145.314,380.69 145.98,375.023 147.5,369.5C 148.222,369.082 148.722,368.416 149,367.5C 149.648,372.204 149.481,376.871 148.5,381.5 Z"/></g>
<g><path style="opacity:1" fill="#efebe7" d="M 187.5,392.5 C 186.305,392.322 185.138,391.989 184,391.5C 183.055,391.905 182.388,392.572 182,393.5C 180.632,392.007 180.465,390.507 181.5,389C 178.539,387.735 175.539,386.569 172.5,385.5C 171.808,384.975 171.308,384.308 171,383.5C 169.783,384.386 168.449,385.386 167,386.5C 164.544,382.837 161.878,382.837 159,386.5C 158.333,385.833 157.667,385.167 157,384.5C 156.323,386.689 155.156,387.022 153.5,385.5C 151.717,387.023 151.051,389.023 151.5,391.5C 150.378,389.712 150.211,387.712 151,385.5C 154.19,381.905 158.19,380.239 163,380.5C 172.603,381.719 180.77,385.719 187.5,392.5 Z"/></g>
<g><path style="opacity:1" fill="#7e736b" d="M 208.5,379.5 C 209.913,384.63 210.913,389.963 211.5,395.5C 211.5,397.5 211.5,399.5 211.5,401.5C 209.257,394.471 208.257,387.137 208.5,379.5 Z"/></g>
<g><path style="opacity:0.988" fill="#e2c7c5" d="M 146.5,394.5 C 148.796,395.733 150.13,397.733 150.5,400.5C 151.734,403.535 151.734,406.535 150.5,409.5C 147.916,404.95 146.583,399.95 146.5,394.5 Z"/></g>
<g><path style="opacity:1" fill="#f0afbd" d="M 282.5,502.5 C 272.826,503.804 263.16,503.804 253.5,502.5C 253.918,501.778 254.584,501.278 255.5,501C 247.904,500.101 240.571,498.268 233.5,495.5C 233.709,494.914 234.043,494.414 234.5,494C 233.051,492.883 231.384,492.216 229.5,492C 229.07,491.08 228.736,490.247 228.5,489.5C 227.672,490.415 226.672,491.081 225.5,491.5C 223.734,490.909 222.067,490.076 220.5,489C 221.6,487.977 222.933,487.477 224.5,487.5C 230.432,488.822 236.432,489.489 242.5,489.5C 260.202,488.753 277.868,488.586 295.5,489C 314.786,485.714 326.619,474.547 331,455.5C 332.834,447.331 334.668,439.164 336.5,431C 338.421,428.571 340.755,426.738 343.5,425.5C 345.886,424.627 347.886,423.127 349.5,421C 350.899,420.405 352.232,420.572 353.5,421.5C 354.711,420.726 354.711,419.893 353.5,419C 357.854,418.286 360.354,416.119 361,412.5C 362.84,413.833 363.34,413.666 362.5,412C 368.391,406.277 374.058,400.444 379.5,394.5C 381.042,393.699 382.708,393.366 384.5,393.5C 384.704,402.879 382.704,411.713 378.5,420C 378.833,420.333 379.167,420.667 379.5,421C 378.751,422.734 378.251,424.567 378,426.5C 376.333,428.167 374.667,429.833 373,431.5C 372.304,434.478 371.804,437.478 371.5,440.5C 370.325,440.281 369.325,440.614 368.5,441.5C 367.811,443.444 367.311,445.444 367,447.5C 360.9,455.272 354.4,462.772 347.5,470C 345.975,471.009 344.308,471.509 342.5,471.5C 342.67,472.822 342.337,473.989 341.5,475C 324.352,488.655 304.019,497.321 280.5,501C 281.416,501.278 282.082,501.778 282.5,502.5 Z"/></g>
<g><path style="opacity:1" fill="#f1ede9" d="M 211.5,395.5 C 212.166,398.028 212.832,400.694 213.5,403.5C 214.816,406.028 215.983,406.028 217,403.5C 220.572,403.66 224.572,403.66 229,403.5C 232.339,404.42 235.506,405.753 238.5,407.5C 239.833,406.167 241.167,406.167 242.5,407.5C 243.32,409.319 244.32,410.986 245.5,412.5C 235.326,408.142 224.659,406.309 213.5,407C 211.808,405.599 211.141,403.766 211.5,401.5C 211.5,399.5 211.5,397.5 211.5,395.5 Z"/></g>
<g><path style="opacity:1" fill="#efebe7" d="M 368.5,397.5 C 358.396,407.605 347.396,416.605 335.5,424.5C 335.699,422.04 336.365,419.707 337.5,417.5C 338.293,417.931 339.127,418.265 340,418.5C 344.244,414.393 349.078,411.059 354.5,408.5C 353.41,407.391 353.41,406.391 354.5,405.5C 355.192,406.025 355.692,406.692 356,407.5C 357.368,405.506 357.868,403.506 357.5,401.5C 359.795,400.568 362.129,399.735 364.5,399C 365.317,396.628 366.65,396.128 368.5,397.5 Z"/></g>
<g><path style="opacity:0.695" fill="#e3b5b8" d="M 390.5,381.5 C 387.994,409.862 378.494,435.528 362,458.5C 341.09,483.238 314.59,497.905 282.5,502.5C 282.082,501.778 281.416,501.278 280.5,501C 304.019,497.321 324.352,488.655 341.5,475C 342.337,473.989 342.67,472.822 342.5,471.5C 344.308,471.509 345.975,471.009 347.5,470C 354.4,462.772 360.9,455.272 367,447.5C 367.311,445.444 367.811,443.444 368.5,441.5C 369.325,440.614 370.325,440.281 371.5,440.5C 371.804,437.478 372.304,434.478 373,431.5C 374.667,429.833 376.333,428.167 378,426.5C 378.251,424.567 378.751,422.734 379.5,421C 379.167,420.667 378.833,420.333 378.5,420C 382.704,411.713 384.704,402.879 384.5,393.5C 382.708,393.366 381.042,393.699 379.5,394.5C 382.452,389.549 386.119,385.216 390.5,381.5 Z"/></g>
<g><path style="opacity:1" fill="#a89e97" d="M 210.5,410.5 C 217.299,411.094 223.966,411.761 230.5,412.5C 224.158,412.666 217.825,412.5 211.5,412C 210.944,411.617 210.611,411.117 210.5,410.5 Z"/></g>
<g><path style="opacity:1" fill="#d4a3a7" d="M 379.5,394.5 C 374.058,400.444 368.391,406.277 362.5,412C 363.34,413.666 362.84,413.833 361,412.5C 360.354,416.119 357.854,418.286 353.5,419C 354.711,419.893 354.711,420.726 353.5,421.5C 352.232,420.572 350.899,420.405 349.5,421C 347.886,423.127 345.886,424.627 343.5,425.5C 356.064,415.944 368.064,405.611 379.5,394.5 Z"/></g>
<g><path style="opacity:1" fill="#68524a" d="M 353.5,295.5 C 354.319,298.305 354.819,301.305 355,304.5C 356.374,301.806 357.541,299.139 358.5,296.5C 359.404,297.209 359.737,298.209 359.5,299.5C 358.596,300.209 358.263,301.209 358.5,302.5C 358.5,303.5 358.5,304.5 358.5,305.5C 354.787,321.638 349.453,337.305 342.5,352.5C 336.566,365.329 331.566,378.329 327.5,391.5C 337.45,384.875 346.784,377.542 355.5,369.5C 360.569,366.305 365.235,362.638 369.5,358.5C 374.801,354.672 380.801,353.006 387.5,353.5C 394.168,358.113 396.335,364.446 394,372.5C 393.119,375.647 391.953,378.647 390.5,381.5C 386.119,385.216 382.452,389.549 379.5,394.5C 368.064,405.611 356.064,415.944 343.5,425.5C 340.755,426.738 338.421,428.571 336.5,431C 334.668,439.164 332.834,447.331 331,455.5C 326.619,474.547 314.786,485.714 295.5,489C 277.868,488.586 260.202,488.753 242.5,489.5C 232.538,487.836 223.205,484.336 214.5,479C 211.964,476.295 209.297,473.795 206.5,471.5C 203.247,464.854 200.747,457.854 199,450.5C 196.968,447.146 194.968,443.813 193,440.5C 182.637,431.301 172.471,421.967 162.5,412.5C 165.167,413.5 167.833,414.5 170.5,415.5C 171.552,419.563 174.219,421.563 178.5,421.5C 185.43,426.926 191.93,432.926 198,439.5C 201.996,448.785 205.996,458.119 210,467.5C 211.98,469.899 214.147,471.899 216.5,473.5C 218.724,476.624 221.724,478.791 225.5,480C 230.435,481.638 235.435,482.971 240.5,484C 254.172,484.354 267.839,484.854 281.5,485.5C 284.686,485.498 287.686,485.165 290.5,484.5C 310.54,483.457 322.54,473.124 326.5,453.5C 328.173,445.943 330.006,438.276 332,430.5C 332.564,428.113 333.73,426.113 335.5,424.5C 347.396,416.605 358.396,407.605 368.5,397.5C 377.417,390.083 384.251,381.083 389,370.5C 389.956,366.428 389.456,362.595 387.5,359C 381.968,356.79 377.302,357.956 373.5,362.5C 370.222,363.809 367.222,365.642 364.5,368C 357.936,374.071 351.27,379.904 344.5,385.5C 338.545,388.818 332.878,392.651 327.5,397C 320.782,401.343 318.616,399.843 321,392.5C 326.31,381.538 330.81,370.205 334.5,358.5C 342.627,343.473 348.627,327.473 352.5,310.5C 353.329,305.547 353.663,300.547 353.5,295.5 Z"/></g>
<g><path style="opacity:1" fill="#f0ede9" d="M 373.5,362.5 C 371.293,365.761 369.626,368.927 368.5,372C 366.167,372.333 363.833,372.667 361.5,373C 361.273,374.135 360.94,375.302 360.5,376.5C 359.15,377.95 357.484,378.617 355.5,378.5C 355.5,379.5 355.5,380.5 355.5,381.5C 354.178,381.67 353.011,381.337 352,380.5C 350.98,381.891 350.147,383.391 349.5,385C 347.866,385.494 346.199,385.66 344.5,385.5C 351.27,379.904 357.936,374.071 364.5,368C 367.222,365.642 370.222,363.809 373.5,362.5 Z"/></g>
<g><path style="opacity:1" fill="#e8e4df" d="M 335.5,424.5 C 333.73,426.113 332.564,428.113 332,430.5C 330.006,438.276 328.173,445.943 326.5,453.5C 327.586,448.944 327.586,444.444 326.5,440C 326.968,436.044 328.634,432.377 331.5,429C 330.833,428.667 330.167,428.333 329.5,428C 330.45,425.09 332.45,423.923 335.5,424.5 Z"/></g>
<g><path style="opacity:1" fill="#f0b0bd" d="M 150.5,400.5 C 154.14,404.806 158.14,408.806 162.5,412.5C 172.471,421.967 182.637,431.301 193,440.5C 194.968,443.813 196.968,447.146 199,450.5C 200.747,457.854 203.247,464.854 206.5,471.5C 206.608,473.783 207.441,475.783 209,477.5C 212.079,479.45 214.246,481.616 215.5,484C 212.941,485.805 210.275,485.972 207.5,484.5C 204.308,481.643 200.641,479.643 196.5,478.5C 189.3,473.811 182.8,468.144 177,461.5C 172.723,455.253 168.223,449.253 163.5,443.5C 162.425,438.894 160.592,434.56 158,430.5C 157.517,431.448 157.351,432.448 157.5,433.5C 155.187,425.599 152.854,417.599 150.5,409.5C 151.734,406.535 151.734,403.535 150.5,400.5 Z"/></g>
<g><path style="opacity:0.533" fill="#ecd4cf" d="M 163.5,443.5 C 166.116,449.063 168.449,454.73 170.5,460.5C 164.851,452.199 160.517,443.199 157.5,433.5C 157.351,432.448 157.517,431.448 158,430.5C 160.592,434.56 162.425,438.894 163.5,443.5 Z"/></g>
<g><path style="opacity:1" fill="#f5ede9" d="M 163.5,443.5 C 168.223,449.253 172.723,455.253 177,461.5C 182.8,468.144 189.3,473.811 196.5,478.5C 197.899,481.39 200.232,482.89 203.5,483C 204.337,484.011 204.67,485.178 204.5,486.5C 190.513,481.165 179.18,472.498 170.5,460.5C 168.449,454.73 166.116,449.063 163.5,443.5 Z"/></g>
<g><path style="opacity:1" fill="#e5e0db" d="M 216.5,473.5 C 218.84,474.086 221.007,475.086 223,476.5C 223.561,475.978 224.228,475.645 225,475.5C 226.274,476.535 227.44,477.702 228.5,479C 232.225,478.005 235.892,478.339 239.5,480C 240.167,481.333 241.167,482.333 242.5,483C 258.505,483.441 274.505,483.941 290.5,484.5C 287.686,485.165 284.686,485.498 281.5,485.5C 267.839,484.854 254.172,484.354 240.5,484C 235.435,482.971 230.435,481.638 225.5,480C 221.724,478.791 218.724,476.624 216.5,473.5 Z"/></g>
<g><path style="opacity:1" fill="#e8b2ba" d="M 206.5,471.5 C 209.297,473.795 211.964,476.295 214.5,479C 223.205,484.336 232.538,487.836 242.5,489.5C 236.432,489.489 230.432,488.822 224.5,487.5C 222.933,487.477 221.6,487.977 220.5,489C 222.067,490.076 223.734,490.909 225.5,491.5C 226.672,491.081 227.672,490.415 228.5,489.5C 228.736,490.247 229.07,491.08 229.5,492C 231.384,492.216 233.051,492.883 234.5,494C 234.043,494.414 233.709,494.914 233.5,495.5C 240.571,498.268 247.904,500.101 255.5,501C 254.584,501.278 253.918,501.778 253.5,502.5C 236.095,500.365 219.762,495.032 204.5,486.5C 204.67,485.178 204.337,484.011 203.5,483C 200.232,482.89 197.899,481.39 196.5,478.5C 200.641,479.643 204.308,481.643 207.5,484.5C 210.275,485.972 212.941,485.805 215.5,484C 214.246,481.616 212.079,479.45 209,477.5C 207.441,475.783 206.608,473.783 206.5,471.5 Z"/></g>
</svg>
