<?xml version="1.0" encoding="UTF-8"?>
<!DOCTYPE svg PUBLIC "-//W3C//DTD SVG 1.1//EN" "http://www.w3.org/Graphics/SVG/1.1/DTD/svg11.dtd">
<svg xmlns="http://www.w3.org/2000/svg" version="1.1" width="2048px" height="2048px" style="shape-rendering:geometricPrecision; text-rendering:geometricPrecision; image-rendering:optimizeQuality; fill-rule:evenodd; clip-rule:evenodd" xmlns:xlink="http://www.w3.org/1999/xlink">
<g><path style="opacity:0.995" fill="#45413b" d="M 999.5,41.5 C 1240.65,38.9013 1449.32,118.735 1625.5,281C 1789.7,440.015 1880.2,634.182 1897,863.5C 1898.62,892.391 1898.79,921.224 1897.5,950C 1929.61,1009.72 1957.78,1071.22 1982,1134.5C 1992.3,1161.39 1999.64,1189.05 2004,1217.5C 2009.44,1301.91 1979.61,1370.74 1914.5,1424C 1851.42,1469.15 1782.09,1482.48 1706.5,1464C 1579.29,1620.69 1416.96,1722.69 1219.5,1770C 1007.49,1815.95 805.158,1789.28 612.5,1690C 415.472,1581.86 277.639,1422.36 199,1211.5C 139.498,1039.63 132.498,865.631 178,689.5C 244.108,457.949 380.275,280.782 586.5,158C 714.576,85.1408 852.243,46.3075 999.5,41.5 Z"/></g>
<g><path style="opacity:1" fill="#fee400" d="M 1187.5,101.5 C 1395.86,150.533 1559.03,263.867 1677,441.5C 1738.97,538.654 1777.81,644.487 1793.5,759C 1793.49,760.707 1793.16,762.207 1792.5,763.5C 1786.06,748.278 1775.06,743.444 1759.5,749C 1757.39,750.141 1755.56,751.641 1754,753.5C 1691,856.101 1634.5,962.434 1584.5,1072.5C 1567.9,1068.65 1551.06,1066.65 1534,1066.5C 1504.86,1065.93 1478.02,1073.43 1453.5,1089C 1444.14,1095.69 1436.97,1104.19 1432,1114.5C 1427.15,1129.52 1429.15,1143.52 1438,1156.5C 1456.78,1176.64 1479.95,1188.48 1507.5,1192C 1518.64,1193.29 1529.64,1194.46 1540.5,1195.5C 1527.87,1268.98 1545.2,1334.31 1592.5,1391.5C 1591.93,1393.26 1591.09,1394.92 1590,1396.5C 1447.82,1544.96 1273.66,1626.46 1067.5,1641C 831.169,1650.03 630.003,1571.2 464,1404.5C 311.522,1241.14 239.522,1047.14 248,822.5C 262.659,608.038 348.492,428.205 505.5,283C 595.477,202.541 698.977,145.708 816,112.5C 817.03,112.164 817.53,111.497 817.5,110.5C 940.238,79.3105 1063.57,76.3105 1187.5,101.5 Z"/></g>
<g><path style="opacity:1" fill="#eaca00" d="M 817.5,110.5 C 817.53,111.497 817.03,112.164 816,112.5C 698.977,145.708 595.477,202.541 505.5,283C 348.492,428.205 262.659,608.038 248,822.5C 239.522,1047.14 311.522,1241.14 464,1404.5C 630.003,1571.2 831.169,1650.03 1067.5,1641C 1273.66,1626.46 1447.82,1544.96 1590,1396.5C 1591.09,1394.92 1591.93,1393.26 1592.5,1391.5C 1612.96,1414.57 1636.96,1433.07 1664.5,1447C 1533.23,1603.35 1366.56,1700.01 1164.5,1737C 953.533,1770.94 757.533,1731.61 576.5,1619C 383.295,1491.95 260.795,1315.12 209,1088.5C 165.788,868.919 202.455,663.919 319,473.5C 438.39,289.036 604.557,168.036 817.5,110.5 Z"/></g>
<g><path style="opacity:1" fill="#e9c901" d="M 1187.5,101.5 C 1365.89,138.254 1516.39,223.254 1639,356.5C 1769.88,502.351 1841.55,673.685 1854,870.5C 1833.99,834.48 1813.49,798.813 1792.5,763.5C 1793.16,762.207 1793.49,760.707 1793.5,759C 1777.81,644.487 1738.97,538.654 1677,441.5C 1559.03,263.867 1395.86,150.533 1187.5,101.5 Z"/></g>
<g><path style="opacity:1" fill="#fff38b" d="M 987.5,170.5 C 1057.48,168.094 1126.82,173.594 1195.5,187C 1216.32,191.273 1236.32,197.94 1255.5,207C 1263.54,211.043 1270.37,216.543 1276,223.5C 1281.45,235.193 1278.95,245.027 1268.5,253C 1250.38,264.822 1230.72,273.155 1209.5,278C 1161.81,289.151 1113.48,295.484 1064.5,297C 990.406,300.857 917.072,295.19 844.5,280C 824.61,275.37 805.61,268.37 787.5,259C 779.333,254.833 773.167,248.667 769,240.5C 766.72,234.507 767.387,228.84 771,223.5C 782.634,211.591 796.468,203.091 812.5,198C 843.75,187.55 875.75,180.55 908.5,177C 934.923,174.006 961.256,171.839 987.5,170.5 Z"/></g>
<g><path style="opacity:1" fill="#45413b" d="M 817.5,575.5 C 835.835,574.669 844.668,583.336 844,601.5C 843.044,604.377 841.711,607.044 840,609.5C 760.719,688.893 665.219,737.226 553.5,754.5C 543.562,753.95 537.062,748.95 534,739.5C 531.488,727.023 535.988,718.19 547.5,713C 649.002,696.751 736.002,652.751 808.5,581C 811.564,579.141 814.564,577.308 817.5,575.5 Z"/></g>
<g><path style="opacity:1" fill="#45413b" d="M 1218.5,575.5 C 1225.33,574.957 1231.66,576.457 1237.5,580C 1309.9,652.039 1396.9,696.372 1498.5,713C 1510.75,717.66 1515.58,726.493 1513,739.5C 1509.84,749.088 1503.18,754.088 1493,754.5C 1381.52,737.094 1286.18,688.761 1207,609.5C 1199.14,594.249 1202.97,582.915 1218.5,575.5 Z"/></g>
<g><path style="opacity:1" fill="#00b7ef" d="M 1960.5,1219.5 C 1958.44,1226.96 1955.27,1233.96 1951,1240.5C 1908.31,1307.02 1847.31,1341.35 1768,1343.5C 1684.39,1339.05 1622.39,1300.38 1582,1227.5C 1580.59,1225.35 1579.76,1223.02 1579.5,1220.5C 1583.32,1196.91 1589.48,1173.91 1598,1151.5C 1617.75,1099.25 1640.42,1048.25 1666,998.5C 1698.89,934.376 1733.56,871.376 1770,809.5C 1826.96,903.732 1877.96,1001.4 1923,1102.5C 1935.46,1131.54 1946.12,1161.2 1955,1191.5C 1957.67,1200.68 1959.5,1210.02 1960.5,1219.5 Z"/></g>
<g><path style="opacity:1" fill="#45413b" d="M 583.5,853.5 C 621.535,849.745 646.702,865.745 659,901.5C 664.671,934.654 652.837,959.154 623.5,975C 590.622,987.244 563.788,979.411 543,951.5C 526.306,919.775 530.806,891.608 556.5,867C 564.781,860.859 573.781,856.359 583.5,853.5 Z"/></g>
<g><path style="opacity:1" fill="#45413b" d="M 1436.5,853.5 C 1475.59,849.775 1501.09,866.441 1513,903.5C 1517.3,942.12 1501.13,967.287 1464.5,979C 1431.75,984.374 1407.58,972.541 1392,943.5C 1380.17,912.311 1387,886.144 1412.5,865C 1420.25,860.288 1428.25,856.455 1436.5,853.5 Z"/></g>
<g><path style="opacity:1" fill="#ffaa53" d="M 492.5,1066.5 C 520.354,1064.5 547.354,1068.34 573.5,1078C 589.309,1084.48 602.142,1094.65 612,1108.5C 621.461,1125.69 620.128,1142.02 608,1157.5C 594.104,1173.04 576.938,1183.2 556.5,1188C 526.168,1195.33 495.834,1195.33 465.5,1188C 445.242,1182.46 428.075,1171.96 414,1156.5C 399.479,1131.8 403.312,1110.3 425.5,1092C 445.741,1077.87 468.074,1069.37 492.5,1066.5 Z"/></g>
<g><path style="opacity:1" fill="#feaa53" d="M 1584.5,1072.5 C 1565.84,1112.15 1551.17,1153.15 1540.5,1195.5C 1529.64,1194.46 1518.64,1193.29 1507.5,1192C 1479.95,1188.48 1456.78,1176.64 1438,1156.5C 1429.15,1143.52 1427.15,1129.52 1432,1114.5C 1436.97,1104.19 1444.14,1095.69 1453.5,1089C 1478.02,1073.43 1504.86,1065.93 1534,1066.5C 1551.06,1066.65 1567.9,1068.65 1584.5,1072.5 Z"/></g>
<g><path style="opacity:1" fill="#009ed8" d="M 1960.5,1219.5 C 1966.17,1289.68 1941.5,1346.84 1886.5,1391C 1827.45,1431.72 1764.12,1439.72 1696.5,1415C 1628.66,1384.54 1589.49,1332.37 1579,1258.5C 1578.17,1245.66 1578.34,1232.99 1579.5,1220.5C 1579.76,1223.02 1580.59,1225.35 1582,1227.5C 1622.39,1300.38 1684.39,1339.05 1768,1343.5C 1847.31,1341.35 1908.31,1307.02 1951,1240.5C 1955.27,1233.96 1958.44,1226.96 1960.5,1219.5 Z"/></g>
<g><path style="opacity:1" fill="#45413b" d="M 997.5,1258.5 C 1089.12,1254.99 1173.45,1277.83 1250.5,1327C 1258.87,1336.48 1259.7,1346.65 1253,1357.5C 1246.67,1363.5 1239.17,1365.66 1230.5,1364C 1134.38,1303.03 1031.05,1286.36 920.5,1314C 883.552,1324.48 849.552,1340.81 818.5,1363C 797.489,1366.66 787.989,1357.82 790,1336.5C 792.777,1330.06 797.277,1325.22 803.5,1322C 862.419,1283.3 927.086,1262.14 997.5,1258.5 Z"/></g>
<g><path style="opacity:0.149" fill="#43423b" d="M 927.5,1876.5 C 1104.7,1874.19 1281.7,1879.02 1458.5,1891C 1516.14,1895.03 1573.48,1901.7 1630.5,1911C 1650.61,1914.28 1670.28,1919.28 1689.5,1926C 1712.33,1936.43 1712,1946.43 1688.5,1956C 1661.12,1965.01 1633.12,1971.34 1604.5,1975C 1509.88,1987.43 1414.88,1995.43 1319.5,1999C 1130.18,2007.21 940.847,2007.54 751.5,2000C 652.818,1996.72 554.485,1989.05 456.5,1977C 428.502,1973.33 400.835,1968 373.5,1961C 363.984,1958.5 354.984,1954.83 346.5,1950C 338.255,1943.16 338.588,1936.82 347.5,1931C 366.041,1922.53 385.374,1916.53 405.5,1913C 466.116,1902.52 527.116,1895.19 588.5,1891C 701.528,1883.06 814.528,1878.23 927.5,1876.5 Z"/></g>
</svg>
