<?xml version="1.0" encoding="UTF-8"?>
<!DOCTYPE svg PUBLIC "-//W3C//DTD SVG 1.1//EN" "http://www.w3.org/Graphics/SVG/1.1/DTD/svg11.dtd">
<svg xmlns="http://www.w3.org/2000/svg" version="1.1" width="267px" height="300px" style="shape-rendering:geometricPrecision; text-rendering:geometricPrecision; image-rendering:optimizeQuality; fill-rule:evenodd; clip-rule:evenodd" xmlns:xlink="http://www.w3.org/1999/xlink">
<g><path style="opacity:1" fill="#a179dc" d="M 126.5,-0.5 C 131.167,-0.5 135.833,-0.5 140.5,-0.5C 178.072,20.959 215.739,42.459 253.5,64C 257.734,66.7319 261.067,70.2319 263.5,74.5C 248.85,82.8055 234.184,91.1388 219.5,99.5C 196.107,63.3058 162.774,47.1392 119.5,51C 79.8263,58.669 52.9929,81.5023 39,119.5C 31.36,146.985 34.1933,173.318 47.5,198.5C 32.6635,207.419 17.6635,216.086 2.5,224.5C 1.48615,222.426 0.486147,220.426 -0.5,218.5C -0.5,172.833 -0.5,127.167 -0.5,81.5C 1.65835,73.1611 6.65835,66.9945 14.5,63C 51.7975,41.525 89.1308,20.3583 126.5,-0.5 Z"/></g>
<g><path style="opacity:1" fill="#fefdfe" d="M 219.5,99.5 C 205.131,108.351 190.464,116.685 175.5,124.5C 169.342,113.187 160.008,105.687 147.5,102C 117.316,96.5035 96.8158,108.004 86,136.5C 82.8716,149.716 84.7049,162.05 91.5,173.5C 100.597,190.142 114.763,198.475 134,198.5C 147.19,198.322 158.69,193.822 168.5,185C 171.417,181.263 174.417,177.763 177.5,174.5C 191.536,182.848 205.536,191.181 219.5,199.5C 195.859,235.984 162.192,252.15 118.5,248C 87.4415,241.827 63.7748,225.327 47.5,198.5C 34.1933,173.318 31.36,146.985 39,119.5C 52.9929,81.5023 79.8263,58.669 119.5,51C 162.774,47.1392 196.107,63.3058 219.5,99.5 Z"/></g>
<g><path style="opacity:0.997" fill="#390191" d="M 263.5,74.5 C 264.687,76.0725 265.687,77.7392 266.5,79.5C 266.5,126.167 266.5,172.833 266.5,219.5C 265.687,221.261 264.687,222.928 263.5,224.5C 248.806,216.155 234.139,207.821 219.5,199.5C 205.536,191.181 191.536,182.848 177.5,174.5C 162.901,166.196 148.234,157.863 133.5,149.5C 147.464,141.181 161.464,132.848 175.5,124.5C 190.464,116.685 205.131,108.351 219.5,99.5C 234.184,91.1388 248.85,82.8055 263.5,74.5 Z"/></g>
<g><path style="opacity:1" fill="#a179db" d="M 175.5,124.5 C 161.464,132.848 147.464,141.181 133.5,149.5C 119.166,156.998 105.166,164.998 91.5,173.5C 84.7049,162.05 82.8716,149.716 86,136.5C 96.8158,108.004 117.316,96.5035 147.5,102C 160.008,105.687 169.342,113.187 175.5,124.5 Z"/></g>
<g><path style="opacity:1" fill="#f6f3fa" d="M 203.5,120.5 C 205.833,120.5 208.167,120.5 210.5,120.5C 210.5,125.167 210.5,129.833 210.5,134.5C 215.167,134.5 219.833,134.5 224.5,134.5C 224.5,129.833 224.5,125.167 224.5,120.5C 226.833,120.5 229.167,120.5 231.5,120.5C 231.5,125.167 231.5,129.833 231.5,134.5C 236.167,134.5 240.833,134.5 245.5,134.5C 245.5,137.167 245.5,139.833 245.5,142.5C 240.833,142.5 236.167,142.5 231.5,142.5C 231.5,147.167 231.5,151.833 231.5,156.5C 236.167,156.5 240.833,156.5 245.5,156.5C 245.5,158.833 245.5,161.167 245.5,163.5C 240.833,163.5 236.167,163.5 231.5,163.5C 231.5,168.167 231.5,172.833 231.5,177.5C 229.167,177.5 226.833,177.5 224.5,177.5C 224.5,172.833 224.5,168.167 224.5,163.5C 219.833,163.5 215.167,163.5 210.5,163.5C 210.5,168.167 210.5,172.833 210.5,177.5C 208.167,177.5 205.833,177.5 203.5,177.5C 203.5,172.833 203.5,168.167 203.5,163.5C 198.833,163.5 194.167,163.5 189.5,163.5C 189.5,161.167 189.5,158.833 189.5,156.5C 194.167,156.5 198.833,156.5 203.5,156.5C 203.5,151.833 203.5,147.167 203.5,142.5C 198.833,142.5 194.167,142.5 189.5,142.5C 189.5,139.833 189.5,137.167 189.5,134.5C 194.167,134.5 198.833,134.5 203.5,134.5C 203.5,129.833 203.5,125.167 203.5,120.5 Z"/></g>
<g><path style="opacity:1" fill="#3f0c93" d="M 210.5,142.5 C 215.167,142.5 219.833,142.5 224.5,142.5C 224.5,147.167 224.5,151.833 224.5,156.5C 219.833,156.5 215.167,156.5 210.5,156.5C 210.5,151.833 210.5,147.167 210.5,142.5 Z"/></g>
<g><path style="opacity:1" fill="#280168" d="M 133.5,149.5 C 148.234,157.863 162.901,166.196 177.5,174.5C 174.417,177.763 171.417,181.263 168.5,185C 158.69,193.822 147.19,198.322 134,198.5C 114.763,198.475 100.597,190.142 91.5,173.5C 105.166,164.998 119.166,156.998 133.5,149.5 Z"/></g>
<g><path style="opacity:0.989" fill="#280068" d="M 47.5,198.5 C 63.7748,225.327 87.4415,241.827 118.5,248C 162.192,252.15 195.859,235.984 219.5,199.5C 234.139,207.821 248.806,216.155 263.5,224.5C 261.067,228.768 257.734,232.268 253.5,235C 215.739,256.541 178.072,278.041 140.5,299.5C 135.5,299.5 130.5,299.5 125.5,299.5C 87.5645,277.972 48.8978,255.805 9.5,233C 6.20134,230.277 3.868,227.444 2.5,224.5C 17.6635,216.086 32.6635,207.419 47.5,198.5 Z"/></g>
</svg>
