<?xml version="1.0" encoding="UTF-8"?>
<!DOCTYPE svg PUBLIC "-//W3C//DTD SVG 1.1//EN" "http://www.w3.org/Graphics/SVG/1.1/DTD/svg11.dtd">
<svg xmlns="http://www.w3.org/2000/svg" version="1.1" width="512px" height="512px" style="shape-rendering:geometricPrecision; text-rendering:geometricPrecision; image-rendering:optimizeQuality; fill-rule:evenodd; clip-rule:evenodd" xmlns:xlink="http://www.w3.org/1999/xlink">
<g><path style="opacity:0.937" fill="#000000" d="M 255.5,44.5 C 316.738,41.6189 367.572,62.9522 408,108.5C 449.564,162.007 459.564,221.007 438,285.5C 434.881,293.739 431.214,301.739 427,309.5C 420.577,318.674 414.91,328.34 410,338.5C 408.798,341.774 407.798,345.107 407,348.5C 405.699,384.795 405.032,421.128 405,457.5C 403.378,464.774 398.878,467.607 391.5,466C 388.572,464.74 386.739,462.573 386,459.5C 385.333,425.833 385.333,392.167 386,358.5C 386.758,348.136 389.091,338.136 393,328.5C 401.401,314.422 409.401,300.089 417,285.5C 439.476,227.298 432.143,173.298 395,123.5C 353.218,75.3464 300.718,56.5131 237.5,67C 180.494,81.2523 141.327,115.752 120,170.5C 116.881,179.976 114.548,189.643 113,199.5C 112.142,216.873 110.808,234.207 109,251.5C 107.466,258.635 105.466,265.635 103,272.5C 95.5542,289.724 88.3875,307.057 81.5,324.5C 81.8178,325.647 82.4844,326.481 83.5,327C 94.7011,329.289 105.368,332.955 115.5,338C 118.85,341.532 121.016,345.699 122,350.5C 125.667,373.833 129.333,397.167 133,420.5C 135.332,426.164 139.499,429.664 145.5,431C 167.167,431.667 188.833,431.667 210.5,431C 228.251,427.916 239.751,417.749 245,400.5C 245.465,395.369 246.465,390.369 248,385.5C 252.36,380.873 257.193,380.373 262.5,384C 264.79,386.75 265.79,389.916 265.5,393.5C 262.329,424.836 245.329,443.67 214.5,450C 190.167,450.667 165.833,450.667 141.5,450C 127.187,447.019 118.02,438.519 114,424.5C 110.554,400.375 106.554,376.375 102,352.5C 92.5056,349.75 83.0056,346.917 73.5,344C 63.5252,337.744 60.0252,328.91 63,317.5C 69.8049,300.752 76.8049,284.085 84,267.5C 86.4046,260.953 88.4046,254.286 90,247.5C 91.3321,232.533 92.3321,217.533 93,202.5C 103.523,132.331 141.357,83.4982 206.5,56C 222.508,50.1698 238.841,46.3364 255.5,44.5 Z"/></g>
<g><path style="opacity:0.94" fill="#000000" d="M 256.5,95.5 C 283.403,94.1168 304.07,104.617 318.5,127C 345.369,128.509 363.869,141.676 374,166.5C 375.951,174.708 376.951,183.041 377,191.5C 396.082,207.829 401.416,227.829 393,251.5C 380.215,275.142 360.715,283.975 334.5,278C 316.356,271.689 305.023,259.189 300.5,240.5C 289.298,239.815 279.798,235.481 272,227.5C 266.563,219.82 268.063,213.987 276.5,210C 278.913,209.516 281.246,209.85 283.5,211C 290.812,221.028 299.812,223.028 310.5,217C 313.106,215.062 314.939,212.562 316,209.5C 316.664,204.162 317.331,198.828 318,193.5C 323.058,188.617 328.391,188.284 334,192.5C 337.799,203.242 336.799,213.575 331,223.5C 327.466,228.031 323.632,232.197 319.5,236C 325.28,255.728 338.28,263.395 358.5,259C 374.426,251.311 380.259,238.811 376,221.5C 374.503,217.835 372.503,214.502 370,211.5C 367.221,218.049 362.388,220.216 355.5,218C 351.057,214.938 349.557,210.771 351,205.5C 361.278,187.316 359.112,170.816 344.5,156C 339.725,152.279 334.391,149.612 328.5,148C 321.394,147.926 314.394,147.26 307.5,146C 303.629,141.093 300.129,135.926 297,130.5C 278.535,112.338 258.368,110.172 236.5,124C 222.815,135.719 216.981,150.552 219,168.5C 216.611,174.777 212.111,176.943 205.5,175C 204.069,174.535 202.903,173.701 202,172.5C 200.011,168.747 199.178,164.747 199.5,160.5C 178.488,163.849 167.154,176.182 165.5,197.5C 166.872,217.872 177.539,230.206 197.5,234.5C 198.772,234.43 199.938,234.097 201,233.5C 207.541,215.888 220.207,206.221 239,204.5C 247.885,206.039 250.885,211.039 248,219.5C 244.136,223.68 239.303,225.513 233.5,225C 218.418,232.831 215.251,243.998 224,258.5C 226.408,260.956 229.241,262.789 232.5,264C 245.143,265.045 257.81,266.045 270.5,267C 282.426,270.931 291.26,278.431 297,289.5C 298.408,293.057 299.408,296.724 300,300.5C 300.941,313.237 300.607,325.904 299,338.5C 293.626,343.82 288.292,343.82 283,338.5C 281.71,327.263 281.043,315.93 281,304.5C 279.288,293.788 273.121,287.288 262.5,285C 252.167,284.667 241.833,284.333 231.5,284C 216.009,279.842 205.676,270.176 200.5,255C 172.011,251.178 154.177,235.344 147,207.5C 143.786,178.421 155.286,157.588 181.5,145C 187.911,142.397 194.578,141.064 201.5,141C 211.023,114.961 229.356,99.7943 256.5,95.5 Z"/></g>
<g><path style="opacity:0.93" fill="#000000" d="M 258.5,148.5 C 288.468,147.301 302.968,161.635 302,191.5C 298.594,198.447 293.427,200.114 286.5,196.5C 283.114,192.288 281.947,187.622 283,182.5C 279.576,170.37 271.742,165.87 259.5,169C 255.557,170.61 252.557,173.277 250.5,177C 245.299,180.383 240.466,179.883 236,175.5C 234,171.5 234,167.5 236,163.5C 242.045,156.078 249.545,151.078 258.5,148.5 Z"/></g>
</svg>
