<?xml version="1.0" encoding="UTF-8"?>
<!DOCTYPE svg PUBLIC "-//W3C//DTD SVG 1.1//EN" "http://www.w3.org/Graphics/SVG/1.1/DTD/svg11.dtd">
<svg xmlns="http://www.w3.org/2000/svg" version="1.1" width="475px" height="475px" style="shape-rendering:geometricPrecision; text-rendering:geometricPrecision; image-rendering:optimizeQuality; fill-rule:evenodd; clip-rule:evenodd" xmlns:xlink="http://www.w3.org/1999/xlink">
<g><path style="opacity:0.925" fill="#e47387" d="M 215.5,85.5 C 219.148,86.5002 220.314,88.8336 219,92.5C 216.753,97.7375 213.42,102.071 209,105.5C 205.925,104.531 204.925,102.531 206,99.5C 208.672,94.3586 211.838,89.6919 215.5,85.5 Z"/></g>
<g><path style="opacity:1" fill="#eb839e" d="M 255.5,126.5 C 254.236,128.772 254.402,131.105 256,133.5C 262.125,137.956 267.958,142.789 273.5,148C 274.448,148.483 275.448,148.649 276.5,148.5C 276.968,153.37 276.302,158.036 274.5,162.5C 268.16,167.508 261.827,172.508 255.5,177.5C 254.607,180.084 254.274,182.751 254.5,185.5C 253.5,185.5 252.5,185.5 251.5,185.5C 251.301,182.059 251.801,178.726 253,175.5C 259.372,170.489 265.706,165.489 272,160.5C 272.667,157.167 272.667,153.833 272,150.5C 265.84,144.333 259.006,138.999 251.5,134.5C 248.88,129.313 249.047,124.313 252,119.5C 254.638,116.683 257.638,114.35 261,112.5C 262.924,109.569 265.257,106.903 268,104.5C 268.483,103.552 268.649,102.552 268.5,101.5C 268.869,96.9881 271.202,95.4881 275.5,97C 277.837,99.5931 278.004,102.426 276,105.5C 270.29,112.041 263.79,117.708 256.5,122.5C 255.754,123.736 255.421,125.07 255.5,126.5 Z"/></g>
<g><path style="opacity:1" fill="#ec530c" d="M 157.5,111.5 C 157.414,112.496 157.748,113.329 158.5,114C 163.745,116.791 169.079,119.291 174.5,121.5C 179.388,127.568 184.555,133.568 190,139.5C 200.844,155.201 207.844,172.534 211,191.5C 212.756,202.664 213.923,213.664 214.5,224.5C 213.734,236.602 210.068,247.602 203.5,257.5C 202.5,257.167 201.833,256.5 201.5,255.5C 201.322,254.305 200.989,253.138 200.5,252C 205.793,240.082 208.459,227.582 208.5,214.5C 209.152,213.551 209.486,212.385 209.5,211C 208.959,207.172 208.459,203.339 208,199.5C 207.385,196.697 206.218,194.364 204.5,192.5C 204.5,190.833 204.5,189.167 204.5,187.5C 202.704,171.631 197.204,156.965 188,143.5C 187.722,144.416 187.222,145.082 186.5,145.5C 184.748,143.754 183.415,141.754 182.5,139.5C 182.414,138.504 182.748,137.671 183.5,137C 164.582,115.471 141.082,107.971 113,114.5C 107.24,114.249 107.073,113.083 112.5,111C 115.167,110.667 117.833,110.333 120.5,110C 120.167,109.667 119.833,109.333 119.5,109C 120.737,108.768 121.737,108.268 122.5,107.5C 134.596,105.658 146.263,106.992 157.5,111.5 Z"/></g>
<g><path style="opacity:0.671" fill="#dd561d" d="M 122.5,107.5 C 121.737,108.268 120.737,108.768 119.5,109C 119.833,109.333 120.167,109.667 120.5,110C 117.833,110.333 115.167,110.667 112.5,111C 107.073,113.083 107.24,114.249 113,114.5C 141.082,107.971 164.582,115.471 183.5,137C 182.748,137.671 182.414,138.504 182.5,139.5C 163.306,117.605 139.473,110.272 111,117.5C 105.309,116.229 104.475,113.729 108.5,110C 113.045,108.458 117.711,107.624 122.5,107.5 Z"/></g>
<g><path style="opacity:0.365" fill="#e17389" d="M 268.5,101.5 C 268.649,102.552 268.483,103.552 268,104.5C 265.257,106.903 262.924,109.569 261,112.5C 257.638,114.35 254.638,116.683 252,119.5C 249.047,124.313 248.88,129.313 251.5,134.5C 259.006,138.999 265.84,144.333 272,150.5C 272.667,153.833 272.667,157.167 272,160.5C 265.706,165.489 259.372,170.489 253,175.5C 251.801,178.726 251.301,182.059 251.5,185.5C 252.5,185.5 253.5,185.5 254.5,185.5C 254.274,182.751 254.607,180.084 255.5,177.5C 261.827,172.508 268.16,167.508 274.5,162.5C 276.302,158.036 276.968,153.37 276.5,148.5C 275.448,148.649 274.448,148.483 273.5,148C 267.958,142.789 262.125,137.956 256,133.5C 254.402,131.105 254.236,128.772 255.5,126.5C 255.253,129.505 256.253,132.005 258.5,134C 268.69,137.691 275.69,144.524 279.5,154.5C 278.967,159.399 276.967,163.566 273.5,167C 267.77,170.062 262.603,173.896 258,178.5C 257.668,181.506 256.834,184.34 255.5,187C 253.251,187.863 251.418,187.363 250,185.5C 249.262,181.739 249.595,178.072 251,174.5C 256.202,169.153 262.035,164.653 268.5,161C 271.367,156.409 271.034,152.076 267.5,148C 261.125,144.953 255.292,141.119 250,136.5C 246.667,130.167 246.667,123.833 250,117.5C 256.68,112.646 262.846,107.313 268.5,101.5 Z"/></g>
<g><path style="opacity:0.71" fill="#f0b343" d="M 118.5,158.5 C 125.885,160.854 131.218,165.52 134.5,172.5C 134.392,173.442 134.059,174.275 133.5,175C 131.167,175.667 128.833,175.667 126.5,175C 122.331,171.516 118.998,167.516 116.5,163C 116.519,161.167 117.185,159.667 118.5,158.5 Z"/></g>
<g><path style="opacity:0.875" fill="#e06b2f" d="M 204.5,187.5 C 200.256,172.776 194.256,158.776 186.5,145.5C 187.222,145.082 187.722,144.416 188,143.5C 197.204,156.965 202.704,171.631 204.5,187.5 Z"/></g>
<g><path style="opacity:0.671" fill="#dc5015" d="M 157.5,111.5 C 174.376,118.522 187.543,129.855 197,145.5C 210.19,169.444 216.524,195.111 216,222.5C 216.995,223.066 217.828,223.733 218.5,224.5C 217.167,224.5 215.833,224.5 214.5,224.5C 213.923,213.664 212.756,202.664 211,191.5C 207.844,172.534 200.844,155.201 190,139.5C 184.555,133.568 179.388,127.568 174.5,121.5C 169.079,119.291 163.745,116.791 158.5,114C 157.748,113.329 157.414,112.496 157.5,111.5 Z"/></g>
<g><path style="opacity:0.996" fill="#ea809a" d="M 346.5,174.5 C 348.5,174.5 350.5,174.5 352.5,174.5C 352.714,176.144 352.38,177.644 351.5,179C 349.5,179.667 347.5,180.333 345.5,181C 339.693,180.732 333.86,180.232 328,179.5C 324.833,179.667 321.667,179.833 318.5,180C 316.59,182.727 315.256,185.727 314.5,189C 325.425,219.408 315.759,229.075 285.5,218C 292.012,217.429 298.512,217.596 305,218.5C 310.124,219.278 313.457,217.278 315,212.5C 315.534,208.141 315.368,203.808 314.5,199.5C 313.5,199.5 312.5,199.5 311.5,199.5C 304.773,184.797 309.273,176.13 325,173.5C 332.144,174.322 339.31,174.656 346.5,174.5 Z"/></g>
<g><path style="opacity:1" fill="#fc9a14" d="M 206.5,212.5 C 207.5,212.833 208.167,213.5 208.5,214.5C 208.459,227.582 205.793,240.082 200.5,252C 200.989,253.138 201.322,254.305 201.5,255.5C 191.434,244.433 182.101,232.766 173.5,220.5C 168.709,214.587 165.209,207.92 163,200.5C 161.051,206.046 158.884,211.379 156.5,216.5C 156.158,215.662 155.492,215.328 154.5,215.5C 157.283,208.653 159.783,201.653 162,194.5C 169.097,191.66 175.93,192.493 182.5,197C 190.383,202.39 198.383,207.557 206.5,212.5 Z"/></g>
<g><path style="opacity:0.988" fill="#e06c2f" d="M 204.5,192.5 C 206.218,194.364 207.385,196.697 208,199.5C 208.459,203.339 208.959,207.172 209.5,211C 209.486,212.385 209.152,213.551 208.5,214.5C 208.167,213.5 207.5,212.833 206.5,212.5C 206.712,205.699 206.045,199.032 204.5,192.5 Z"/></g>
<g><path style="opacity:1" fill="#fcb027" d="M 173.5,220.5 C 167.766,230.502 163.266,241.168 160,252.5C 159.311,253.357 158.478,254.023 157.5,254.5C 156.378,253.37 155.044,252.703 153.5,252.5C 152.488,251.128 151.488,249.795 150.5,248.5C 150.5,247.833 150.5,247.167 150.5,246.5C 149.621,244.772 148.954,242.939 148.5,241C 151.093,232.788 153.76,224.622 156.5,216.5C 158.884,211.379 161.051,206.046 163,200.5C 165.209,207.92 168.709,214.587 173.5,220.5 Z"/></g>
<g><path style="opacity:0.604" fill="#edb142" d="M 154.5,215.5 C 155.492,215.328 156.158,215.662 156.5,216.5C 153.76,224.622 151.093,232.788 148.5,241C 148.954,242.939 149.621,244.772 150.5,246.5C 149.833,246.167 149.167,245.833 148.5,245.5C 148.027,244.094 147.027,243.427 145.5,243.5C 148.486,234.187 151.486,224.854 154.5,215.5 Z"/></g>
<g><path style="opacity:0.925" fill="#e2748a" d="M 311.5,199.5 C 312.5,199.5 313.5,199.5 314.5,199.5C 315.368,203.808 315.534,208.141 315,212.5C 313.457,217.278 310.124,219.278 305,218.5C 298.512,217.596 292.012,217.429 285.5,218C 315.759,229.075 325.425,219.408 314.5,189C 315.256,185.727 316.59,182.727 318.5,180C 321.667,179.833 324.833,179.667 328,179.5C 333.86,180.232 339.693,180.732 345.5,181C 347.5,180.333 349.5,179.667 351.5,179C 352.38,177.644 352.714,176.144 352.5,174.5C 350.5,174.5 348.5,174.5 346.5,174.5C 348.877,171.876 351.377,171.876 354,174.5C 354.604,178.588 352.77,181.088 348.5,182C 346.236,182.236 344.069,182.736 342,183.5C 334.687,181.443 327.021,181.11 319,182.5C 318.069,184.459 317.236,186.459 316.5,188.5C 319.556,197.7 320.389,207.033 319,216.5C 316.04,222.727 311.04,225.393 304,224.5C 298.468,224.393 293.134,223.393 288,221.5C 284.419,223.041 280.919,224.708 277.5,226.5C 272.392,223.712 272.392,220.545 277.5,217C 279.957,215.438 282.624,214.438 285.5,214C 291.499,214.495 297.499,215.328 303.5,216.5C 309.522,217.141 312.856,214.474 313.5,208.5C 312.83,205.481 312.163,202.481 311.5,199.5 Z"/></g>
<g><path style="opacity:1" fill="#fdc538" d="M 173.5,220.5 C 182.101,232.766 191.434,244.433 201.5,255.5C 201.833,256.5 202.5,257.167 203.5,257.5C 211.258,266.191 219.591,274.191 228.5,281.5C 229.262,283.262 230.596,284.262 232.5,284.5C 237.091,290.59 242.757,295.424 249.5,299C 260.1,308.6 271.766,315.433 284.5,319.5C 283.292,320.234 281.959,320.567 280.5,320.5C 279.735,320.077 278.902,319.743 278,319.5C 267.981,322.967 258.147,326.967 248.5,331.5C 247.702,331.957 247.369,332.624 247.5,333.5C 245.299,334.566 242.965,335.233 240.5,335.5C 239.415,333.413 237.749,332.08 235.5,331.5C 234.564,330.026 233.23,329.026 231.5,328.5C 230.5,327.833 229.5,327.167 228.5,326.5C 228.306,324.088 226.973,323.088 224.5,323.5C 224.719,322.325 224.386,321.325 223.5,320.5C 220.745,318.99 218.412,316.99 216.5,314.5C 214.488,312.659 212.155,311.659 209.5,311.5C 208.5,310.833 207.5,310.167 206.5,309.5C 205.473,307.806 204.139,306.473 202.5,305.5C 201.833,302.833 200.167,301.167 197.5,300.5C 196.833,300.5 196.5,300.167 196.5,299.5C 192.108,294.106 187.108,289.439 181.5,285.5C 181.167,284.833 180.833,284.167 180.5,283.5C 179.213,280.547 177.213,278.214 174.5,276.5C 173.833,276.167 173.167,275.833 172.5,275.5C 172.262,273.596 171.262,272.262 169.5,271.5C 167.737,268.98 165.737,266.647 163.5,264.5C 162.55,260.587 160.217,257.92 156.5,256.5C 155.5,255.167 154.5,253.833 153.5,252.5C 155.044,252.703 156.378,253.37 157.5,254.5C 158.478,254.023 159.311,253.357 160,252.5C 163.266,241.168 167.766,230.502 173.5,220.5 Z"/></g>
<g><path style="opacity:1" fill="#fd9a11" d="M 214.5,224.5 C 215.833,224.5 217.167,224.5 218.5,224.5C 222.791,227.123 226.457,230.456 229.5,234.5C 229.343,235.873 229.51,237.207 230,238.5C 238.97,246.469 247.637,254.803 256,263.5C 256.667,264.167 256.667,264.833 256,265.5C 253.974,265.915 252.474,266.915 251.5,268.5C 245.59,271.116 239.59,273.783 233.5,276.5C 231.563,277.954 229.897,279.621 228.5,281.5C 219.591,274.191 211.258,266.191 203.5,257.5C 210.068,247.602 213.734,236.602 214.5,224.5 Z"/></g>
<g><path style="opacity:0.802" fill="#ed8e29" d="M 229.5,234.5 C 240.242,243.407 250.242,253.24 259.5,264C 261.473,264.495 263.473,264.662 265.5,264.5C 260.991,265.998 256.324,267.332 251.5,268.5C 252.474,266.915 253.974,265.915 256,265.5C 256.667,264.833 256.667,264.167 256,263.5C 247.637,254.803 238.97,246.469 230,238.5C 229.51,237.207 229.343,235.873 229.5,234.5 Z"/></g>
<g><path style="opacity:0.396" fill="#b3a18f" d="M 145.5,243.5 C 147.027,243.427 148.027,244.094 148.5,245.5C 147.041,245.433 145.708,245.766 144.5,246.5C 144.263,245.209 144.596,244.209 145.5,243.5 Z"/></g>
<g><path style="opacity:1" fill="#5fa8e3" d="M 102.5,240.5 C 106.525,241.218 108.025,243.551 107,247.5C 103.167,250.667 99.6667,254.167 96.5,258C 90.9202,259.261 89.0868,257.094 91,251.5C 94.7023,247.63 98.5357,243.963 102.5,240.5 Z"/></g>
<g><path style="opacity:0.98" fill="#9cb0a2" d="M 148.5,245.5 C 149.167,245.833 149.833,246.167 150.5,246.5C 150.5,247.167 150.5,247.833 150.5,248.5C 149.094,248.027 148.427,247.027 148.5,245.5 Z"/></g>
<g><path style="opacity:1" fill="#3596f5" d="M 148.5,245.5 C 148.427,247.027 149.094,248.027 150.5,248.5C 151.318,253.146 153.318,257.146 156.5,260.5C 153.257,271.246 149.257,281.58 144.5,291.5C 143.024,289.429 141.024,288.429 138.5,288.5C 138.167,288.5 137.833,288.5 137.5,288.5C 137.443,287.391 137.11,286.391 136.5,285.5C 135.844,283.516 135.178,281.516 134.5,279.5C 135.39,278.045 135.39,276.711 134.5,275.5C 134.901,273.566 135.901,272.066 137.5,271C 136.663,269.989 136.33,268.822 136.5,267.5C 138.321,263.09 140.654,258.924 143.5,255C 142.663,253.989 142.33,252.822 142.5,251.5C 142.796,249.597 143.463,247.93 144.5,246.5C 145.708,245.766 147.041,245.433 148.5,245.5 Z"/></g>
<g><path style="opacity:1" fill="#c1c28f" d="M 156.5,256.5 C 160.217,257.92 162.55,260.587 163.5,264.5C 161.177,261.874 158.843,259.207 156.5,256.5 Z"/></g>
<g><path style="opacity:0.694" fill="#569dd9" d="M 142.5,251.5 C 142.33,252.822 142.663,253.989 143.5,255C 140.654,258.924 138.321,263.09 136.5,267.5C 137.536,261.715 139.536,256.382 142.5,251.5 Z"/></g>
<g><path style="opacity:1" fill="#4eb1f7" d="M 150.5,248.5 C 151.488,249.795 152.488,251.128 153.5,252.5C 154.5,253.833 155.5,255.167 156.5,256.5C 158.843,259.207 161.177,261.874 163.5,264.5C 165.737,266.647 167.737,268.98 169.5,271.5C 169.738,273.404 170.738,274.738 172.5,275.5C 172.177,280.033 174.177,282.866 178.5,284C 185.249,291.408 191.916,298.742 198.5,306C 201.064,307.396 203.731,308.563 206.5,309.5C 206.351,310.552 206.517,311.552 207,312.5C 209.167,314 211.333,315.5 213.5,317C 213.167,317.333 212.833,317.667 212.5,318C 215.504,320.496 218.838,322.329 222.5,323.5C 224.711,324.123 226.711,325.123 228.5,326.5C 229.5,327.167 230.5,327.833 231.5,328.5C 232.082,329.931 232.915,331.264 234,332.5C 234.671,333.252 235.504,333.586 236.5,333.5C 237.833,334.167 238.833,335.167 239.5,336.5C 226.417,341.305 213.417,346.305 200.5,351.5C 199.22,347.888 196.886,345.221 193.5,343.5C 192.415,341.413 190.749,340.08 188.5,339.5C 187.089,337.086 185.089,335.419 182.5,334.5C 181.341,332.75 179.674,331.75 177.5,331.5C 177.167,330.5 176.5,329.833 175.5,329.5C 175.5,329.167 175.5,328.833 175.5,328.5C 168.76,320.255 161.427,312.422 153.5,305C 152.906,304.536 152.239,304.369 151.5,304.5C 150.833,303.167 149.833,302.167 148.5,301.5C 146.878,298.545 144.878,295.878 142.5,293.5C 140.937,292.055 139.604,290.389 138.5,288.5C 141.024,288.429 143.024,289.429 144.5,291.5C 149.257,281.58 153.257,271.246 156.5,260.5C 153.318,257.146 151.318,253.146 150.5,248.5 Z"/></g>
<g><path style="opacity:1" fill="#eb520c" d="M 265.5,264.5 C 277.948,263.917 290.281,264.751 302.5,267C 306.307,268.428 309.974,269.928 313.5,271.5C 313.5,272.5 313.5,273.5 313.5,274.5C 328.414,279.58 338.58,289.58 344,304.5C 346.308,309.589 347.475,314.923 347.5,320.5C 345.784,320.371 344.117,320.038 342.5,319.5C 342.5,319.167 342.5,318.833 342.5,318.5C 343.396,315.873 343.23,313.206 342,310.5C 335.221,292.72 322.888,280.72 305,274.5C 304.098,274.743 303.265,275.077 302.5,275.5C 301.833,275.5 301.167,275.5 300.5,275.5C 300.196,274.85 299.863,274.183 299.5,273.5C 290.028,270.694 280.361,269.86 270.5,271C 268.942,271.21 267.609,271.71 266.5,272.5C 253.717,272.759 242.383,276.759 232.5,284.5C 230.596,284.262 229.262,283.262 228.5,281.5C 229.897,279.621 231.563,277.954 233.5,276.5C 239.59,273.783 245.59,271.116 251.5,268.5C 256.324,267.332 260.991,265.998 265.5,264.5 Z"/></g>
<g><path style="opacity:1" fill="#afc1a0" d="M 169.5,271.5 C 171.262,272.262 172.262,273.596 172.5,275.5C 170.738,274.738 169.738,273.404 169.5,271.5 Z"/></g>
<g><path style="opacity:0.875" fill="#e17138" d="M 300.5,275.5 C 290.087,273.434 279.754,273.101 269.5,274.5C 268.778,273.449 267.778,272.782 266.5,272.5C 267.609,271.71 268.942,271.21 270.5,271C 280.361,269.86 290.028,270.694 299.5,273.5C 299.863,274.183 300.196,274.85 300.5,275.5 Z"/></g>
<g><path style="opacity:1" fill="#fc9a13" d="M 266.5,272.5 C 267.778,272.782 268.778,273.449 269.5,274.5C 274.109,282.283 278.942,289.949 284,297.5C 287.236,303.031 289.069,308.698 289.5,314.5C 289.004,317.429 287.338,319.095 284.5,319.5C 271.766,315.433 260.1,308.6 249.5,299C 242.757,295.424 237.091,290.59 232.5,284.5C 242.383,276.759 253.717,272.759 266.5,272.5 Z"/></g>
<g><path style="opacity:0.827" fill="#4e96d9" d="M 136.5,267.5 C 136.33,268.822 136.663,269.989 137.5,271C 135.901,272.066 134.901,273.566 134.5,275.5C 135.39,276.711 135.39,278.045 134.5,279.5C 135.178,281.516 135.844,283.516 136.5,285.5C 135.272,284.694 134.272,283.694 133.5,282.5C 133.167,282.5 132.833,282.5 132.5,282.5C 131.833,282.5 131.167,282.5 130.5,282.5C 132.125,277.281 134.125,272.281 136.5,267.5 Z"/></g>
<g><path style="opacity:0.996" fill="#dcc872" d="M 174.5,276.5 C 177.213,278.214 179.213,280.547 180.5,283.5C 177.757,281.761 175.757,279.427 174.5,276.5 Z"/></g>
<g><path style="opacity:1" fill="#fbb129" d="M 132.5,282.5 C 132.833,282.5 133.167,282.5 133.5,282.5C 133.342,285.522 134.675,287.522 137.5,288.5C 137.213,292.215 138.88,294.548 142.5,295.5C 139.915,307.932 135.582,319.598 129.5,330.5C 127.167,328.5 124.833,326.5 122.5,324.5C 122.167,323.833 121.833,323.167 121.5,322.5C 121.5,321.833 121.5,321.167 121.5,320.5C 120.278,316.511 120.444,312.511 122,308.5C 125.124,301.257 127.957,293.923 130.5,286.5C 130.733,284.938 131.4,283.605 132.5,282.5 Z"/></g>
<g><path style="opacity:1" fill="#ccbc7d" d="M 133.5,282.5 C 134.272,283.694 135.272,284.694 136.5,285.5C 137.11,286.391 137.443,287.391 137.5,288.5C 134.675,287.522 133.342,285.522 133.5,282.5 Z"/></g>
<g><path style="opacity:1" fill="#c7c68b" d="M 181.5,285.5 C 187.108,289.439 192.108,294.106 196.5,299.5C 190.892,295.561 185.892,290.894 181.5,285.5 Z"/></g>
<g><path style="opacity:1" fill="#73b3d3" d="M 172.5,275.5 C 173.167,275.833 173.833,276.167 174.5,276.5C 175.757,279.427 177.757,281.761 180.5,283.5C 180.833,284.167 181.167,284.833 181.5,285.5C 185.892,290.894 190.892,295.561 196.5,299.5C 196.5,300.167 196.833,300.5 197.5,300.5C 198.882,302.549 200.548,304.215 202.5,305.5C 204.139,306.473 205.473,307.806 206.5,309.5C 203.731,308.563 201.064,307.396 198.5,306C 191.916,298.742 185.249,291.408 178.5,284C 174.177,282.866 172.177,280.033 172.5,275.5 Z"/></g>
<g><path style="opacity:0.875" fill="#e16c2f" d="M 342.5,318.5 C 336.763,297.096 323.429,282.763 302.5,275.5C 303.265,275.077 304.098,274.743 305,274.5C 322.888,280.72 335.221,292.72 342,310.5C 343.23,313.206 343.396,315.873 342.5,318.5 Z"/></g>
<g><path style="opacity:0.761" fill="#dc5016" d="M 313.5,271.5 C 334.73,280.242 346.73,296.076 349.5,319C 347.328,323.461 344.995,323.628 342.5,319.5C 344.117,320.038 345.784,320.371 347.5,320.5C 347.475,314.923 346.308,309.589 344,304.5C 338.58,289.58 328.414,279.58 313.5,274.5C 313.5,273.5 313.5,272.5 313.5,271.5 Z"/></g>
<g><path style="opacity:0.176" fill="#c69085" d="M 130.5,282.5 C 131.167,282.5 131.833,282.5 132.5,282.5C 131.4,283.605 130.733,284.938 130.5,286.5C 129.272,287.306 128.272,288.306 127.5,289.5C 127.707,286.759 128.707,284.426 130.5,282.5 Z"/></g>
<g><path style="opacity:1" fill="#e5b858" d="M 137.5,288.5 C 137.833,288.5 138.167,288.5 138.5,288.5C 139.604,290.389 140.937,292.055 142.5,293.5C 142.5,294.167 142.5,294.833 142.5,295.5C 138.88,294.548 137.213,292.215 137.5,288.5 Z"/></g>
<g><path style="opacity:1" fill="#9bbaaf" d="M 142.5,293.5 C 144.878,295.878 146.878,298.545 148.5,301.5C 146.139,299.806 144.139,297.806 142.5,295.5C 142.5,294.833 142.5,294.167 142.5,293.5 Z"/></g>
<g><path style="opacity:1" fill="#fcc43b" d="M 142.5,295.5 C 144.139,297.806 146.139,299.806 148.5,301.5C 149.833,302.167 150.833,303.167 151.5,304.5C 152.167,305.5 152.833,306.5 153.5,307.5C 153.369,308.239 153.536,308.906 154,309.5C 160.756,316.761 167.922,323.428 175.5,329.5C 176.5,329.833 177.167,330.5 177.5,331.5C 178.712,334.107 180.712,335.774 183.5,336.5C 184.922,337.925 186.589,338.925 188.5,339.5C 189.585,341.587 191.251,342.92 193.5,343.5C 196.886,345.221 199.22,347.888 200.5,351.5C 189.906,355.454 179.239,359.454 168.5,363.5C 168.389,362.883 168.056,362.383 167.5,362C 165.527,361.505 163.527,361.338 161.5,361.5C 160.833,361.5 160.5,361.167 160.5,360.5C 158.95,357.937 156.95,355.603 154.5,353.5C 153.583,352.873 152.583,352.539 151.5,352.5C 150.508,352.672 149.842,352.338 149.5,351.5C 143.193,345.528 136.86,339.528 130.5,333.5C 130.443,332.391 130.11,331.391 129.5,330.5C 135.582,319.598 139.915,307.932 142.5,295.5 Z"/></g>
<g><path style="opacity:0.996" fill="#d8c878" d="M 197.5,300.5 C 200.167,301.167 201.833,302.833 202.5,305.5C 200.548,304.215 198.882,302.549 197.5,300.5 Z"/></g>
<g><path style="opacity:0.992" fill="#edad42" d="M 130.5,286.5 C 127.957,293.923 125.124,301.257 122,308.5C 120.444,312.511 120.278,316.511 121.5,320.5C 120.833,320.5 120.167,320.5 119.5,320.5C 119.5,319.167 118.833,318.5 117.5,318.5C 119.658,308.358 122.991,298.692 127.5,289.5C 128.272,288.306 129.272,287.306 130.5,286.5 Z"/></g>
<g><path style="opacity:1" fill="#87b7be" d="M 151.5,304.5 C 152.239,304.369 152.906,304.536 153.5,305C 161.427,312.422 168.76,320.255 175.5,328.5C 168.167,321.5 160.833,314.5 153.5,307.5C 152.833,306.5 152.167,305.5 151.5,304.5 Z"/></g>
<g><path style="opacity:0.996" fill="#dfc96f" d="M 153.5,307.5 C 160.833,314.5 168.167,321.5 175.5,328.5C 175.5,328.833 175.5,329.167 175.5,329.5C 167.922,323.428 160.756,316.761 154,309.5C 153.536,308.906 153.369,308.239 153.5,307.5 Z"/></g>
<g><path style="opacity:1" fill="#ebc75d" d="M 209.5,311.5 C 212.155,311.659 214.488,312.659 216.5,314.5C 218.412,316.99 220.745,318.99 223.5,320.5C 224.386,321.325 224.719,322.325 224.5,323.5C 226.973,323.088 228.306,324.088 228.5,326.5C 226.711,325.123 224.711,324.123 222.5,323.5C 218.84,318.843 214.507,314.843 209.5,311.5 Z"/></g>
<g><path style="opacity:1" fill="#72b3d6" d="M 206.5,309.5 C 207.5,310.167 208.5,310.833 209.5,311.5C 214.507,314.843 218.84,318.843 222.5,323.5C 218.838,322.329 215.504,320.496 212.5,318C 212.833,317.667 213.167,317.333 213.5,317C 211.333,315.5 209.167,314 207,312.5C 206.517,311.552 206.351,310.552 206.5,309.5 Z"/></g>
<g><path style="opacity:0.396" fill="#c89f81" d="M 117.5,318.5 C 118.833,318.5 119.5,319.167 119.5,320.5C 118.167,320.833 116.833,321.167 115.5,321.5C 115.932,320.29 116.599,319.29 117.5,318.5 Z"/></g>
<g><path style="opacity:0.482" fill="#edb248" d="M 280.5,320.5 C 269.679,325.069 258.679,329.402 247.5,333.5C 247.369,332.624 247.702,331.957 248.5,331.5C 258.147,326.967 267.981,322.967 278,319.5C 278.902,319.743 279.735,320.077 280.5,320.5 Z"/></g>
<g><path style="opacity:1" fill="#bebc8c" d="M 119.5,320.5 C 120.167,320.5 120.833,320.5 121.5,320.5C 121.5,321.167 121.5,321.833 121.5,322.5C 120.833,322.5 120.167,322.5 119.5,322.5C 119.5,321.833 119.5,321.167 119.5,320.5 Z"/></g>
<g><path style="opacity:1" fill="#3596f6" d="M 119.5,322.5 C 120.167,322.5 120.833,322.5 121.5,322.5C 121.833,323.167 122.167,323.833 122.5,324.5C 124.427,327.767 126.761,330.767 129.5,333.5C 125.572,344.116 121.739,354.783 118,365.5C 117.329,366.252 116.496,366.586 115.5,366.5C 113.659,365.598 112.326,364.264 111.5,362.5C 111.019,360.362 109.852,358.695 108,357.5C 107.833,356.167 107.667,354.833 107.5,353.5C 108.077,351.191 108.077,349.024 107.5,347C 110.21,345.54 110.876,343.54 109.5,341C 110.167,340.333 110.833,339.667 111.5,339C 110.748,338.329 110.414,337.496 110.5,336.5C 111.827,334.195 113.661,331.861 116,329.5C 116.72,327.888 116.554,326.388 115.5,325C 116.308,323.294 117.641,322.461 119.5,322.5 Z"/></g>
<g><path style="opacity:0.996" fill="#85a9b2" d="M 122.5,324.5 C 124.833,326.5 127.167,328.5 129.5,330.5C 130.11,331.391 130.443,332.391 130.5,333.5C 130.167,333.5 129.833,333.5 129.5,333.5C 126.761,330.767 124.427,327.767 122.5,324.5 Z"/></g>
<g><path style="opacity:1" fill="#509ade" d="M 119.5,320.5 C 119.5,321.167 119.5,321.833 119.5,322.5C 117.641,322.461 116.308,323.294 115.5,325C 116.554,326.388 116.72,327.888 116,329.5C 113.661,331.861 111.827,334.195 110.5,336.5C 111.88,331.406 113.547,326.406 115.5,321.5C 116.833,321.167 118.167,320.833 119.5,320.5 Z"/></g>
<g><path style="opacity:1" fill="#8db7be" d="M 231.5,328.5 C 233.23,329.026 234.564,330.026 235.5,331.5C 235.833,332.167 236.167,332.833 236.5,333.5C 235.504,333.586 234.671,333.252 234,332.5C 232.915,331.264 232.082,329.931 231.5,328.5 Z"/></g>
<g><path style="opacity:1" fill="#97bab3" d="M 130.5,333.5 C 136.86,339.528 143.193,345.528 149.5,351.5C 146.337,350.679 143.67,349.012 141.5,346.5C 137.412,342.421 133.745,338.088 130.5,333.5 Z"/></g>
<g><path style="opacity:1" fill="#d7c778" d="M 177.5,331.5 C 179.674,331.75 181.341,332.75 182.5,334.5C 182.833,335.167 183.167,335.833 183.5,336.5C 180.712,335.774 178.712,334.107 177.5,331.5 Z"/></g>
<g><path style="opacity:0.635" fill="#c0b78e" d="M 235.5,331.5 C 237.749,332.08 239.415,333.413 240.5,335.5C 240.5,336.167 240.167,336.5 239.5,336.5C 238.833,335.167 237.833,334.167 236.5,333.5C 236.167,332.833 235.833,332.167 235.5,331.5 Z"/></g>
<g><path style="opacity:1" fill="#50b1f6" d="M 129.5,333.5 C 129.833,333.5 130.167,333.5 130.5,333.5C 133.745,338.088 137.412,342.421 141.5,346.5C 143.67,349.012 146.337,350.679 149.5,351.5C 149.842,352.338 150.508,352.672 151.5,352.5C 153.563,356.231 156.563,358.897 160.5,360.5C 160.5,361.167 160.833,361.5 161.5,361.5C 161.733,363.062 162.4,364.395 163.5,365.5C 151.162,370.168 138.828,374.835 126.5,379.5C 123.899,375.229 120.566,371.563 116.5,368.5C 116.167,367.833 115.833,367.167 115.5,366.5C 116.496,366.586 117.329,366.252 118,365.5C 121.739,354.783 125.572,344.116 129.5,333.5 Z"/></g>
<g><path style="opacity:1" fill="#a4bea9" d="M 182.5,334.5 C 185.089,335.419 187.089,337.086 188.5,339.5C 186.589,338.925 184.922,337.925 183.5,336.5C 183.167,335.833 182.833,335.167 182.5,334.5 Z"/></g>
<g><path style="opacity:1" fill="#a6bea8" d="M 188.5,339.5 C 190.749,340.08 192.415,341.413 193.5,343.5C 191.251,342.92 189.585,341.587 188.5,339.5 Z"/></g>
<g><path style="opacity:1" fill="#539ade" d="M 110.5,336.5 C 110.414,337.496 110.748,338.329 111.5,339C 110.833,339.667 110.167,340.333 109.5,341C 110.876,343.54 110.21,345.54 107.5,347C 108.077,349.024 108.077,351.191 107.5,353.5C 107.667,354.833 107.833,356.167 108,357.5C 109.852,358.695 111.019,360.362 111.5,362.5C 109.539,361.54 107.873,360.207 106.5,358.5C 105.947,356.448 104.947,356.115 103.5,357.5C 103.167,357.5 102.833,357.5 102.5,357.5C 104.796,350.269 107.462,343.269 110.5,336.5 Z"/></g>
<g><path style="opacity:0.996" fill="#a9b9a0" d="M 103.5,357.5 C 104.947,356.115 105.947,356.448 106.5,358.5C 106.167,358.5 105.833,358.5 105.5,358.5C 105.158,357.662 104.492,357.328 103.5,357.5 Z"/></g>
<g><path style="opacity:1" fill="#e2c769" d="M 151.5,352.5 C 152.583,352.539 153.583,352.873 154.5,353.5C 156.95,355.603 158.95,357.937 160.5,360.5C 156.563,358.897 153.563,356.231 151.5,352.5 Z"/></g>
<g><path style="opacity:1" fill="#fab431" d="M 105.5,358.5 C 105.833,358.5 106.167,358.5 106.5,358.5C 107.873,360.207 109.539,361.54 111.5,362.5C 112.326,364.264 113.659,365.598 115.5,366.5C 115.833,367.167 116.167,367.833 116.5,368.5C 119.098,372.438 122.098,376.105 125.5,379.5C 123.819,381.008 121.819,382.008 119.5,382.5C 118.85,382.196 118.183,381.863 117.5,381.5C 111.059,384.372 104.392,385.372 97.5,384.5C 96.9781,383.393 96.6448,382.226 96.5,381C 97.5713,376.881 98.4047,372.715 99,368.5C 99.6543,369.696 100.154,369.696 100.5,368.5C 99.8728,367.583 99.5394,366.583 99.5,365.5C 99.5,365.167 99.5,364.833 99.5,364.5C 100.239,364.631 100.906,364.464 101.5,364C 102.412,361.795 103.745,359.962 105.5,358.5 Z"/></g>
<g><path style="opacity:1" fill="#e2bc64" d="M 161.5,361.5 C 163.527,361.338 165.527,361.505 167.5,362C 168.056,362.383 168.389,362.883 168.5,363.5C 166.833,364.167 165.167,364.833 163.5,365.5C 162.4,364.395 161.733,363.062 161.5,361.5 Z"/></g>
<g><path style="opacity:1" fill="#d5b16e" d="M 102.5,357.5 C 102.833,357.5 103.167,357.5 103.5,357.5C 104.492,357.328 105.158,357.662 105.5,358.5C 103.745,359.962 102.412,361.795 101.5,364C 100.906,364.464 100.239,364.631 99.5,364.5C 100.227,362.046 101.227,359.713 102.5,357.5 Z"/></g>
<g><path style="opacity:1" fill="#c6bc84" d="M 116.5,368.5 C 120.566,371.563 123.899,375.229 126.5,379.5C 126.167,379.5 125.833,379.5 125.5,379.5C 122.098,376.105 119.098,372.438 116.5,368.5 Z"/></g>
<g><path style="opacity:0.749" fill="#e57a91" d="M 237.5,362.5 C 239.229,363.117 240.729,364.117 242,365.5C 244.994,370.471 246.328,375.804 246,381.5C 243.88,384.08 241.713,384.08 239.5,381.5C 236.774,376.082 235.274,370.415 235,364.5C 235.995,363.934 236.828,363.267 237.5,362.5 Z"/></g>
<g><path style="opacity:0.992" fill="#edad43" d="M 99.5,365.5 C 99.5394,366.583 99.8728,367.583 100.5,368.5C 100.154,369.696 99.6543,369.696 99,368.5C 98.4047,372.715 97.5713,376.881 96.5,381C 96.6448,382.226 96.9781,383.393 97.5,384.5C 104.392,385.372 111.059,384.372 117.5,381.5C 118.183,381.863 118.85,382.196 119.5,382.5C 113.333,385.337 106.833,387.337 100,388.5C 98.108,387.87 96.4413,386.87 95,385.5C 94.1526,378.23 95.6526,371.564 99.5,365.5 Z"/></g>
</svg>
