<?xml version="1.0" encoding="UTF-8"?>
<!DOCTYPE svg PUBLIC "-//W3C//DTD SVG 1.1//EN" "http://www.w3.org/Graphics/SVG/1.1/DTD/svg11.dtd">
<svg xmlns="http://www.w3.org/2000/svg" version="1.1" width="373px" height="512px" style="shape-rendering:geometricPrecision; text-rendering:geometricPrecision; image-rendering:optimizeQuality; fill-rule:evenodd; clip-rule:evenodd" xmlns:xlink="http://www.w3.org/1999/xlink">
<g><path style="opacity:1" fill="#f6a112" d="M 148.5,127.5 C 98.9771,221.212 49.9771,315.212 1.5,409.5C 1.5,409.833 1.5,410.167 1.5,410.5C 0.548855,409.081 0.215521,407.415 0.5,405.5C 1.77633,403.438 2.60966,401.104 3,398.5C 23.0556,268.443 43.3889,138.443 64,8.5C 70.1641,-0.424581 76.8307,-0.757914 84,7.5C 104.751,48.0077 126.251,88.0077 148.5,127.5 Z"/></g>
<g><path style="opacity:1" fill="#f8a311" d="M 79.5,42.5 C 84.714,42.9404 89.3807,44.7737 93.5,48C 109.913,66.9822 122.08,88.4822 130,112.5C 134.219,130.195 132.219,147.195 124,163.5C 109.736,191.417 95.0694,219.084 80,246.5C 71.72,261.445 61.8867,275.279 50.5,288C 47.8884,289.889 45.0551,291.389 42,292.5C 36.0136,289.883 33.0136,285.216 33,278.5C 32.3534,252.314 34.3534,226.314 39,200.5C 45.2536,156.312 52.5869,112.312 61,68.5C 62.6555,61.189 65.6555,54.5224 70,48.5C 72.8426,45.8373 76.0093,43.8373 79.5,42.5 Z"/></g>
<g><path style="opacity:1" fill="#fba412" d="M 79.5,51.5 C 83.8131,51.5483 87.8131,52.715 91.5,55C 107.767,72.3589 119.267,92.5255 126,115.5C 129.367,131.536 127.367,146.869 120,161.5C 103.197,197.125 83.8636,231.125 62,263.5C 58.8333,266.667 55.6667,269.833 52.5,273C 48.5262,275.364 45.0262,274.864 42,271.5C 39.9821,265.002 38.8154,258.336 38.5,251.5C 44.1893,191.698 53.0226,132.365 65,73.5C 66.634,63.8575 71.4674,56.5242 79.5,51.5 Z"/></g>
<g><path style="opacity:1" fill="#fea40e" d="M 234.5,155.5 C 224.774,167.732 214.107,179.232 202.5,190C 200.635,191.301 198.635,191.635 196.5,191C 182.779,168.397 169.945,145.23 158,121.5C 157.505,119.527 157.338,117.527 157.5,115.5C 163.128,102.91 169.295,90.5765 176,78.5C 180.657,72.8115 186.157,71.9781 192.5,76C 207.177,102.19 221.177,128.69 234.5,155.5 Z"/></g>
<g><path style="opacity:0.729" fill="#fcdc62" d="M 371.5,409.5 C 370.833,409.5 370.167,409.5 369.5,409.5C 353.966,309.296 337.466,209.296 320,109.5C 316.095,105.488 311.595,104.655 306.5,107C 285.965,127.702 265.299,148.202 244.5,168.5C 244.167,168.5 243.833,168.5 243.5,168.5C 243.5,167.833 243.5,167.167 243.5,166.5C 264.299,146.202 284.965,125.702 305.5,105C 311.847,102.286 317.347,103.453 322,108.5C 339.361,208.669 355.861,309.002 371.5,409.5 Z"/></g>
<g><path style="opacity:1" fill="#fbc93f" d="M 369.5,409.5 C 312.013,442.414 254.013,474.581 195.5,506C 183.27,509.154 171.937,507.154 161.5,500C 107.943,470.392 54.6095,440.559 1.5,410.5C 83.118,330.549 164.118,249.882 244.5,168.5C 265.299,148.202 285.965,127.702 306.5,107C 311.595,104.655 316.095,105.488 320,109.5C 337.466,209.296 353.966,309.296 369.5,409.5 Z"/></g>
<g><path style="opacity:1" fill="#f7a00e" d="M 157.5,115.5 C 157.338,117.527 157.505,119.527 158,121.5C 169.945,145.23 182.779,168.397 196.5,191C 198.635,191.635 200.635,191.301 202.5,190C 214.107,179.232 224.774,167.732 234.5,155.5C 236.008,157.181 237.008,159.181 237.5,161.5C 226.339,172.828 215.339,184.328 204.5,196C 199.499,199.713 194.999,199.213 191,194.5C 179,172.5 167,150.5 155,128.5C 153.872,126.655 153.372,124.655 153.5,122.5C 154.584,119.996 155.917,117.663 157.5,115.5 Z"/></g>
<g><path style="opacity:1" fill="#ef9b0d" d="M 153.5,122.5 C 153.372,124.655 153.872,126.655 155,128.5C 167,150.5 179,172.5 191,194.5C 194.999,199.213 199.499,199.713 204.5,196C 215.339,184.328 226.339,172.828 237.5,161.5C 238.401,162.29 239.068,163.29 239.5,164.5C 228.401,177.101 216.735,189.268 204.5,201C 198.559,204.871 193.393,204.038 189,198.5C 184.333,189.833 179.667,181.167 175,172.5C 174.31,171.262 173.81,171.262 173.5,172.5C 165.327,158.156 157.66,143.49 150.5,128.5C 150.992,126.181 151.992,124.181 153.5,122.5 Z"/></g>
<g><path style="opacity:1" fill="#f6820c" d="M 148.5,127.5 C 148.833,127.5 149.167,127.5 149.5,127.5C 149.5,128.167 149.833,128.5 150.5,128.5C 157.66,143.49 165.327,158.156 173.5,172.5C 180.565,186.963 187.898,201.296 195.5,215.5C 131.167,280.5 66.5,345.167 1.5,409.5C 49.9771,315.212 98.9771,221.212 148.5,127.5 Z"/></g>
<g><path style="opacity:0.812" fill="#f5be5c" d="M 243.5,166.5 C 243.5,167.167 243.5,167.833 243.5,168.5C 242.833,168.833 242.167,169.167 241.5,169.5C 241.598,167.447 240.931,165.78 239.5,164.5C 239.068,163.29 238.401,162.29 237.5,161.5C 237.008,159.181 236.008,157.181 234.5,155.5C 221.177,128.69 207.177,102.19 192.5,76C 186.157,71.9781 180.657,72.8115 176,78.5C 169.295,90.5765 163.128,102.91 157.5,115.5C 155.917,117.663 154.584,119.996 153.5,122.5C 151.992,124.181 150.992,126.181 150.5,128.5C 149.833,128.5 149.5,128.167 149.5,127.5C 149.167,126.833 148.833,126.167 148.5,125.5C 156.348,109.164 165.181,92.4972 175,75.5C 179.439,71.658 184.605,70.4913 190.5,72C 194.958,74.74 198.125,78.5733 200,83.5C 214.364,111.33 228.864,138.997 243.5,166.5 Z"/></g>
<g><path style="opacity:0.741" fill="#fcc148" d="M 69.5,-0.5 C 72.5,-0.5 75.5,-0.5 78.5,-0.5C 80.3545,0.689603 82.1879,2.02294 84,3.5C 105.78,44.0622 127.28,84.7289 148.5,125.5C 148.833,126.167 149.167,126.833 149.5,127.5C 149.167,127.5 148.833,127.5 148.5,127.5C 126.251,88.0077 104.751,48.0077 84,7.5C 76.8307,-0.757914 70.1641,-0.424581 64,8.5C 43.3889,138.443 23.0556,268.443 3,398.5C 2.60966,401.104 1.77633,403.438 0.5,405.5C 20.5333,272.285 41.3666,138.952 63,5.5C 65.0627,3.26589 67.2294,1.26589 69.5,-0.5 Z"/></g>
<g><path style="opacity:1" fill="#eb9a13" d="M 239.5,164.5 C 240.931,165.78 241.598,167.447 241.5,169.5C 226.5,185.167 211.167,200.5 195.5,215.5C 187.898,201.296 180.565,186.963 173.5,172.5C 173.81,171.262 174.31,171.262 175,172.5C 179.667,181.167 184.333,189.833 189,198.5C 193.393,204.038 198.559,204.871 204.5,201C 216.735,189.268 228.401,177.101 239.5,164.5 Z"/></g>
<g><path style="opacity:1" fill="#fcd759" d="M 243.5,168.5 C 243.833,168.5 244.167,168.5 244.5,168.5C 164.118,249.882 83.118,330.549 1.5,410.5C 1.5,410.167 1.5,409.833 1.5,409.5C 66.5,345.167 131.167,280.5 195.5,215.5C 211.167,200.5 226.5,185.167 241.5,169.5C 242.167,169.167 242.833,168.833 243.5,168.5 Z"/></g>
<g><path style="opacity:1" fill="#f1b23d" d="M -0.5,405.5 C -0.166667,405.5 0.166667,405.5 0.5,405.5C 0.215521,407.415 0.548855,409.081 1.5,410.5C 54.6095,440.559 107.943,470.392 161.5,500C 171.937,507.154 183.27,509.154 195.5,506C 254.013,474.581 312.013,442.414 369.5,409.5C 370.167,409.5 370.833,409.5 371.5,409.5C 371.5,410.167 371.833,410.5 372.5,410.5C 372.5,411.167 372.5,411.833 372.5,412.5C 314.221,444.642 255.888,476.809 197.5,509C 194.372,509.841 191.372,510.675 188.5,511.5C 186.5,511.5 184.5,511.5 182.5,511.5C 174.76,510.146 167.426,507.313 160.5,503C 107.498,472.812 53.8313,442.979 -0.5,413.5C -0.5,410.833 -0.5,408.167 -0.5,405.5 Z"/></g>
</svg>
