<?xml version="1.0" encoding="UTF-8"?>
<!DOCTYPE svg PUBLIC "-//W3C//DTD SVG 1.1//EN" "http://www.w3.org/Graphics/SVG/1.1/DTD/svg11.dtd">
<svg xmlns="http://www.w3.org/2000/svg" version="1.1" width="1600px" height="1600px" style="shape-rendering:geometricPrecision; text-rendering:geometricPrecision; image-rendering:optimizeQuality; fill-rule:evenodd; clip-rule:evenodd" xmlns:xlink="http://www.w3.org/1999/xlink">
<g><path style="opacity:0.993" fill="#000000" d="M 713.5,99.5 C 920.167,92.6321 1093.67,164.299 1234,314.5C 1357.84,456.684 1412.17,622.351 1397,811.5C 1377.05,988.598 1299.55,1134.43 1164.5,1249C 1101.84,1300.85 1031.5,1339.51 953.5,1365C 930.935,1366.44 914.768,1356.94 905,1336.5C 902.934,1331.64 901.268,1326.64 900,1321.5C 899.878,1243.83 899.211,1166.16 898,1088.5C 897.714,1070.35 893.214,1053.35 884.5,1037.5C 926.355,1029.37 967.022,1017.2 1006.5,1001C 1062.01,977.471 1108.18,941.971 1145,894.5C 1187.02,833.077 1204.69,765.077 1198,690.5C 1194.57,628.213 1175.24,571.546 1140,520.5C 1132.4,510.393 1124.23,500.727 1115.5,491.5C 1123.55,477.188 1128.72,461.855 1131,445.5C 1138.02,405.007 1134.02,365.674 1119,327.5C 1114.59,318.337 1109.42,309.671 1103.5,301.5C 1059.44,300.348 1018.11,310.514 979.5,332C 962.295,342.1 945.961,353.434 930.5,366C 923.897,373.109 916.897,379.609 909.5,385.5C 857.423,369.323 804.089,361.656 749.5,362.5C 703.437,362.091 658.104,367.591 613.5,379C 604.992,381.336 596.658,384.169 588.5,387.5C 539.36,334.935 478.694,305.935 406.5,300.5C 402.833,300.667 399.167,300.833 395.5,301C 378.385,324.666 368.551,351.166 366,380.5C 362.467,414.238 366.8,446.904 379,478.5C 381.327,483.825 384.16,488.825 387.5,493.5C 334.967,549.182 306.133,615.515 301,692.5C 293.116,825.612 347.282,923.779 463.5,987C 511.722,1011.13 562.389,1027.96 615.5,1037.5C 606.291,1055.7 601.458,1075.04 601,1095.5C 600.667,1105.17 600.333,1114.83 600,1124.5C 588.719,1129.61 576.886,1132.78 564.5,1134C 521.332,1139.7 480.999,1131.7 443.5,1110C 422.405,1094.98 405.572,1076.15 393,1053.5C 369.116,1022.89 337.782,1005.55 299,1001.5C 292.387,1002.06 285.887,1003.22 279.5,1005C 271.275,1008.67 269.775,1014.17 275,1021.5C 283.295,1030.13 292.462,1037.63 302.5,1044C 320.446,1060.27 334.946,1079.1 346,1100.5C 352.94,1114.71 359.607,1129.05 366,1143.5C 401.597,1197.74 452.097,1226.9 517.5,1231C 544.287,1232.39 570.787,1230.23 597,1224.5C 597.833,1224.83 598.667,1225.17 599.5,1225.5C 600.921,1257.48 600.754,1289.48 599,1321.5C 593.971,1344.53 580.138,1359.03 557.5,1365C 552.096,1365.77 546.762,1365.44 541.5,1364C 394.403,1312.87 279.236,1221.71 196,1090.5C 103.79,936.233 77.4569,771.233 117,595.5C 160.233,427.405 254.066,295.905 398.5,201C 494.745,140.197 599.745,106.363 713.5,99.5 Z"/></g>
</svg>
