<?xml version="1.0" encoding="UTF-8"?>
<!DOCTYPE svg PUBLIC "-//W3C//DTD SVG 1.1//EN" "http://www.w3.org/Graphics/SVG/1.1/DTD/svg11.dtd">
<svg xmlns="http://www.w3.org/2000/svg" version="1.1" width="300px" height="300px" style="shape-rendering:geometricPrecision; text-rendering:geometricPrecision; image-rendering:optimizeQuality; fill-rule:evenodd; clip-rule:evenodd" xmlns:xlink="http://www.w3.org/1999/xlink">
<g><path style="opacity:0.979" fill="#000000" d="M 75.5,21.5 C 79.5,21.5 83.5,21.5 87.5,21.5C 87.5,25.1667 87.5,28.8333 87.5,32.5C 90.8333,32.5 94.1667,32.5 97.5,32.5C 97.5,28.8333 97.5,25.1667 97.5,21.5C 101.5,21.5 105.5,21.5 109.5,21.5C 109.5,33.1667 109.5,44.8333 109.5,56.5C 105.5,56.5 101.5,56.5 97.5,56.5C 97.5,52.5 97.5,48.5 97.5,44.5C 94.1667,44.5 90.8333,44.5 87.5,44.5C 87.5,48.5 87.5,52.5 87.5,56.5C 83.5,56.5 79.5,56.5 75.5,56.5C 75.5,44.8333 75.5,33.1667 75.5,21.5 Z"/></g>
<g><path style="opacity:0.931" fill="#000000" d="M 113.5,21.5 C 124.5,21.5 135.5,21.5 146.5,21.5C 146.5,25.5 146.5,29.5 146.5,33.5C 143.167,33.5 139.833,33.5 136.5,33.5C 136.5,41.1667 136.5,48.8333 136.5,56.5C 132.167,56.5 127.833,56.5 123.5,56.5C 123.5,48.8333 123.5,41.1667 123.5,33.5C 120.167,33.5 116.833,33.5 113.5,33.5C 113.5,29.5 113.5,25.5 113.5,21.5 Z"/></g>
<g><path style="opacity:0.931" fill="#000000" d="M 150.5,21.5 C 155.179,21.3342 159.845,21.5008 164.5,22C 166.302,25.3001 168.302,28.4668 170.5,31.5C 172.735,28.7089 174.735,25.7089 176.5,22.5C 181.12,21.5067 185.786,21.1734 190.5,21.5C 190.5,33.1667 190.5,44.8333 190.5,56.5C 186.5,56.5 182.5,56.5 178.5,56.5C 178.666,51.4889 178.499,46.4889 178,41.5C 175.732,45.0506 173.232,48.3839 170.5,51.5C 167.856,48.8915 165.689,45.8915 164,42.5C 163.501,47.1548 163.334,51.8215 163.5,56.5C 159.167,56.5 154.833,56.5 150.5,56.5C 150.5,44.8333 150.5,33.1667 150.5,21.5 Z"/></g>
<g><path style="opacity:0.96" fill="#000000" d="M 195.5,21.5 C 199.5,21.5 203.5,21.5 207.5,21.5C 207.5,29.1667 207.5,36.8333 207.5,44.5C 213.167,44.5 218.833,44.5 224.5,44.5C 224.5,48.5 224.5,52.5 224.5,56.5C 214.833,56.5 205.167,56.5 195.5,56.5C 195.5,44.8333 195.5,33.1667 195.5,21.5 Z"/></g>
<g><path style="opacity:0.993" fill="#e44d26" d="M 58.5,71.5 C 119.167,71.5 179.833,71.5 240.5,71.5C 235.434,133.561 229.767,195.561 223.5,257.5C 198.911,264.48 174.244,271.147 149.5,277.5C 124.672,271.446 100.005,264.78 75.5,257.5C 69.2329,195.561 63.5662,133.561 58.5,71.5 Z"/></g>
<g><path style="opacity:1" fill="#f16529" d="M 149.5,238.5 C 150.492,238.672 151.158,238.338 151.5,237.5C 166.441,233.348 181.441,229.348 196.5,225.5C 197.959,202.118 199.959,178.785 202.5,155.5C 184.833,155.5 167.167,155.5 149.5,155.5C 149.5,147.833 149.5,140.167 149.5,132.5C 167.833,132.5 186.167,132.5 204.5,132.5C 205.084,124.826 205.751,117.159 206.5,109.5C 187.5,109.5 168.5,109.5 149.5,109.5C 149.5,101.833 149.5,94.1667 149.5,86.5C 174.167,86.5 198.833,86.5 223.5,86.5C 218.954,139.511 214.287,192.511 209.5,245.5C 189.546,250.958 169.546,256.292 149.5,261.5C 149.5,253.833 149.5,246.167 149.5,238.5 Z"/></g>
<g><path style="opacity:1" fill="#ebeaea" d="M 149.5,109.5 C 149.5,117.167 149.5,124.833 149.5,132.5C 138.833,132.5 128.167,132.5 117.5,132.5C 118.407,140.141 119.073,147.807 119.5,155.5C 129.5,155.5 139.5,155.5 149.5,155.5C 149.5,163.167 149.5,170.833 149.5,178.5C 132.5,178.5 115.5,178.5 98.5,178.5C 96.4996,155.497 94.4996,132.497 92.5,109.5C 111.5,109.5 130.5,109.5 149.5,109.5 Z"/></g>
<g><path style="opacity:1" fill="#fffefe" d="M 149.5,109.5 C 168.5,109.5 187.5,109.5 206.5,109.5C 205.751,117.159 205.084,124.826 204.5,132.5C 186.167,132.5 167.833,132.5 149.5,132.5C 149.5,124.833 149.5,117.167 149.5,109.5 Z"/></g>
<g><path style="opacity:1" fill="#e44d26" d="M 149.5,132.5 C 149.5,140.167 149.5,147.833 149.5,155.5C 139.5,155.5 129.5,155.5 119.5,155.5C 119.073,147.807 118.407,140.141 117.5,132.5C 128.167,132.5 138.833,132.5 149.5,132.5 Z"/></g>
<g><path style="opacity:1" fill="#fffdfd" d="M 149.5,155.5 C 167.167,155.5 184.833,155.5 202.5,155.5C 199.959,178.785 197.959,202.118 196.5,225.5C 181.441,229.348 166.441,233.348 151.5,237.5C 149.535,230.24 148.868,222.573 149.5,214.5C 157.471,212.173 165.471,209.839 173.5,207.5C 174.251,206.624 174.751,205.624 175,204.5C 175.744,195.814 176.577,187.147 177.5,178.5C 168.167,178.5 158.833,178.5 149.5,178.5C 149.5,170.833 149.5,163.167 149.5,155.5 Z"/></g>
<g><path style="opacity:1" fill="#f1662b" d="M 149.5,178.5 C 158.833,178.5 168.167,178.5 177.5,178.5C 176.577,187.147 175.744,195.814 175,204.5C 174.751,205.624 174.251,206.624 173.5,207.5C 165.471,209.839 157.471,212.173 149.5,214.5C 148.209,214.737 147.209,214.404 146.5,213.5C 147.5,213.5 148.5,213.5 149.5,213.5C 149.5,201.833 149.5,190.167 149.5,178.5 Z"/></g>
<g><path style="opacity:1" fill="#ebe8e8" d="M 146.5,213.5 C 147.209,214.404 148.209,214.737 149.5,214.5C 148.868,222.573 149.535,230.24 151.5,237.5C 151.158,238.338 150.492,238.672 149.5,238.5C 134.169,234.334 118.836,230.167 103.5,226C 101.9,213.904 100.566,201.738 99.5,189.5C 107.167,189.5 114.833,189.5 122.5,189.5C 123.064,195.531 123.897,201.531 125,207.5C 132.047,209.887 139.213,211.887 146.5,213.5 Z"/></g>
</svg>
