<?xml version="1.0" encoding="UTF-8"?>
<!DOCTYPE svg PUBLIC "-//W3C//DTD SVG 1.1//EN" "http://www.w3.org/Graphics/SVG/1.1/DTD/svg11.dtd">
<svg xmlns="http://www.w3.org/2000/svg" version="1.1" width="379px" height="512px" style="shape-rendering:geometricPrecision; text-rendering:geometricPrecision; image-rendering:optimizeQuality; fill-rule:evenodd; clip-rule:evenodd" xmlns:xlink="http://www.w3.org/1999/xlink">
<g><path style="opacity:0.955" fill="#e76e00" d="M 239.5,-0.5 C 239.833,-0.5 240.167,-0.5 240.5,-0.5C 253.332,15.8441 257.166,34.1774 252,54.5C 246.115,74.2768 236.115,91.6102 222,106.5C 203.966,123.536 185.633,140.203 167,156.5C 144.889,180.946 142.889,206.946 161,234.5C 171.621,249.128 181.454,264.295 190.5,280C 190.167,280.167 189.833,280.333 189.5,280.5C 169.444,264.278 151.611,245.945 136,225.5C 129.148,215.796 124.482,205.13 122,193.5C 120.373,181.967 122.707,171.3 129,161.5C 133.623,155.208 138.623,149.208 144,143.5C 164.542,125.956 185.376,108.789 206.5,92C 218.878,81.0576 228.712,68.2242 236,53.5C 243.163,35.89 244.33,17.89 239.5,-0.5 Z"/></g>
<g><path style="opacity:0.958" fill="#e76e00" d="M 303.5,103.5 C 304.773,104.077 304.773,104.743 303.5,105.5C 277.98,119.341 254.48,136.008 233,155.5C 227.128,161.909 222.795,169.242 220,177.5C 218.68,187.222 220.68,196.222 226,204.5C 233.414,214.323 240.081,224.656 246,235.5C 249.967,249.59 247.3,262.257 238,273.5C 229.55,283.455 219.717,291.622 208.5,298C 207.5,298.667 206.5,298.667 205.5,298C 220.888,285.201 224.721,269.701 217,251.5C 175.552,205.414 181.052,165.914 233.5,133C 255.823,120.512 279.156,110.678 303.5,103.5 Z"/></g>
<g><path style="opacity:0.945" fill="#5382a1" d="M 331.5,275.5 C 348.123,274.86 361.623,280.86 372,293.5C 380.972,311.979 378.306,328.646 364,343.5C 344.109,360.864 321.275,371.864 295.5,376.5C 295.977,375.522 296.643,374.689 297.5,374C 315.593,365.246 331.427,353.413 345,338.5C 352.556,329.501 355.889,319.167 355,307.5C 348.917,289.697 336.417,281.864 317.5,284C 313.855,285.166 310.188,285.833 306.5,286C 308.539,283.626 310.872,281.626 313.5,280C 319.52,278.036 325.52,276.536 331.5,275.5 Z"/></g>
<g><path style="opacity:0.942" fill="#5382a1" d="M 119.5,280.5 C 123.555,280.176 127.555,280.509 131.5,281.5C 114.526,285.657 98.1931,291.49 82.5,299C 77.0091,303.072 77.6757,306.072 84.5,308C 89.4057,309.476 94.4057,310.476 99.5,311C 145.563,313.998 191.563,312.998 237.5,308C 257.899,305.419 278.232,302.752 298.5,300C 290.671,304.08 283.004,308.413 275.5,313C 232.383,322.693 188.716,327.193 144.5,326.5C 119.714,326.909 95.0473,325.409 70.5,322C 60.238,320.898 50.738,317.732 42,312.5C 41.6905,311.234 41.1905,310.067 40.5,309C 42.1409,304.692 45.1409,301.692 49.5,300C 71.8264,289.422 95.1598,282.922 119.5,280.5 Z"/></g>
<g><path style="opacity:0.959" fill="#5382a1" d="M 108.5,338.5 C 109.239,338.369 109.906,338.536 110.5,339C 99.3975,349.943 101.731,356.277 117.5,358C 164.561,364.051 211.227,361.885 257.5,351.5C 263.929,357.42 271.262,361.92 279.5,365C 228.15,380.395 175.817,384.728 122.5,378C 109.278,376.592 96.9449,372.592 85.5,366C 79.6526,359.079 80.6526,353.079 88.5,348C 95.1056,344.529 101.772,341.362 108.5,338.5 Z"/></g>
<g><path style="opacity:0.966" fill="#5382a1" d="M 120.5,394.5 C 121.239,394.369 121.906,394.536 122.5,395C 120.667,396.833 118.833,398.667 117,400.5C 116.37,402.903 117.203,404.737 119.5,406C 131.892,409.6 144.559,411.6 157.5,412C 185.478,413.802 213.145,411.635 240.5,405.5C 250.373,410.603 260.373,415.436 270.5,420C 226.88,437.624 181.88,442.291 135.5,434C 121.939,431.93 109.772,426.763 99,418.5C 95.4454,413.266 95.9454,408.433 100.5,404C 106.863,399.983 113.53,396.816 120.5,394.5 Z"/></g>
<g><path style="opacity:0.944" fill="#5282a0" d="M -0.5,463.5 C -0.5,462.5 -0.5,461.5 -0.5,460.5C 5.6265,451.565 13.9598,445.398 24.5,442C 38.7892,436.219 53.6225,432.719 69,431.5C 73.7949,431.766 78.2949,432.933 82.5,435C 66.5511,436.095 51.5511,440.428 37.5,448C 33.9233,449.852 32.9233,452.518 34.5,456C 43.373,460.402 52.7063,463.402 62.5,465C 108.924,471.855 155.59,474.188 202.5,472C 236.351,471.04 270.018,468.04 303.5,463C 316.727,461.194 329.394,457.527 341.5,452C 348.103,448.04 349.103,443.04 344.5,437C 353.896,438.703 356.729,443.869 353,452.5C 341.342,461.727 328.176,467.894 313.5,471C 264.665,482.267 215.165,487.767 165,487.5C 113.708,487.292 62.8743,482.458 12.5,473C 6.55867,471.727 2.22534,468.56 -0.5,463.5 Z"/></g>
<g><path style="opacity:0.915" fill="#5282a1" d="M 225.5,511.5 C 203.833,511.5 182.167,511.5 160.5,511.5C 140.923,510.363 121.256,508.53 101.5,506C 89.5588,504.517 78.2255,501.184 67.5,496C 131.38,503.834 195.38,504.501 259.5,498C 287.305,495.033 314.639,489.699 341.5,482C 355.053,478.477 366.886,471.977 377,462.5C 376.755,469.493 373.921,475.326 368.5,480C 358.449,487.192 347.449,492.525 335.5,496C 299.253,505.112 262.586,510.279 225.5,511.5 Z"/></g>
</svg>
